<?xml version="1.0" standalone="no"?>
<!DOCTYPE svg PUBLIC "-//W3C//DTD SVG 1.1//EN" "http://www.w3.org/Graphics/SVG/1.1/DTD/svg11.dtd" >
<svg>
<metadata>
Created by FontForge 20090914 at Thu Mar  8 08:57:21 2012
 By www-data
</metadata>
<defs>
<font id="Aller-Italic" horiz-adv-x="450" >
  <font-face 
    font-family="Aller"
    font-weight="400"
    font-style="italic"
    font-stretch="normal"
    units-per-em="1000"
    panose-1="2 0 5 3 4 0 0 9 0 4"
    ascent="800"
    descent="-200"
    x-height="513"
    cap-height="723"
    bbox="-220 -245 1380 965.006"
    underline-thickness="50"
    underline-position="-50"
    slope="-12"
    unicode-range="U+0020-U+FB04"
  />
<missing-glyph horiz-adv-x="475" 
 />
    <glyph glyph-name="ff" unicode="ff" horiz-adv-x="633" 
d="M177 434l-83.0039 0.00878906c0 13.333 0.833008 26.166 2.5 38.499s5.16699 25.833 10.5 40.5h83l11 54c24 117.333 89.667 176 197 176c16.667 0 31.834 -1.33301 45.501 -4s25.167 -6 34.5 -10c-4 -16.667 -8 -30.834 -12 -42.501s-9.33301 -23.834 -16 -36.501
c-6.66699 2.66699 -14.167 5.16699 -22.5 7.5s-18.166 3.5 -29.499 3.5c-14 0 -26.333 -1.83301 -37 -5.5s-20.167 -10.167 -28.5 -19.5s-15.666 -21.666 -21.999 -36.999s-12.166 -35 -17.499 -59l-6 -27h199l12 54c26 117.333 92.667 176 200 176
c16.667 0 31.5 -1.16699 44.5 -3.5s24.833 -5.16602 35.5 -8.49902c-4 -17.333 -8.16699 -31.833 -12.5 -43.5s-9.83301 -23.834 -16.5 -36.501c-7.33301 2.66699 -15.166 5 -23.499 7s-17.5 3 -27.5 3c-14 0 -26.667 -1.83301 -38 -5.5s-21.5 -10.167 -30.5 -19.5
s-17 -21.666 -24 -36.999s-12.5 -35 -16.5 -59l-5 -27h123c0 -14 -1 -27 -3 -39s-5.66699 -25.333 -11 -40h-122l-77 -434c-8 -45.333 -18 -83.5 -30 -114.5s-26.5 -56 -43.5 -75s-37 -32.833 -60 -41.5s-49.833 -13 -80.5 -13s-55.667 4.33301 -75 13
c2.66699 15.333 5.83398 29.166 9.50098 41.499s8.83398 24.5 15.501 36.5c7.33301 -2.66699 15.166 -4.83398 23.499 -6.50098s16.5 -2.5 24.5 -2.5c14.667 0 28 1.83301 40 5.5s22.5 10.5 31.5 20.5s17 24.167 24 42.5s13.167 42.166 18.5 71.499l81 456h-199l-88 -492
c-6 -34.667 -15 -63.834 -27 -87.501s-26.5 -42.834 -43.5 -57.501s-36.667 -25.167 -59 -31.5s-46.833 -9.5 -73.5 -9.5c-14.667 0 -28.667 1.16699 -42 3.5s-25 5.5 -35 9.5c2.66699 15.333 6 29.166 10 41.499s9.33301 24.5 16 36.5
c6.66699 -2.66699 14.167 -4.83398 22.5 -6.50098s16.833 -2.5 25.5 -2.5c14.667 0 28 1.83301 40 5.5s22.667 10.5 32 20.5s17.666 24.167 24.999 42.5s13.666 42.166 18.999 71.499z" />
    <glyph glyph-name="fi" unicode="fi" horiz-adv-x="576" 
d="M177 434l-83.0029 0.00488281c0 13.333 0.833008 26.166 2.5 38.499s5.16699 25.833 10.5 40.5h83l5 29c13.333 66.667 37.5 116.834 72.5 150.501s82.833 50.5 143.5 50.5c15.333 0 30.666 -1 45.999 -3s29.833 -4.66699 43.5 -8s25.834 -6.83301 36.501 -10.5
s19 -6.83398 25 -9.50098c-3.33301 -16 -7.33301 -30.167 -12 -42.5s-10.667 -24.5 -18 -36.5c-14 6.66699 -32.167 13 -54.5 19s-44.166 9 -65.499 9c-31.333 0 -56.333 -8.5 -75 -25.5s-33.334 -48.833 -44.001 -95.5l-6 -27h296l-90 -513
c-8 -1.33301 -16.667 -2.16602 -26 -2.49902s-17.666 -0.5 -24.999 -0.5s-15.166 0.166992 -23.499 0.5s-16.166 1.16602 -23.499 2.49902l77 434h-198l-75 -428c-8 -46 -17.667 -85 -29 -117s-25.5 -57.833 -42.5 -77.5s-37.333 -33.834 -61 -42.501s-51.5 -13 -83.5 -13
c-14.667 0 -28.667 1.16699 -42 3.5s-25 5.5 -35 9.5c2.66699 15.333 6 29.166 10 41.499s9.33301 24.5 16 36.5c6.66699 -2.66699 14.167 -4.83398 22.5 -6.50098s16.833 -2.5 25.5 -2.5c18 0 33.167 2.16699 45.5 6.5s23 12.666 32 24.999s17 30 24 53
s13.833 53.167 20.5 90.5z" />
    <glyph glyph-name="fl" unicode="fl" horiz-adv-x="617" 
d="M177 434l-83.002 0.00292969c0 13.333 0.833008 26.166 2.5 38.499s5.16699 25.833 10.5 40.5h83l11 51c26 119.333 96 179 210 179c16.667 0 34.334 -1.16699 53.001 -3.5s36.667 -5.16602 54 -8.49902s33.666 -7.16602 48.999 -11.499s28.666 -8.5 39.999 -12.5
c2 -13.333 3 -25.666 3 -36.999c0 -15.333 -1.83301 -35.166 -5.5 -59.499s-7.5 -47.5 -11.5 -69.5l-72 -395c-2 -11.333 -3 -20.333 -3 -27c0 -10.667 1.5 -19.167 4.5 -25.5s6.83301 -11 11.5 -14s9.83398 -4.83301 15.501 -5.5s11.167 -1 16.5 -1
c6 0 12.833 0.666992 20.5 2s14.167 2.66602 19.5 3.99902c6 -17.333 9 -38 9 -62c0 -2.66699 -0.166992 -5.16699 -0.5 -7.5s-0.5 -4.5 -0.5 -6.5c-10 -3.33301 -22.167 -5.83301 -36.5 -7.5s-28.5 -2.5 -42.5 -2.5c-17.333 0 -33.166 1.66699 -47.499 5
s-26.666 9.33301 -36.999 18s-18.333 20.167 -24 34.5s-8.5 32.166 -8.5 53.499c0 12.667 1.33301 26 4 40l8 41l58 316c5.33301 30 9.66602 56.667 12.999 80s6 44.666 8 63.999c-13.333 4.66699 -28.666 8.5 -45.999 11.5s-34.333 4.5 -51 4.5
c-16 0 -30.167 -1.83301 -42.5 -5.5s-23.333 -10.167 -33 -19.5s-18 -21.666 -25 -36.999s-13.167 -35 -18.5 -59l-6 -27h123c0 -14 -0.833008 -27 -2.5 -39s-5.16699 -25.333 -10.5 -40h-123l-77 -437c-8 -44.667 -17.833 -82.334 -29.5 -113.001
s-26.167 -55.5 -43.5 -74.5s-37.5 -32.667 -60.5 -41s-49.833 -12.5 -80.5 -12.5c-14.667 0 -28.667 1.16699 -42 3.5s-25 5.5 -35 9.5c2.66699 15.333 6 29.166 10 41.499s9.33301 24.5 16 36.5c6.66699 -2.66699 14.167 -4.83398 22.5 -6.50098s16.833 -2.5 25.5 -2.5
c16 0 30 2 42 6s22.833 12 32.5 24s18.167 28.667 25.5 50s14 49.666 20 84.999z" />
    <glyph glyph-name="ffi" unicode="ffi" horiz-adv-x="875" 
d="M177 434l-82.999 0.00488281c0 13.333 0.833008 26.166 2.5 38.499s5.16699 25.833 10.5 40.5h83l5 29c13.333 66.667 36 116.834 68 150.501s77 50.5 135 50.5c16.667 0 31.834 -1.33301 45.501 -4s25.167 -6 34.5 -10c-4 -16.667 -8 -30.834 -12 -42.501
s-9.33301 -23.834 -16 -36.501c-6.66699 2.66699 -14.167 5.16699 -22.5 7.5s-18.166 3.5 -29.499 3.5c-14 0 -26.5 -1.83301 -37.5 -5.5s-20.5 -10 -28.5 -19s-15.167 -21.333 -21.5 -37s-12.166 -35.5 -17.499 -59.5l-6 -27h201l6 29
c13.333 66.667 37.333 116.834 72 150.501s82.667 50.5 144 50.5c14.667 0 29.667 -1 45 -3s29.833 -4.66699 43.5 -8s25.834 -6.83301 36.501 -10.5s19 -6.83398 25 -9.50098c-2.66699 -16 -6.5 -30.167 -11.5 -42.5s-11.167 -24.5 -18.5 -36.5
c-13.333 6.66699 -31.166 13 -53.499 19s-44.5 9 -66.5 9c-31.333 0 -56.833 -8.5 -76.5 -25.5s-33.834 -48.833 -42.501 -95.5l-5 -27h295l-90 -513c-7.33301 -1.33301 -15.833 -2.16602 -25.5 -2.49902s-18.167 -0.5 -25.5 -0.5s-15 0.166992 -23 0.5
s-15.667 1.16602 -23 2.49902l76 434h-197l-76 -428c-8 -46 -17.833 -84.833 -29.5 -116.5s-26 -57.5 -43 -77.5s-37.167 -34.333 -60.5 -43s-51 -13 -83 -13c-29.333 0 -55.333 4.33301 -78 13c3.33301 15.333 6.83301 29.166 10.5 41.499s8.83398 24.5 15.501 36.5
c7.33301 -2.66699 15.166 -4.83398 23.499 -6.50098s16.5 -2.5 24.5 -2.5c14.667 0 28.167 1.83301 40.5 5.5s23.166 10.5 32.499 20.5s17.666 24.167 24.999 42.5s13.666 42.166 18.999 71.499l81 456h-201l-89 -496c-6 -33.333 -15 -61.666 -27 -84.999
s-26.5 -42.166 -43.5 -56.499s-36.5 -24.666 -58.5 -30.999s-46.333 -9.5 -73 -9.5c-14.667 0 -28.667 1.16699 -42 3.5s-25 5.5 -35 9.5c2.66699 15.333 6 29.166 10 41.499s9.33301 24.5 16 36.5c6.66699 -2.66699 14.167 -4.83398 22.5 -6.50098s16.833 -2.5 25.5 -2.5
c14.667 0 28 1.83301 40 5.5s22.667 10.5 32 20.5s17.666 24.167 24.999 42.5s13.666 42.166 18.999 71.499z" />
    <glyph glyph-name="ffl" unicode="ffl" horiz-adv-x="921" 
d="M177 434l-82.9971 0.00976562c0 13.333 0.833008 26.166 2.5 38.499s5.16699 25.833 10.5 40.5h83l11 54c24 117.333 89.667 176 197 176c16.667 0 31.834 -1.33301 45.501 -4s25.167 -6 34.5 -10c-4 -16.667 -8 -30.834 -12 -42.501s-9.33301 -23.834 -16 -36.501
c-6.66699 2.66699 -14.167 5.16699 -22.5 7.5s-18.166 3.5 -29.499 3.5c-14 0 -26.5 -1.83301 -37.5 -5.5s-20.833 -10 -29.5 -19s-16.167 -21.333 -22.5 -37s-11.5 -35.5 -15.5 -59.5c-1.33301 -4.66699 -2.33301 -9.16699 -3 -13.5s-1.66699 -8.83301 -3 -13.5h206l6 29
c0.666992 4.66699 1.5 9 2.5 13s2.16699 8 3.5 12c28 117.333 98 176 210 176c16.667 0 34.167 -1.16699 52.5 -3.5s36.166 -5.16602 53.499 -8.49902s33.833 -7.16602 49.5 -11.499s29.167 -8.5 40.5 -12.5c1.33301 -6.66699 2 -12.834 2 -18.501v-18.5
c0 -15.333 -1.66699 -35.166 -5 -59.499s-7 -47.5 -11 -69.5l-74 -395c-2 -11.333 -3 -20.333 -3 -27c0 -10.667 1.5 -19.167 4.5 -25.5s6.83301 -11 11.5 -14s9.83398 -4.83301 15.501 -5.5s11.167 -1 16.5 -1c6 0 12.833 0.666992 20.5 2s14.167 2.66602 19.5 3.99902
c6 -17.333 9 -38 9 -62c0 -2.66699 -0.166992 -5.16699 -0.5 -7.5s-0.5 -4.5 -0.5 -6.5c-10 -3.33301 -22.167 -5.83301 -36.5 -7.5s-28.5 -2.5 -42.5 -2.5c-42.667 0 -72.334 9.83301 -89.001 29.5s-25 47.167 -25 82.5c0 24 3 50.667 9 80
c4.66699 32 11.167 68.833 19.5 110.5l25.5 126.5c8.66699 42.667 16.334 83.667 23.001 123s10.667 72.666 12 99.999c-13.333 4.66699 -28.5 8.5 -45.5 11.5s-34.167 4.5 -51.5 4.5c-16 0 -30.333 -1.83301 -43 -5.5s-23.834 -10 -33.501 -19s-18 -21.333 -25 -37
s-12.833 -35.5 -17.5 -59.5l-5 -27h122c0 -14 -0.833008 -27 -2.5 -39s-5.16699 -25.333 -10.5 -40h-123l-76 -434c-8 -45.333 -17.667 -83.666 -29 -114.999s-25.333 -56.5 -42 -75.5s-36.834 -32.667 -60.501 -41s-51.5 -12.5 -83.5 -12.5
c-29.333 0 -55.333 4.33301 -78 13c3.33301 15.333 6.83301 29.166 10.5 41.499s8.83398 24.5 15.501 36.5c6.66699 -2.66699 14.334 -4.83398 23.001 -6.50098s17 -2.5 25 -2.5c14.667 0 28.167 1.83301 40.5 5.5s23.166 10.5 32.499 20.5s17.666 24.167 24.999 42.5
s13.666 42.166 18.999 71.499l81 456h-206l-88 -492c-6 -34.667 -15 -63.834 -27 -87.501s-26.5 -42.834 -43.5 -57.501s-36.667 -25.167 -59 -31.5s-46.833 -9.5 -73.5 -9.5c-14.667 0 -28.667 1.16699 -42 3.5s-25 5.5 -35 9.5c2.66699 15.333 6 29.166 10 41.499
s9.33301 24.5 16 36.5c6.66699 -2.66699 14.167 -4.83398 22.5 -6.50098s16.833 -2.5 25.5 -2.5c14.667 0 28 1.83301 40 5.5s22.667 10.5 32 20.5s17.666 24.167 24.999 42.5s13.666 42.166 18.999 71.499z" />
    <glyph glyph-name=".notdef" horiz-adv-x="475" 
 />
    <glyph glyph-name="space" unicode=" " horiz-adv-x="225" 
 />
    <glyph glyph-name="exclam" unicode="!" horiz-adv-x="277" 
d="M213 719c18 2 35.335 3 52.002 3c17.333 0 35.666 -1 54.999 -3l-96 -504c-17.333 -2 -33.333 -3 -48 -3c-16.667 0 -32.334 1 -47.001 3zM84.002 0c0 38 6.33203 75 18.999 111c9.33301 1.33301 18.333 2.33301 27 3s17.667 1 27 1c8.66699 0 17.5 -0.333008 26.5 -1
s17.5 -1.66699 25.5 -3c0 -19.333 -1.66699 -37.833 -5 -55.5s-7.66602 -36.167 -12.999 -55.5c-9.33301 -1.33301 -18.5 -2.33301 -27.5 -3s-17.833 -1 -26.5 -1c-9.33301 0 -18.5 0.333008 -27.5 1s-17.5 1.66699 -25.5 3z" />
    <glyph glyph-name="quotedbl" unicode="&#x22;" horiz-adv-x="389" 
d="M360 718c7.33301 1.33301 15.333 2.33301 24 3s17 1 25 1c18 0 33.333 -1.33301 46 -4l-47 -274c-16 -2 -32 -3 -48 -3c-18 0 -34 1 -48 3zM170 718c7.33301 1.33301 15.333 2.33301 24 3s17 1 25 1c18 0 33.333 -1.33301 46 -4l-47 -274c-16 -2 -32 -3 -48 -3
c-18 0 -34 1 -48 3z" />
    <glyph glyph-name="numbersign" unicode="#" horiz-adv-x="714" 
d="M90 236c1.33301 8.66699 3.00098 17.1689 5.00098 25.502s4 17.166 6 26.499h126l43 165h-120l4.5 39.5c1.66699 14.333 4.83398 27.166 9.50098 38.499h127l41 159c9.33301 1.33301 17.5 2.16602 24.5 2.49902s14.833 0.5 23.5 0.5h20.5c7 0 14.167 -0.666992 21.5 -2
l-41 -160h162l41 159c9.33301 1.33301 17.666 2.16602 24.999 2.49902s14.666 0.5 21.999 0.5h21.5c7 0 14.5 -0.666992 22.5 -2l-41 -160h113c-2 -13.333 -3.83301 -26.166 -5.5 -38.499s-4.5 -25.5 -8.5 -39.5h-119l-43 -165h112c0 -24.667 -4.33301 -51 -13 -79h-119
l-46 -180c-9.33301 -1.33301 -17.666 -2.16602 -24.999 -2.49902s-15 -0.5 -23 -0.5c-6.66699 0 -13.667 0.166992 -21 0.5s-14.333 1.16602 -21 2.49902l46 180h-162l-46 -180c-9.33301 -1.33301 -17.5 -2.16602 -24.5 -2.49902s-14.833 -0.5 -23.5 -0.5
c-14.667 0 -29.334 1 -44.001 3l23.5 90l22.5 90h-120zM481.001 288.002l42 165h-162l-42 -165h162z" />
    <glyph glyph-name="dollar" unicode="$" horiz-adv-x="600" 
d="M250 -12l-3.99707 0.00195312c-32 0 -63.667 3.16699 -95 9.5s-57.333 14.166 -78 23.499c2.66699 14.667 6.16699 29.5 10.5 44.5s10.166 30.167 17.499 45.5c24 -10 48 -18 72 -24s52 -9 84 -9c52.667 0 94.167 11.667 124.5 35s45.5 55 45.5 95
c0 29.333 -9.33301 53.5 -28 72.5s-47 38.5 -85 58.5c-21.333 11.333 -41 22.833 -59 34.5s-33.333 24.5 -46 38.5s-22.5 29.5 -29.5 46.5s-10.5 37.167 -10.5 60.5c0 55.333 18.333 100.666 55 135.999s88.334 56.333 155.001 63l15 89c10.667 2.66699 22.334 4 35.001 4
c5.33301 0 11.166 -0.333008 17.499 -1s12.166 -1.66699 17.499 -3l-15 -86c28 -1.33301 53 -4.83301 75 -10.5s43 -12.167 63 -19.5c-2 -14 -5.33301 -28.333 -10 -43s-11.334 -28.667 -20.001 -42c-17.333 8.66699 -37.5 16 -60.5 22s-49.5 9 -79.5 9
c-19.333 0 -37.666 -1.83301 -54.999 -5.5s-32.333 -9.66699 -45 -18s-22.667 -18.833 -30 -31.5s-11 -28 -11 -46c0 -25.333 9.16699 -46.833 27.5 -64.5s45.5 -36.167 81.5 -55.5c24.667 -13.333 46.667 -26.333 66 -39s35.5 -26.334 48.5 -41.001
s22.833 -30.667 29.5 -48s10 -37.666 10 -60.999c0 -29.333 -4.83301 -56.833 -14.5 -82.5s-23.834 -48.667 -42.501 -69s-41.5 -37.333 -68.5 -51s-57.833 -23.5 -92.5 -29.5l-19 -113c-10.667 -2.66699 -22.334 -4 -35.001 -4c-13.333 0 -25 1.33301 -35 4z" />
    <glyph glyph-name="percent" unicode="%" horiz-adv-x="986" 
d="M772 708c8 1.33301 17.001 2.33301 27.001 3s19.333 1 28 1s17.667 -0.333008 27 -1s17.666 -1.66699 24.999 -3l-554 -707c-9.33301 -1.33301 -18 -2.33301 -26 -3s-16 -1 -24 -1c-8.66699 0 -18.167 0.333008 -28.5 1s-19.5 1.66699 -27.5 3zM778.001 61
c20 0 37 5.83301 51 17.5s25.5 26.5 34.5 44.5s15.667 37.5 20 58.5s6.5 40.833 6.5 59.5c0 66 -23 99 -69 99c-20 0 -36.833 -6 -50.5 -18s-25 -27 -34 -45s-15.5 -37.667 -19.5 -59s-6 -41.333 -6 -60c0 -64.667 22.333 -97 67 -97zM769.001 -11
c-52 0 -90.167 15.667 -114.5 47s-36.5 71 -36.5 119c0 31.333 4.33301 62.333 13 93s21.834 58.334 39.501 83.001s39.834 44.5 66.501 59.5s58 22.5 94 22.5c26 0 48.667 -4.16699 68 -12.5s35.166 -19.833 47.499 -34.5s21.5 -32.334 27.5 -53.001s9 -43 9 -67
c0 -33.333 -4.66699 -65.333 -14 -96s-23 -58 -41 -82s-40.333 -43.167 -67 -57.5s-57.334 -21.5 -92.001 -21.5zM274.001 367c20 0 37 5.83301 51 17.5s25.5 26.5 34.5 44.5s15.667 37.5 20 58.5s6.5 40.833 6.5 59.5c0 66 -23 99 -69 99c-20 0 -36.833 -6 -50.5 -18
s-25 -27 -34 -45s-15.5 -37.667 -19.5 -59s-6 -41.333 -6 -60c0 -64.667 22.333 -97 67 -97zM265.001 295c-52 0 -90.167 15.667 -114.5 47s-36.5 71 -36.5 119c0 31.333 4.33301 62.333 13 93s21.834 58.334 39.501 83.001s39.834 44.5 66.501 59.5s58 22.5 94 22.5
c26 0 48.667 -4.16699 68 -12.5s35.166 -19.833 47.499 -34.5s21.5 -32.334 27.5 -53.001s9 -43 9 -67c0 -33.333 -4.66699 -65.333 -14 -96s-23 -58 -41 -82s-40.333 -43.167 -67 -57.5s-57.334 -21.5 -92.001 -21.5z" />
    <glyph glyph-name="ampersand" unicode="&#x26;" horiz-adv-x="722" 
d="M579 460c3.33301 17.333 6.33203 35.002 8.99902 53.002s4 36.667 4 56v16c13.333 6.66699 29.333 11.667 48 15s34.667 5 48 5c0.666992 -6 1.16699 -12 1.5 -18s0.5 -12.333 0.5 -19c0 -20.667 -2.66699 -46.334 -8 -77.001l-6 -31h102
c-1.33301 -14.667 -3.16602 -28.334 -5.49902 -41.001s-5.5 -26 -9.5 -40h-101l-23 -129c-16.667 -92 -50.667 -158.667 -102 -200s-121.333 -62 -210 -62c-34.667 0 -66.334 3.83301 -95.001 11.5s-53.5 19.5 -74.5 35.5s-37.333 36.333 -49 61s-17.5 54 -17.5 88
c0 28 4.16699 54.167 12.5 78.5s19.833 46.5 34.5 66.5s31.834 37.333 51.501 52s41.167 26 64.5 34c-7.33301 4 -15.5 9.33301 -24.5 16s-17.167 15 -24.5 25s-13.5 21.833 -18.5 35.5s-7.5 29.167 -7.5 46.5c0 32 6.66699 60 20 84s30.666 44 51.999 60s45.5 28 72.5 36
s54.5 12 82.5 12c22.667 0 44.667 -1.5 66 -4.5s41.333 -8.16699 60 -15.5c-2 -14.667 -4.83301 -28 -8.5 -40s-9.16699 -24 -16.5 -36c-16.667 5.33301 -33 9.5 -49 12.5s-33.667 4.5 -53 4.5c-36 0 -65.667 -9.33301 -89 -28s-35 -45 -35 -79
c0 -30 9.83301 -51.5 29.5 -64.5s42.834 -19.5 69.501 -19.5h199zM563.999 379.002h-170.001c-60 0 -107 -16.667 -141 -50s-51 -77.666 -51 -132.999c0 -36.667 11.167 -65.834 33.5 -87.501s57.5 -32.5 105.5 -32.5c36 0 65.833 4.83301 89.5 14.5
s43.334 23.167 59.001 40.5s27.667 37.833 36 61.5s14.833 49.167 19.5 76.5z" />
    <glyph glyph-name="quotesingle" unicode="'" horiz-adv-x="199" 
d="M170 718c7.33301 1.33301 15.333 2.33301 24 3s17 1 25 1c18 0 33.333 -1.33301 46 -4l-47 -274c-16 -2 -32 -3 -48 -3c-18 0 -34 1 -48 3z" />
    <glyph glyph-name="parenleft" unicode="(" horiz-adv-x="331" 
d="M172 -166c-13.333 31.333 -25 72.501 -35 123.501s-15 107.833 -15 170.5c0 41.333 3 83.666 9 126.999s14.167 86.166 24.5 128.499s22.5 83.5 36.5 123.5s29 77 45 111s32.5 64.5 49.5 91.5s33.833 48.833 50.5 65.5c5.33301 1.33301 11.833 2.33301 19.5 3
s16.834 1 27.501 1c9.33301 0 18.5 -0.333008 27.5 -1s17.167 -1.66699 24.5 -3c-21.333 -30 -44.5 -66.667 -69.5 -110s-48.167 -92.5 -69.5 -147.5s-39 -115.167 -53 -180.5s-21 -135 -21 -209c0 -37.333 1.66699 -71.666 5 -102.999s7.5 -59.5 12.5 -84.5
s10.167 -46.5 15.5 -64.5s10 -32 14 -42c-8.66699 -1.33301 -17.5 -2.33301 -26.5 -3s-18.167 -1 -27.5 -1c-8.66699 0 -16.834 0.333008 -24.501 1s-14.167 1.66699 -19.5 3z" />
    <glyph glyph-name="parenright" unicode=")" horiz-adv-x="338" 
d="M-8 -166c21.333 30 44.335 66.498 69.002 109.498s47.667 91.833 69 146.5s39 114.834 53 180.501s21 135.5 21 209.5c0 37.333 -1.66699 71.833 -5 103.5s-7.5 60 -12.5 85s-10.167 46.5 -15.5 64.5s-10 32 -14 42c8.66699 1.33301 17.5 2.33301 26.5 3s18.167 1 27.5 1
c8.66699 0 16.667 -0.333008 24 -1s13.666 -1.66699 18.999 -3c13.333 -31.333 25.166 -72.666 35.499 -123.999s15.5 -108.333 15.5 -171c0 -62 -6.5 -125.833 -19.5 -191.5s-29.833 -128 -50.5 -187s-43.834 -112 -69.501 -159s-50.834 -83.167 -75.501 -108.5
c-7.33301 -1.33301 -14.666 -2.33301 -21.999 -3s-15.666 -1 -24.999 -1s-18.5 0.333008 -27.5 1s-16.833 1.66699 -23.5 3z" />
    <glyph glyph-name="asterisk" unicode="*" horiz-adv-x="476" 
d="M331 719c10 2 20.333 3 31 3c9.33301 0 19.666 -1 30.999 -3l-15 -130c-7.33301 -1.33301 -14.166 -2.16602 -20.499 -2.49902s-12.833 -0.5 -19.5 -0.5s-13.167 0.166992 -19.5 0.5s-12.5 1.16602 -18.5 2.49902zM127 550c6.66699 20 17 39.665 31 58.998l119 -33
c-4.66699 -13.333 -10 -26.166 -16 -38.499s-12.667 -24.166 -20 -35.499zM245 480.998c9.33301 -5.33301 18.832 -11.833 28.499 -19.5s18.5 -16.167 26.5 -25.5l-101 -101c-8.66699 5.33301 -16.667 10.833 -24 16.5s-13.666 12.5 -18.999 20.5zM395.999 575.998
l131 33.001c6 -16 9 -33 9 -51v-8l-130 -48c-3.33301 10 -5.83301 20.667 -7.5 32s-2.5 22.666 -2.5 33.999v8zM322.999 435.999c23.333 18.667 47 33.667 71 45l51 -109c-8.66699 -8 -17.667 -14.833 -27 -20.5s-19.333 -11.167 -30 -16.5z" />
    <glyph glyph-name="plus" unicode="+" horiz-adv-x="600" 
d="M303 307h-164.001c0 13.333 1 27.5 3 42.5s5.66699 30.167 11 45.5h166l32 182c7.33301 1.33301 14.833 2.33301 22.5 3s15.5 1 23.5 1c7.33301 0 15 -0.333008 23 -1s15.667 -1.66699 23 -3l-32 -182h164c0 -14.667 -1 -29 -3 -43s-5.66699 -29 -11 -45h-166l-32 -182
c-13.333 -2.66699 -28.666 -4 -45.999 -4c-8 0 -15.833 0.333008 -23.5 1s-15.167 1.66699 -22.5 3z" />
    <glyph glyph-name="comma" unicode="," horiz-adv-x="236" 
d="M106 109c8 2 16.165 3.33301 24.498 4s16.5 1 24.5 1c8.66699 0 17.334 -0.333008 26.001 -1s16.667 -2 24 -4l-98 -221c-8.66699 -1.33301 -17.167 -2.33301 -25.5 -3s-16.166 -1 -23.499 -1c-18 0 -33.667 1.33301 -47 4z" />
    <glyph glyph-name="hyphen" unicode="-" horiz-adv-x="348" 
d="M365 334c0 -14 -1.49902 -29.333 -4.49902 -46s-6.83301 -32 -11.5 -46h-252c1.33301 31.333 6.66602 62 15.999 92h252z" />
    <glyph glyph-name="period" unicode="." horiz-adv-x="235" 
d="M61 0c0 18.667 1.83496 37.167 5.50195 55.5s8.16699 36.833 13.5 55.5c9.33301 1.33301 18.666 2.33301 27.999 3s18.666 1 27.999 1s18.666 -0.333008 27.999 -1s18.333 -1.66699 27 -3c0 -19.333 -1.66699 -37.833 -5 -55.5s-7.66602 -36.167 -12.999 -55.5
c-10.667 -1.33301 -20.5 -2.33301 -29.5 -3s-18.167 -1 -27.5 -1s-18.5 0.333008 -27.5 1s-18.167 1.66699 -27.5 3z" />
    <glyph glyph-name="slash" unicode="/" horiz-adv-x="372" 
d="M380 719c15.333 2.66699 31.667 4 49 4c8 0 16.5 -0.333008 25.5 -1s17.5 -1.66699 25.5 -3l-358 -719c-8.66699 -1.33301 -17.667 -2.33301 -27 -3s-18 -1 -26 -1c-7.33301 0 -15 0.333008 -23 1s-15.667 1.66699 -23 3z" />
    <glyph glyph-name="zero" unicode="0" horiz-adv-x="600" 
d="M301 -12c-39.333 0 -72.333 6.66602 -99 19.999s-48 30.833 -64 52.5s-27.5 46.334 -34.5 74.001s-10.5 55.834 -10.5 84.501c0 54 6.83301 107 20.5 159s33.834 98.5 60.501 139.5s59.667 74.167 99 99.5s84.666 38 135.999 38c39.333 0 72.333 -6.66699 99 -20
s48 -31 64 -53s27.5 -46.833 34.5 -74.5s10.5 -55.834 10.5 -84.501c0 -54 -6.83301 -107 -20.5 -159s-33.834 -98.5 -60.501 -139.5s-59.667 -74 -99 -99s-84.666 -37.5 -135.999 -37.5zM310 74.999c31.333 0 59.499 10.001 84.499 30.001s46.333 46.333 64 79
s31.167 70.167 40.5 112.5s14 85.5 14 129.5c0 18.667 -1.83301 36.5 -5.5 53.5s-9.83398 32 -18.501 45s-20.167 23.333 -34.5 31s-32.5 11.5 -54.5 11.5c-32 0 -60.5 -9.83301 -85.5 -29.5s-46.167 -45.834 -63.5 -78.501s-30.666 -70.167 -39.999 -112.5
s-14 -85.833 -14 -130.5c0 -18 1.83301 -35.5 5.5 -52.5s9.83398 -32 18.501 -45s20.167 -23.5 34.5 -31.5s32.5 -12 54.5 -12z" />
    <glyph glyph-name="one" unicode="1" horiz-adv-x="600" 
d="M290 85l73 421l-140 -63c-8 13.333 -14.5 26.5 -19.5 39.5s-8.16699 26.5 -9.5 40.5l277 127h19l-100 -565h145c0 -13.333 -1.33301 -27.5 -4 -42.5s-6 -29.167 -10 -42.5h-399c0 14 1.33301 28.667 4 44s6 29 10 41h154z" />
    <glyph glyph-name="two" unicode="2" horiz-adv-x="600" 
d="M278 232l66.5029 67.502c20.333 21 37.666 41.667 51.999 62s25.666 40.666 33.999 60.999s12.5 41.166 12.5 62.499c0 24.667 -8.33301 44.5 -25 59.5s-43 22.5 -79 22.5c-28.667 0 -54.5 -4 -77.5 -12s-45.5 -16.667 -67.5 -26c-12.667 24.667 -19.667 52.667 -21 84
c25.333 10 53.166 19.5 83.499 28.5s64.5 13.5 102.5 13.5c60.667 0 108.167 -13.833 142.5 -41.5s51.5 -66.5 51.5 -116.5c0 -28 -4.83301 -54.667 -14.5 -80s-22.834 -50.166 -39.501 -74.499s-36.167 -48.333 -58.5 -72s-46.5 -47.834 -72.5 -72.501l-115 -111h263
c0 -14.667 -1.5 -29.667 -4.5 -45s-6.5 -29.333 -10.5 -42h-441c-1.33301 5.33301 -2.66602 9.33301 -3.99902 12z" />
    <glyph glyph-name="three" unicode="3" horiz-adv-x="600" 
d="M209 299l214.997 257h-253c0 14.667 1.5 29.834 4.5 45.501s6.5 30.167 10.5 43.5h399l5 -12l-228 -271c57.333 -3.33301 99.833 -20.833 127.5 -52.5s41.5 -71.167 41.5 -118.5c0 -41.333 -7.66699 -78.333 -23 -111s-36.5 -60.334 -63.5 -83.001s-58.667 -40 -95 -52
s-75.166 -18 -116.499 -18c-30 0 -61.167 2.83301 -93.5 8.5s-61.166 14.5 -86.499 26.5c3.33301 13.333 7.83301 27 13.5 41s12.167 27.667 19.5 41c19.333 -9.33301 42.5 -16.833 69.5 -22.5s53.5 -8.5 79.5 -8.5c26.667 0 51.5 3.66699 74.5 11s43 18.333 60 33
s30.5 32.667 40.5 54s15 46 15 74c0 20.667 -3.5 37.834 -10.5 51.501s-16.167 24.667 -27.5 33s-24.666 14.166 -39.999 17.499s-31.333 5 -48 5c-13.333 0 -27 -0.5 -41 -1.5s-28 -3.16699 -42 -6.5z" />
    <glyph glyph-name="four" unicode="4" horiz-adv-x="600" 
d="M57 89l372 575.002c15.333 -2 30.333 -6.33301 45 -13s27 -14.667 37 -24l-297 -461h192l35 198c7.33301 1.33301 15.666 2.33301 24.999 3s18 1 26 1c7.33301 0 15.5 -0.333008 24.5 -1s16.833 -1.66699 23.5 -3l-35 -198h87c0 -14.667 -1.33301 -29.834 -4 -45.501
s-6.33398 -29.834 -11.001 -42.501h-87l-25 -137c-7.33301 -1.33301 -15.666 -2.16602 -24.999 -2.49902s-17.666 -0.5 -24.999 -0.5c-8 0 -16.5 0.166992 -25.5 0.5s-16.833 1.16602 -23.5 2.49902l25 137h-329z" />
    <glyph glyph-name="five" unicode="5" horiz-adv-x="600" 
d="M174 291l75.999 354.001h328c0 -14.667 -1.5 -29.834 -4.5 -45.501s-6.5 -30.167 -10.5 -43.5h-237l-38 -181c12.667 2.66699 24.334 4.33398 35.001 5.00098s19.667 1 27 1c30 0 56.333 -4.5 79 -13.5s41.834 -21.167 57.501 -36.5s27.5 -33.5 35.5 -54.5
s12 -43.833 12 -68.5c0 -45.333 -8.33301 -85.333 -25 -120s-39.167 -64 -67.5 -88s-61.166 -42.167 -98.499 -54.5s-76.666 -18.5 -117.999 -18.5c-32 0 -61.333 2.83301 -88 8.5s-50.667 13.167 -72 22.5c3.33301 14 7.66602 28.5 12.999 43.5s11.666 28.833 18.999 41.5
c19.333 -7.33301 39.166 -14 59.499 -20s45.5 -9 75.5 -9c26 0 50.667 3.66699 74 11s43.833 18.5 61.5 33.5s31.667 33.833 42 56.5s15.5 49 15.5 79c0 33.333 -10.167 59.166 -30.5 77.499s-51.5 27.5 -93.5 27.5c-25.333 0 -47.333 -1.66699 -66 -5s-35.667 -8 -51 -14z
" />
    <glyph glyph-name="six" unicode="6" horiz-adv-x="600" 
d="M569 728c4 -15.333 5.99707 -30.998 5.99707 -46.998c0 -5.33301 -0.166992 -10.5 -0.5 -15.5s-1.16602 -12.167 -2.49902 -21.5c-39.333 -3.33301 -76.166 -11.166 -110.499 -23.499s-65.5 -29 -93.5 -50s-52.333 -46.333 -73 -76s-37 -63.5 -49 -101.5
c17.333 20.667 39.833 38.167 67.5 52.5s60.834 21.5 99.501 21.5c24.667 0 47.5 -3.83301 68.5 -11.5s39.167 -19 54.5 -34s27.333 -33.667 36 -56s13 -48.5 13 -78.5c0 -45.333 -7.5 -86.5 -22.5 -123.5s-35.167 -68.5 -60.5 -94.5s-54.666 -46 -87.999 -60
s-68.333 -21 -105 -21c-35.333 0 -65.833 5.5 -91.5 16.5s-46.667 26.167 -63 45.5s-28.333 42.333 -36 69s-11.5 55.667 -11.5 87c0 60.667 10 120.667 30 180s49.5 113.166 88.5 161.499s87.167 88.666 144.5 120.999s123.666 52.166 198.999 59.499zM318.997 73.002
c26 0 49.167 5.83301 69.5 17.5s37.5 27 51.5 46s24.5 40.5 31.5 64.5s10.5 48 10.5 72c0 37.333 -9.33301 65 -28 83s-45.667 27 -81 27c-20.667 0 -40.667 -4.5 -60 -13.5s-36.5 -22 -51.5 -39s-27 -37.333 -36 -61s-13.5 -50.5 -13.5 -80.5c0 -32 8.5 -59.333 25.5 -82
s44.167 -34 81.5 -34z" />
    <glyph glyph-name="seven" unicode="7" horiz-adv-x="600" 
d="M483 556l-318.001 0.00195312c0 14 1.33301 29.5 4 46.5s6.33398 31.167 11.001 42.5h457l4 -8l-415 -712c-20.667 5.33301 -37.667 11.166 -51 17.499s-26 15.166 -38 26.499z" />
    <glyph glyph-name="eight" unicode="8" horiz-adv-x="600" 
d="M273 382c-10 6 -19.9971 12.9971 -29.9971 20.9971s-19.167 17.833 -27.5 29.5s-15.166 24.834 -20.499 39.501s-8 31.667 -8 51c0 27.333 6.16699 52.833 18.5 76.5s29.166 44.334 50.499 62.001s46.333 31.667 75 42s59 15.5 91 15.5c24.667 0 48.167 -3 70.5 -9
s41.833 -15.333 58.5 -28s30 -28.334 40 -47.001s15 -40.667 15 -66c0 -22 -3.83301 -42.5 -11.5 -61.5s-18 -36.5 -31 -52.5s-28.167 -30.167 -45.5 -42.5s-36 -23.166 -56 -32.499c14.667 -8 28.667 -17 42 -27s25.166 -21.833 35.499 -35.5s18.5 -29 24.5 -46
s9 -36.167 9 -57.5c0 -35.333 -7.33301 -67 -22 -95s-34.334 -51.667 -59.001 -71s-53.334 -34.166 -86.001 -44.499s-66.667 -15.5 -102 -15.5c-29.333 0 -56.833 3 -82.5 9s-48.167 15.5 -67.5 28.5s-34.5 30.167 -45.5 51.5s-16.5 47 -16.5 77
c0 26.667 4.83301 51.5 14.5 74.5s22.667 44 39 63s35.5 36 57.5 51s45.333 28.167 70 39.5zM354.003 339.997c-22 -7.33301 -42.498 -16.667 -61.498 -28s-35.5 -24.333 -49.5 -39s-25 -30.667 -33 -48s-12 -36 -12 -56c0 -34 10.5 -58.667 31.5 -74s48.5 -23 82.5 -23
c24 0 45.667 3.5 65 10.5s35.666 16.667 48.999 29s23.666 27 30.999 44s11 35.167 11 54.5c0 31.333 -11 57.5 -33 78.5s-49 38.167 -81 51.5zM381.005 419.996c39.333 14 70.166 32.167 92.499 54.5s33.5 50.166 33.5 83.499c0 28 -9.16699 48.667 -27.5 62
s-39.833 20 -64.5 20c-20.667 0 -39 -3.16699 -55 -9.5s-29.5 -14.833 -40.5 -25.5s-19.333 -23 -25 -37s-8.5 -29 -8.5 -45c0 -15.333 3.33301 -28.833 10 -40.5s14.834 -21.5 24.501 -29.5s20 -14.667 31 -20s20.833 -9.66602 29.5 -12.999z" />
    <glyph glyph-name="nine" unicode="9" horiz-adv-x="600" 
d="M127 0c82 10 151.998 34.998 209.998 74.998s98.667 98.667 122 176c-17.333 -21.333 -40 -39 -68 -53s-62 -21 -102 -21c-24 0 -46.167 4.16699 -66.5 12.5s-38.166 20.333 -53.499 36s-27.333 34.667 -36 57s-13 47.833 -13 76.5c0 44.667 7.33301 85 22 121
s34.5 66.833 59.5 92.5s54 45.5 87 59.5s67.5 21 103.5 21c35.333 0 65.833 -5.5 91.5 -16.5s46.834 -26.167 63.501 -45.5s29 -42.166 37 -68.499s12 -55.166 12 -86.499c0 -38 -3.83301 -76.833 -11.5 -116.5s-19.5 -78.334 -35.5 -116.001s-36.5 -73.167 -61.5 -106.5
s-54.667 -63 -89 -89s-73.833 -47.167 -118.5 -63.5s-94.667 -26.166 -150 -29.499c-4 16 -6 33.667 -6 53c0 11.333 1 22 3 32zM329.998 259.998c20.667 0 40.834 4.50195 60.501 13.502s37.167 21.667 52.5 38s27.666 36.5 36.999 60.5s14 51 14 81
c0 16 -2.16699 30.833 -6.5 44.5s-11 25.667 -20 36s-20.167 18.5 -33.5 24.5s-29.333 9 -48 9c-26.667 0 -50.167 -5.5 -70.5 -16.5s-37.333 -25.833 -51 -44.5s-24 -39.834 -31 -63.501s-10.5 -47.834 -10.5 -72.501c0 -38 9.33301 -65.833 28 -83.5s45 -26.5 79 -26.5z
" />
    <glyph glyph-name="colon" unicode=":" horiz-adv-x="235" 
d="M126 370c0 18.667 1.83496 37.167 5.50195 55.5s8.16699 36.833 13.5 55.5c9.33301 1.33301 18.666 2.33301 27.999 3s18.666 1 27.999 1s18.666 -0.333008 27.999 -1s18.333 -1.66699 27 -3c0 -19.333 -1.66699 -37.833 -5 -55.5s-7.66602 -36.167 -12.999 -55.5
c-10.667 -1.33301 -20.5 -2.33301 -29.5 -3s-18.167 -1 -27.5 -1s-18.5 0.333008 -27.5 1s-18.167 1.66699 -27.5 3zM61.002 0c0 18.667 1.83496 37.167 5.50195 55.5s8.16699 36.833 13.5 55.5c9.33301 1.33301 18.666 2.33301 27.999 3s18.666 1 27.999 1
s18.666 -0.333008 27.999 -1s18.333 -1.66699 27 -3c0 -19.333 -1.66699 -37.833 -5 -55.5s-7.66602 -36.167 -12.999 -55.5c-10.667 -1.33301 -20.5 -2.33301 -29.5 -3s-18.167 -1 -27.5 -1s-18.5 0.333008 -27.5 1s-18.167 1.66699 -27.5 3z" />
    <glyph glyph-name="semicolon" unicode=";" horiz-adv-x="236" 
d="M87 109c8 2 16.165 3.33301 24.498 4s16.5 1 24.5 1c8.66699 0 17.334 -0.333008 26.001 -1s16.667 -2 24 -4l-98 -221c-8.66699 -1.33301 -17.167 -2.33301 -25.5 -3s-16.166 -1 -23.499 -1c-18 0 -33.667 1.33301 -47 4zM136.998 370
c0 18.667 1.83496 37.167 5.50195 55.5s8.16699 36.833 13.5 55.5c9.33301 1.33301 18.666 2.33301 27.999 3s18.666 1 27.999 1s18.666 -0.333008 27.999 -1s18.333 -1.66699 27 -3c0 -19.333 -1.66699 -37.833 -5 -55.5s-7.66602 -36.167 -12.999 -55.5
c-10.667 -1.33301 -20.5 -2.33301 -29.5 -3s-18.167 -1 -27.5 -1s-18.5 0.333008 -27.5 1s-18.167 1.66699 -27.5 3z" />
    <glyph glyph-name="less" unicode="&#x3c;" horiz-adv-x="600" 
d="M610 567c0 -18.667 -1.66602 -37.499 -4.99902 -56.499s-7 -34.167 -11 -45.5l-341 -124l297 -126c0 -17.333 -1.83301 -34.333 -5.5 -51s-7.83398 -30.667 -12.501 -42l-377 169c0 39.333 6 74.666 18 105.999z" />
    <glyph glyph-name="equal" unicode="=" horiz-adv-x="600" 
d="M556 294c0 -14.667 -1 -29.167 -3 -43.5s-5.66699 -29.166 -11 -44.499h-416c0 27.333 4.66699 56.666 14 87.999h416zM590 487c0 -13.333 -1 -27.333 -3 -42s-6 -30 -12 -46h-416c0 13.333 1 27.333 3 42s6 30 12 46h416z" />
    <glyph glyph-name="greater" unicode="&#x3e;" horiz-adv-x="600" 
d="M481 349l-296.001 123c0 15.333 1.33301 31 4 47s7 31.667 13 47l378 -169c0 -15.333 -1.5 -32.833 -4.5 -52.5s-7.83301 -37.5 -14.5 -53.5l-437 -170c0 6.66699 0.333008 14.5 1 23.5s1.83398 18.333 3.50098 28s3.5 19 5.5 28s4 16.5 6 22.5z" />
    <glyph glyph-name="question" unicode="?" horiz-adv-x="466" 
d="M226 376l37 10.0039c18.667 5.33301 36.667 12.666 54 21.999s32.666 20.666 45.999 33.999s23.833 28.5 31.5 45.5s11.5 35.833 11.5 56.5c0 30.667 -10.667 54 -32 70s-50 24 -86 24c-25.333 0 -47.166 -2.16699 -65.499 -6.5s-38.166 -10.166 -59.499 -17.499
c-4.66699 11.333 -8.66699 24.833 -12 40.5s-5 30.167 -5 43.5c30.667 11.333 59.167 18.666 85.5 21.999s52.5 5 78.5 5c33.333 0 62.833 -4.16699 88.5 -12.5s47 -20 64 -35s29.833 -32.667 38.5 -53s13 -42.5 13 -66.5c0 -29.333 -5.5 -56.833 -16.5 -82.5
s-26 -48.834 -45 -69.501s-40.833 -38.667 -65.5 -54s-50.334 -27 -77.001 -35l-17 -103c-17.333 -2 -33.333 -3 -48 -3c-8 0 -16 0.166992 -24 0.5s-15.667 1.16602 -23 2.49902zM152 1.00391c0.666992 19.333 2.50098 38.333 5.50098 57s7.83301 36.667 14.5 54
c9.33301 1.33301 18.666 2.5 27.999 3.5s18.666 1.5 27.999 1.5c8.66699 0 17.667 -0.5 27 -1.5s18.666 -2.16699 27.999 -3.5c-0.666992 -20 -2.5 -39 -5.5 -57s-7.83301 -36 -14.5 -54c-9.33301 -1.33301 -18.666 -2.33301 -27.999 -3s-18.666 -1 -27.999 -1
s-18.5 0.333008 -27.5 1s-18.167 1.66699 -27.5 3z" />
    <glyph glyph-name="at" unicode="@" horiz-adv-x="988" 
d="M686 142c6.66699 -5.33301 14.8262 -8.83203 24.4932 -10.499s19.167 -2.5 28.5 -2.5c28 0 52.667 8.16699 74 24.5s39.5 37.333 54.5 63s26.333 54 34 85s11.5 61.5 11.5 91.5c0 84.667 -25 149 -75 193s-120.333 66 -211 66c-69.333 0 -131 -12.167 -185 -36.5
s-99.5 -56.833 -136.5 -97.5s-65.167 -87 -84.5 -139s-29 -105.667 -29 -161c0 -52 7.5 -96.667 22.5 -134s35.5 -67.833 61.5 -91.5s56.667 -41.167 92 -52.5s73.333 -17 114 -17c32 0 62.5 2.5 91.5 7.5s55.167 11.833 78.5 20.5c4 -9.33301 7.83301 -19.833 11.5 -31.5
s7.16699 -24.5 10.5 -38.5c-23.333 -11.333 -53.166 -19.833 -89.499 -25.5s-76.166 -8.5 -119.499 -8.5c-50.667 0 -98.167 7.33301 -142.5 22s-83.166 37.167 -116.499 67.5s-59.666 68.5 -78.999 114.5s-29 100.333 -29 163c0 60 10.667 120.5 32 181.5
s54 116.333 98 166s99.833 90.167 167.5 121.5s148.167 47 241.5 47c50.667 0 98.167 -6.83301 142.5 -20.5s82.833 -34.5 115.5 -62.5s58.5 -63.167 77.5 -105.5s28.5 -91.833 28.5 -148.5c0 -41.333 -6.16699 -82 -18.5 -122s-30.166 -76 -53.499 -108
s-51.666 -57.833 -84.999 -77.5s-71 -29.5 -113 -29.5c-23.333 0 -44.166 2.5 -62.499 7.5s-34.166 12.833 -47.499 23.5c-19.333 -11.333 -41 -20.333 -65 -27s-50.667 -10 -80 -10c-46 0 -83.167 14.167 -111.5 42.5s-42.5 67.166 -42.5 116.499
c0 45.333 7.66699 87.166 23 125.499s36 71.333 62 99s56.5 49.334 91.5 65.001s72.167 23.5 111.5 23.5c26.667 0 52.167 -2 76.5 -6s48.166 -9.66699 71.499 -17zM650.992 436.001c-8.66699 2 -16.668 3.5 -24.001 4.5s-15 1.5 -23 1.5
c-26.667 0 -51.167 -5.5 -73.5 -16.5s-41.666 -26.167 -57.999 -45.5s-29 -42 -38 -68s-13.5 -54 -13.5 -84c0 -34 7.5 -59 22.5 -75s37.5 -24 67.5 -24c15.333 0 29.333 1.33301 42 4s26.667 7.66699 42 15z" />
    <glyph glyph-name="A" unicode="A" horiz-adv-x="599" 
d="M362 719c8.66699 1.33301 19.167 2.16699 31.5 2.5s23.166 0.5 32.499 0.5c10 0 20.167 -0.166992 30.5 -0.5s19.5 -1.16602 27.5 -2.49902l98 -719c-19.333 -2 -38.666 -3 -57.999 -3c-16 0 -32.333 1 -49 3l-19 169h-242l-73 -169c-16 -2 -34 -3 -54 -3
c-9.33301 0 -18.5 0.166992 -27.5 0.5s-17.167 1.16602 -24.5 2.49902zM446 257.001l-41 347l-152 -347h193z" />
    <glyph glyph-name="B" unicode="B" horiz-adv-x="579" 
d="M219 719c16.667 2.66699 39.166 5.16797 67.499 7.50098s54.833 3.5 79.5 3.5c34 0 64.833 -2.83301 92.5 -8.5s51.334 -14.834 71.001 -27.501s35 -28.667 46 -48s16.5 -43 16.5 -71c0 -24.667 -4 -47.667 -12 -69s-18.667 -40.166 -32 -56.499s-28.5 -30 -45.5 -41
s-34.5 -18.833 -52.5 -23.5c36 -6 65.667 -22.333 89 -49s35 -60.667 35 -102c0 -44 -8.5 -81.667 -25.5 -113s-40.167 -56.833 -69.5 -76.5s-63.5 -34 -102.5 -43s-80.5 -13.5 -124.5 -13.5c-25.333 0 -51.833 1.16699 -79.5 3.5s-54.167 5.16602 -79.5 8.49902z
M207.999 78.001c8 -1.33301 17.667 -2.33203 29 -2.99902s23.333 -1 36 -1c22 0 44.5 2.16699 67.5 6.5s44 12.166 63 23.499s34.5 27 46.5 47s18 45.667 18 77c0 20 -3.33301 36.833 -10 50.5s-16 24.667 -28 33s-26.333 14.333 -43 18s-35 5.5 -55 5.5h-78z
M337.999 419.002c44.667 0 80.666 12.333 107.999 37s41 59 41 103c0 33.333 -10.333 56.833 -31 70.5s-49.334 20.5 -86.001 20.5c-11.333 0 -22.666 -0.333008 -33.999 -1s-20.666 -1.66699 -27.999 -3l-40 -227h70z" />
    <glyph glyph-name="C" unicode="C" horiz-adv-x="577" 
d="M543 106c12.667 -24 19.999 -52.332 21.999 -84.999c-13.333 -6 -27.666 -11 -42.999 -15s-31 -7.33301 -47 -10s-31.833 -4.66699 -47.5 -6s-29.834 -2 -42.501 -2c-87.333 0 -154.5 24.667 -201.5 74s-70.5 117.333 -70.5 204c0 60 8.33301 118 25 174
s41.5 105.5 74.5 148.5s73.833 77.5 122.5 103.5s105 39 169 39c35.333 0 65.5 -2.5 90.5 -7.5s46.167 -11.167 63.5 -18.5c-3.33301 -15.333 -7.16602 -29.333 -11.499 -42s-10.833 -26.667 -19.5 -42c-19.333 7.33301 -38.333 12.666 -57 15.999s-39.667 5 -63 5
c-49.333 0 -92 -10.333 -128 -31s-65.5 -48.167 -88.5 -82.5s-40 -73.5 -51 -117.5s-16.5 -89.333 -16.5 -136c0 -64.667 15.833 -113.667 47.5 -147s77.5 -50 137.5 -50c25.333 0 48.833 2.33301 70.5 7s43.167 11.667 64.5 21z" />
    <glyph glyph-name="D" unicode="D" horiz-adv-x="684" 
d="M219 719c10.667 1.33301 22.668 2.66699 36.001 4s27 2.5 41 3.5s27.667 1.83301 41 2.5s26 1 38 1c56 0 104.333 -7 145 -21s74 -33.833 100 -59.5s45.167 -56.5 57.5 -92.5s18.5 -76 18.5 -120c0 -63.333 -9.16699 -122.166 -27.5 -176.499
s-45.5 -101.833 -81.5 -142.5s-80.833 -72.5 -134.5 -95.5s-115.834 -34.5 -186.501 -34.5c-36 0 -68.833 1.16699 -98.5 3.5s-54.5 5.16602 -74.5 8.49902zM210.001 84.001c8.66699 -1.33301 20.833 -2.5 36.5 -3.5s30.834 -1.5 45.501 -1.5c46 0 87.333 8.66699 124 26
s67.667 41.333 93 72s44.666 67 57.999 109s20 87.667 20 137c0 70.667 -16.333 124.667 -49 162s-85.667 56 -159 56c-13.333 0 -25.833 -0.5 -37.5 -1.5s-23.167 -2.16699 -34.5 -3.5z" />
    <glyph glyph-name="E" unicode="E" horiz-adv-x="524" 
d="M218 719l381 0.000976562c0 -30 -5.33301 -60 -16 -90h-278l-36 -205h222c0 -30.667 -5.33301 -60.667 -16 -90h-222l-21.5 -122.5l-21.5 -122.5h286c-2 -17.333 -3.66699 -32.333 -5 -45s-5 -27.334 -11 -44.001h-388z" />
    <glyph glyph-name="F" unicode="F" horiz-adv-x="496" 
d="M218 719l362.998 0.000976562c-2 -17.333 -3.66699 -32.833 -5 -46.5s-5 -28.167 -11 -43.5h-260l-37 -211h218c-1.33301 -31.333 -6.66602 -61.333 -15.999 -90h-218l-57 -328c-17.333 -2 -34.666 -3 -51.999 -3c-9.33301 0 -18.333 0.166992 -27 0.5
s-16.667 1.16602 -24 2.49902z" />
    <glyph glyph-name="G" unicode="G" horiz-adv-x="657" 
d="M546 371c8 1.33301 16.502 2.33594 25.502 3.00293s17.5 1 25.5 1c9.33301 0 18.166 -0.333008 26.499 -1s16.5 -1.66699 24.5 -3l-31.5 -174.5l-30.5 -174.5c-26 -10.667 -57.333 -19 -94 -25s-72 -9 -106 -9c-43.333 0 -82 6.66699 -116 20s-62.667 32.166 -86 56.499
s-41 53.666 -53 87.999s-18 72.166 -18 113.499c0 61.333 8.16699 120 24.5 176s41 105.5 74 148.5s73.833 77.167 122.5 102.5s105.667 38 171 38c33.333 0 62.833 -2.66699 88.5 -8s47.167 -11.666 64.5 -18.999c-3.33301 -15.333 -7.16602 -29.333 -11.499 -42
s-10.833 -26.667 -19.5 -42c-18.667 7.33301 -37.334 12.666 -56.001 15.999s-40.334 5 -65.001 5c-49.333 0 -91.833 -10.333 -127.5 -31s-65 -48.167 -88 -82.5s-40 -73.5 -51 -117.5s-16.5 -89.333 -16.5 -136c0 -66.667 16 -116 48 -148s76.333 -48 133 -48
c16.667 0 33.167 1.16699 49.5 3.5s30.5 5.83301 42.5 10.5z" />
    <glyph glyph-name="H" unicode="H" horiz-adv-x="666" 
d="M219 719c8 1.33301 16.3301 2.33301 24.9971 3s17.667 1 27 1c8 0 16.5 -0.333008 25.5 -1s17.5 -1.66699 25.5 -3l-52 -296h276l51 296c8 1.33301 16.333 2.33301 25 3s17.667 1 27 1c8 0 16.667 -0.333008 26 -1s17.666 -1.66699 24.999 -3l-126 -719
c-8 -1.33301 -16.5 -2.33301 -25.5 -3s-18.167 -1 -27.5 -1s-18.166 0.333008 -26.499 1s-16.166 1.66699 -23.499 3l58 333h-275l-58 -333c-8 -1.33301 -16.667 -2.33301 -26 -3s-18.333 -1 -27 -1c-9.33301 0 -18.166 0.333008 -26.499 1s-16.166 1.66699 -23.499 3z" />
    <glyph glyph-name="I" unicode="I" horiz-adv-x="288" 
d="M219 719c8.66699 1.33301 17.3291 2.33301 25.9961 3s17.334 1 26.001 1c9.33301 0 18.166 -0.333008 26.499 -1s16.5 -1.66699 24.5 -3l-126 -719c-9.33301 -1.33301 -18.166 -2.33301 -26.499 -3s-17.166 -1 -26.499 -1s-18.166 0.333008 -26.499 1
s-16.166 1.66699 -23.499 3z" />
    <glyph glyph-name="J" unicode="J" horiz-adv-x="394" 
d="M314 630l-119.999 -0.000976562c0 14.667 1.16699 29.667 3.5 45s6.16602 30 11.499 44h222l-91 -519c-7.33301 -40 -16.666 -73.667 -27.999 -101s-25.666 -49.166 -42.999 -65.499s-38 -28 -62 -35s-52.333 -10.5 -85 -10.5c-18.667 0 -35.334 1.16699 -50.001 3.5
s-28.334 5.5 -41.001 9.5c1.33301 15.333 3.33301 30.333 6 45s7.66699 28.667 15 42c7.33301 -2 16.833 -4.33301 28.5 -7s24.167 -4 37.5 -4c14 0 27.167 1 39.5 3s23.5 6.5 33.5 13.5s18.667 17.167 26 30.5s13 31 17 53z" />
    <glyph glyph-name="K" unicode="K" horiz-adv-x="583" 
d="M219 719c16.667 2 34 3 52 3c17.333 0 34 -1 50 -3l-126 -719c-17.333 -2 -34.666 -3 -51.999 -3c-18.667 0 -35.334 1 -50.001 3zM290 365l275.001 354c10 1.33301 19.5 2.16602 28.5 2.49902s17.5 0.5 25.5 0.5c8.66699 0 18.667 -0.166992 30 -0.5
s21.666 -1.16602 30.999 -2.49902l-278 -353l172 -366c-21.333 -2 -40.333 -3 -57 -3c-16 0 -34 1 -54 3z" />
    <glyph glyph-name="L" unicode="L" horiz-adv-x="490" 
d="M218 719c8 1.33301 16.5 2.33301 25.5 3s18.167 1 27.5 1c8.66699 0 17 -0.333008 25 -1s16 -1.66699 24 -3l-110 -629h268c-1.33301 -17.333 -3 -33 -5 -47s-6 -28.333 -12 -43h-369z" />
    <glyph glyph-name="M" unicode="M" horiz-adv-x="801" 
d="M238 719c8.66699 1.33301 18.1699 2.33301 28.5029 3s20.166 1 29.499 1s18.333 -0.333008 27 -1s17 -1.66699 25 -3l98 -445l255 445c7.33301 1.33301 16 2.33301 26 3s19.667 1 29 1s18.666 -0.333008 27.999 -1s17.666 -1.66699 24.999 -3l-92 -719
c-8.66699 -1.33301 -17.167 -2.33301 -25.5 -3s-16.833 -1 -25.5 -1c-9.33301 0 -18 0.333008 -26 1s-15.333 1.66699 -22 3l74 547l-230 -398c-15.333 -2 -29 -3 -41 -3c-13.333 0 -26.333 1 -39 3l-90 400l-117 -549c-7.33301 -1.33301 -15 -2.33301 -23 -3
s-16.333 -1 -25 -1c-8 0 -16 0.333008 -24 1s-15.667 1.66699 -23 3z" />
    <glyph glyph-name="N" unicode="N" horiz-adv-x="669" 
d="M218 719c7.33301 1.33301 15.499 2.16699 24.499 2.5s17.167 0.5 24.5 0.5c16.667 0 31.667 -1 45 -3l202 -542l94 542l19.5 2c6.33301 0.666992 12.833 1 19.5 1h24l32 -3l-126 -719c-7.33301 -1.33301 -15.166 -2.16602 -23.499 -2.49902s-16.5 -0.5 -24.5 -0.5
c-7.33301 0 -14.833 0.166992 -22.5 0.5s-15.167 1.16602 -22.5 2.49902l-203 539l-93 -539c-13.333 -2 -26.333 -3 -39 -3h-25l-32 3z" />
    <glyph glyph-name="O" unicode="O" horiz-adv-x="701" 
d="M349 -12c-40 0 -74.8311 6.33301 -104.498 19s-54.334 30.5 -74.001 53.5s-34.334 50.833 -44.001 83.5s-14.5 68.667 -14.5 108c0 61.333 8 120.833 24 178.5s39.5 108.667 70.5 153s69.167 80 114.5 107s97 40.5 155 40.5c40 0 75 -6.66699 105 -20
s54.667 -31.666 74 -54.999s33.833 -51.333 43.5 -84s14.5 -68.334 14.5 -107.001c0 -62.667 -8.16699 -122.667 -24.5 -180s-40 -108 -71 -152s-69 -79.167 -114 -105.5s-96.5 -39.5 -154.5 -39.5zM360.002 76c39.333 0 74.1689 11.5 104.502 34.5s56 53 77 90
s37 78.667 48 125s16.5 92.5 16.5 138.5c0 54 -11.167 97 -33.5 129s-58.5 48 -108.5 48c-40 0 -75.333 -11.333 -106 -34s-56.334 -52.334 -77.001 -89.001s-36.334 -78.167 -47.001 -124.5s-16 -93.166 -16 -140.499c0 -56 11.5 -99.5 34.5 -130.5
s58.833 -46.5 107.5 -46.5z" />
    <glyph glyph-name="P" unicode="P" horiz-adv-x="566" 
d="M219 720c20.667 2.66699 44.332 5.16895 70.999 7.50195s51.667 3.5 75 3.5c31.333 0 61.666 -3 90.999 -9s55.333 -16.333 78 -31s40.834 -34.334 54.501 -59.001s20.5 -55.667 20.5 -93c0 -45.333 -7.66699 -85.333 -23 -120s-36.333 -63.834 -63 -87.501
s-58.5 -41.667 -95.5 -54s-76.833 -18.5 -119.5 -18.5c-26.667 0 -49 1 -67 3l-46 -262c-17.333 -2 -34.666 -3 -51.999 -3s-34 1 -50 3zM256.998 351.002c9.33301 -1.33301 18.3311 -2.33301 26.998 -3s19 -1 31 -1c26.667 0 51.334 3.5 74.001 10.5
s42.334 17.667 59.001 32s29.667 33 39 56s14 50.5 14 82.5c0 44.667 -12.667 75.167 -38 91.5s-59.666 24.5 -102.999 24.5c-8.66699 0 -17.334 -0.333008 -26.001 -1s-17.667 -1.66699 -27 -3z" />
    <glyph glyph-name="Q" unicode="Q" horiz-adv-x="701" 
d="M656 -65c-1.33301 -15.333 -4.33105 -30.499 -8.99805 -45.499s-10 -28.167 -16 -39.5l-222 41c1.33301 14 4.16602 28.167 8.49902 42.5s10.166 28.166 17.499 41.499zM349.002 -11.999c-40 0 -74.8311 6.33301 -104.498 19s-54.334 30.5 -74.001 53.5
s-34.334 50.833 -44.001 83.5s-14.5 68.667 -14.5 108c0 61.333 8 120.833 24 178.5s39.5 108.667 70.5 153s69.167 80 114.5 107s97 40.5 155 40.5c40 0 75 -6.66699 105 -20s54.667 -31.666 74 -54.999s33.833 -51.333 43.5 -84s14.5 -68.334 14.5 -107.001
c0 -62.667 -8.16699 -122.667 -24.5 -180s-40 -108 -71 -152s-69 -79.167 -114 -105.5s-96.5 -39.5 -154.5 -39.5zM360.004 76.001c39.333 0 74.1689 11.5 104.502 34.5s56 53 77 90s37 78.667 48 125s16.5 92.5 16.5 138.5c0 54 -11.167 97 -33.5 129s-58.5 48 -108.5 48
c-40 0 -75.333 -11.333 -106 -34s-56.334 -52.334 -77.001 -89.001s-36.334 -78.167 -47.001 -124.5s-16 -93.166 -16 -140.499c0 -56 11.5 -99.5 34.5 -130.5s58.833 -46.5 107.5 -46.5z" />
    <glyph glyph-name="R" unicode="R" horiz-adv-x="575" 
d="M219 720c25.333 4 49.667 6.83789 73 8.50488s46.333 2.5 69 2.5c30 0 59.333 -3 88 -9s54.167 -16 76.5 -30s40.166 -32.5 53.499 -55.5s20 -51.833 20 -86.5c0 -35.333 -5.66699 -66.333 -17 -93s-25.5 -49.834 -42.5 -69.501s-35.667 -36.167 -56 -49.5
s-39.166 -24 -56.499 -32l131 -306c-20 -2 -39.333 -3 -58 -3c-19.333 0 -37.333 1 -54 3l-139 335l10 3c4 0.666992 11.167 3 21.5 7s22 9.66699 35 17s26.5 16.166 40.5 26.499s26.833 22.666 38.5 36.999s21.167 30.333 28.5 48s11 37.5 11 59.5
c0 40 -11.333 68.667 -34 86s-54 26 -94 26c-10.667 0 -20.167 -0.333008 -28.5 -1s-17.833 -1.66699 -28.5 -3l-113 -641c-8 -0.666992 -16.5 -1.33398 -25.5 -2.00098s-17.833 -1 -26.5 -1c-8 0 -16.5 0.166992 -25.5 0.5s-17.167 1.16602 -24.5 2.49902z" />
    <glyph glyph-name="S" unicode="S" horiz-adv-x="532" 
d="M81 109c24.667 -8.66699 48.999 -15.998 72.999 -21.998s50.333 -9 79 -9c56.667 0 100.167 12.5 130.5 37.5s45.5 58.5 45.5 100.5c0 27.333 -8.83301 50.333 -26.5 69s-44.5 37.667 -80.5 57c-22 12 -42 24.167 -60 36.5s-33.333 25.5 -46 39.5s-22.5 29.667 -29.5 47
s-10.5 37 -10.5 59c0 31.333 6 59.666 18 84.999s29.167 47 51.5 65s49.166 32 80.499 42s66.333 15 105 15c36 0 67 -2.66699 93 -8s50.667 -12.666 74 -21.999c-2.66699 -14 -6.5 -28.333 -11.5 -43s-11.833 -28.667 -20.5 -42c-17.333 8 -36.833 15 -58.5 21
s-46.5 9 -74.5 9c-21.333 0 -41 -2 -59 -6s-33.667 -10 -47 -18s-23.833 -18.5 -31.5 -31.5s-11.5 -28.5 -11.5 -46.5c0 -26.667 8 -48.834 24 -66.501s40.667 -35.5 74 -53.5c24.667 -13.333 46.834 -26.333 66.501 -39s36.334 -26.334 50.001 -41.001s24.167 -31 31.5 -49
s11 -39 11 -63c0 -36.667 -6.83301 -70 -20.5 -100s-33.167 -55.667 -58.5 -77s-56 -37.833 -92 -49.5s-76.667 -17.5 -122 -17.5c-36.667 0 -69.667 2.83301 -99 8.5s-56.333 13.167 -81 22.5c5.33301 29.333 16.333 59.333 33 90z" />
    <glyph glyph-name="T" unicode="T" horiz-adv-x="515" 
d="M313 630l-177.999 -0.00195312c0 14.667 1.33301 29.334 4 44.001s6.66699 29.667 12 45h459c0 -15.333 -1.33301 -30.166 -4 -44.499s-6.66699 -29.166 -12 -44.499h-178l-110 -630c-17.333 -2 -35 -3 -53 -3c-8.66699 0 -17.334 0.166992 -26.001 0.5
s-16.667 1.16602 -24 2.49902z" />
    <glyph glyph-name="U" unicode="U" horiz-adv-x="663" 
d="M212 719c8.66699 1.33301 17.5029 2.33496 26.5029 3.00195s17.833 1 26.5 1s17.167 -0.333008 25.5 -1s16.5 -1.66699 24.5 -3l-72 -408c-8 -46 -12 -85 -12 -117c0 -40.667 8.5 -69.834 25.5 -87.501s46.5 -26.5 88.5 -26.5c28.667 0 53.167 4.83301 73.5 14.5
s37.5 24.167 51.5 43.5s25.667 43.5 35 72.5s17.333 62.5 24 100.5l71 408c9.33301 1.33301 18.166 2.33301 26.499 3s17.166 1 26.499 1c8 0 16.5 -0.333008 25.5 -1s17.167 -1.66699 24.5 -3l-76 -433c-8.66699 -48 -20.167 -90.667 -34.5 -128s-33 -68.5 -56 -93.5
s-51.333 -44 -85 -57s-74.167 -19.5 -121.5 -19.5c-68.667 0 -119.834 16.333 -153.501 49s-50.5 83.334 -50.5 152.001c0 15.333 1 31.666 3 48.999s4.66699 35.666 8 54.999z" />
    <glyph glyph-name="V" unicode="V" horiz-adv-x="610" 
d="M152 719c8 1.33301 17 2.33301 27 3s20 1 30 1c8.66699 0 17.5 -0.333008 26.5 -1s17.5 -1.66699 25.5 -3l70 -603l264 603c8 1.33301 16.833 2.33301 26.5 3s19.167 1 28.5 1s18.833 -0.333008 28.5 -1s18.167 -1.66699 25.5 -3l-330 -719
c-9.33301 -1.33301 -20 -2.33301 -32 -3s-22.667 -1 -32 -1c-10 0 -20.167 0.333008 -30.5 1s-19.833 1.66699 -28.5 3z" />
    <glyph glyph-name="W" unicode="W" horiz-adv-x="892" 
d="M159 719c9.33301 1.33301 19.6719 2.16602 31.0049 2.49902s22.666 0.5 33.999 0.5c14.667 0 28.667 -1 42 -3l13 -586l236 586c8.66699 1.33301 18.167 2.16602 28.5 2.49902s19.833 0.5 28.5 0.5c7.33301 0 15.666 -0.166992 24.999 -0.5
s17.666 -1.16602 24.999 -2.49902l39 -592l214 592c16 2 33.333 3 52 3c8.66699 0 17.667 -0.166992 27 -0.5s17.666 -1.16602 24.999 -2.49902l-284 -719c-8 -1.33301 -17.5 -2.16602 -28.5 -2.49902s-21.167 -0.5 -30.5 -0.5s-19.333 0.166992 -30 0.5
s-20.334 1.16602 -29.001 2.49902l-39 551l-229 -551c-8.66699 -1.33301 -18.834 -2.16602 -30.501 -2.49902s-22.167 -0.5 -31.5 -0.5c-8 0 -17.167 0.166992 -27.5 0.5s-19.166 1.16602 -26.499 2.49902z" />
    <glyph glyph-name="X" unicode="X" horiz-adv-x="607" 
d="M260 377l-91.998 341.999c18.667 2 37.667 3 57 3c15.333 0 31.666 -1 48.999 -3l88 -345l-221 -374c-10 -1.33301 -20.333 -2.16602 -31 -2.49902s-20.334 -0.5 -29.001 -0.5c-18.667 0 -37 1 -55 3zM370.002 373.999l204.999 345c18 2 36 3 54 3c20 0 39 -1 57 -3
l-212 -343l118 -376c-19.333 -2 -37.666 -3 -54.999 -3c-16 0 -33.333 1 -52 3z" />
    <glyph glyph-name="Y" unicode="Y" horiz-adv-x="549" 
d="M270 262l-136.998 457c9.33301 1.33301 20.166 2.16602 32.499 2.49902s24.166 0.5 35.499 0.5c14 0 27.667 -1 41 -3l96 -353l206 353c18 2 37 3 57 3c8.66699 0 17.834 -0.166992 27.501 -0.5s18.167 -1.16602 25.5 -2.49902l-283 -460l-45 -259
c-18 -2 -35.667 -3 -53 -3c-18.667 0 -35.334 1 -50.001 3z" />
    <glyph glyph-name="Z" unicode="Z" horiz-adv-x="530" 
d="M32 8l420 621.001h-291c0 31.333 5.33301 61.333 16 90h438l4 -10l-419 -620h304c0 -16.667 -1.33301 -32.334 -4 -47.001s-6.66699 -28.667 -12 -42h-451z" />
    <glyph glyph-name="bracketleft" unicode="[" horiz-adv-x="342" 
d="M219 760l210 -0.000976562c0 -13.333 -1.16699 -27.166 -3.5 -41.499s-5.83301 -27.5 -10.5 -39.5h-113l-134 -766h112c-0.666992 -12.667 -2 -26 -4 -40s-5.33301 -27.667 -10 -41h-210z" />
    <glyph glyph-name="backslash" unicode="\" horiz-adv-x="409" 
d="M137 719c9.33301 1.33301 17.8311 2.33301 25.498 3s15.834 1 24.501 1c8 0 16 -0.333008 24 -1s16 -1.66699 24 -3l160 -719c-15.333 -2.66699 -31.666 -4 -48.999 -4c-8 0 -16.167 0.333008 -24.5 1s-16.5 1.66699 -24.5 3z" />
    <glyph glyph-name="bracketright" unicode="]" horiz-adv-x="329" 
d="M129 -86l135 765.001h-112c0 26 4.66699 53 14 81h210l-163 -928h-210c0 13.333 1.16699 27.166 3.5 41.499s5.83301 27.833 10.5 40.5h112z" />
    <glyph glyph-name="asciicircum" unicode="^" horiz-adv-x="528" 
d="M332 718c8.66699 1.33301 17.334 2.33398 26.001 3.00098s17 1 25 1c9.33301 0 18.333 -0.333008 27 -1s17.334 -1.66699 26.001 -3l91 -350c-9.33301 -1.33301 -17.833 -2.16602 -25.5 -2.49902s-15.167 -0.5 -22.5 -0.5s-14.833 0.166992 -22.5 0.5
s-15.167 1.16602 -22.5 2.49902l-66 259l-155 -260c-7.33301 -1.33301 -15.5 -2 -24.5 -2h-24.5c-6.66699 0 -13.834 0.166992 -21.501 0.5s-15.834 1.16602 -24.501 2.49902z" />
    <glyph glyph-name="underscore" unicode="_" horiz-adv-x="486" 
d="M477 -14c0 -14.667 -1.16895 -27.833 -3.50195 -39.5s-5.16602 -23.167 -8.49902 -34.5h-473c0 1.33301 -0.166992 3 -0.5 5s-0.5 3.66699 -0.5 5c0 9.33301 0.833008 19.333 2.5 30s4.83398 22 9.50098 34h474z" />
    <glyph glyph-name="grave" unicode="`" horiz-adv-x="500" 
d="M250 721c10 1.33301 20 2.33301 30 3s20.667 1 32 1s22.5 -0.333008 33.5 -1s21.5 -1.66699 31.5 -3l92 -127c-15.333 -2.66699 -31.333 -4 -48 -4c-10 0 -19.333 0.333008 -28 1s-16.667 1.66699 -24 3z" />
    <glyph glyph-name="a" unicode="a" horiz-adv-x="554" 
d="M455 437c-8 2 -16.334 3.33203 -25.001 3.99902s-18.334 1 -29.001 1c-33.333 0 -63.166 -7.66699 -89.499 -23s-49 -35.833 -68 -61.5s-33.5 -54.667 -43.5 -87s-15 -65.5 -15 -99.5c0 -32 5.66699 -56.833 17 -74.5s28.333 -26.5 51 -26.5
c20.667 0 40.667 6.66699 60 20s37 31.833 53 55.5s29.833 51.334 41.5 83.001s20.834 65.5 27.501 101.5zM511.999 217.999c-7.33301 -40 -13.167 -74.332 -17.5 -102.999s-6.5 -53.667 -6.5 -75c0 -8.66699 0.166992 -15.5 0.5 -20.5s1.16602 -11.167 2.49902 -18.5
c-7.33301 -1.33301 -15.333 -2.33301 -24 -3s-16.667 -1 -24 -1c-6.66699 0 -14 0.333008 -22 1s-15.667 1.66699 -23 3c-1.33301 7.33301 -2.33301 14.833 -3 22.5s-1 17.167 -1 28.5c0 7.33301 0.833008 17.333 2.5 30s3.5 24 5.5 34
c-7.33301 -14.667 -17 -29.5 -29 -44.5s-25.833 -28.667 -41.5 -41s-33.334 -22.5 -53.001 -30.5s-40.834 -12 -63.501 -12c-44 0 -77.167 14.5 -99.5 43.5s-33.5 68.5 -33.5 118.5c0 47.333 7.33301 93.5 22 138.5s36.334 85 65.001 120s64.334 63.167 107.001 84.5
s92.334 32 149.001 32c24 0 48.167 -1.83301 72.5 -5.5s45.833 -8.83398 64.5 -15.501z" />
    <glyph glyph-name="b" unicode="b" horiz-adv-x="571" 
d="M194 78c7.33301 -2 16.334 -3.66699 27.001 -5s20.667 -2 30 -2c30.667 0 59.167 6.33301 85.5 19s49 30.167 68 52.5s34 48.833 45 79.5s16.5 64 16.5 100s-7.5 64.5 -22.5 85.5s-37.167 31.5 -66.5 31.5c-17.333 0 -34 -3.66699 -50 -11s-30.833 -19 -44.5 -35
s-25.834 -36.833 -36.501 -62.5s-19 -57.167 -25 -94.5zM175.001 528c6 36.667 11.0039 68.4971 15.0039 95.4971s6 51.167 6 72.5v20c0 4.66699 -0.333008 10.334 -1 17.001c7.33301 1.33301 16.166 2.33301 26.499 3s19.166 1 26.499 1
c6.66699 0 14.167 -0.166992 22.5 -0.5s16.166 -1.16602 23.499 -2.49902c0.666992 -6.66699 1.16699 -12.834 1.5 -18.501s0.5 -11.834 0.5 -18.501c0 -15.333 -1.66699 -35.333 -5 -60s-7 -47.667 -11 -69l-23 -131c8.66699 12 18.167 23.333 28.5 34s22.166 20 35.499 28
s28.333 14.333 45 19s35.667 7 57 7c46 0 82.333 -16.167 109 -48.5s40 -77.833 40 -136.5c0 -47.333 -7.16699 -92.166 -21.5 -134.499s-36 -79.666 -65 -111.999s-65.333 -58 -109 -77s-94.834 -28.5 -153.501 -28.5c-25.333 0 -50.666 2.33301 -75.999 7
s-46.333 10.334 -63 17.001z" />
    <glyph glyph-name="c" unicode="c" horiz-adv-x="459" 
d="M421 90c5.33301 -9.33301 9.50098 -20.501 12.501 -33.501s4.5 -27.833 4.5 -44.5c-19.333 -8 -41.666 -14 -66.999 -18s-48.333 -6 -69 -6c-73.333 0 -127.333 18 -162 54s-52 86.333 -52 151c0 40 6.5 79.833 19.5 119.5s32.333 75.334 58 107.001s57 57.167 94 76.5
s79.5 29 127.5 29c22 0 43 -2 63 -6s37.333 -8.66699 52 -14c-0.666992 -12.667 -3.33398 -26.5 -8.00098 -41.5s-10.667 -28.167 -18 -39.5c-13.333 5.33301 -27.833 9.83301 -43.5 13.5s-32.167 5.5 -49.5 5.5c-32.667 0 -61 -7.16699 -85 -21.5s-44 -33 -60 -56
s-27.833 -48.833 -35.5 -77.5s-11.5 -57 -11.5 -85c0 -45.333 11.167 -78.833 33.5 -100.5s53.166 -32.5 92.499 -32.5c17.333 0 34.5 1.5 51.5 4.5s34.5 8.16699 52.5 15.5z" />
    <glyph glyph-name="d" unicode="d" horiz-adv-x="552" 
d="M456 437c-8 2 -16.333 3.33203 -25 3.99902s-18.334 1 -29.001 1c-33.333 0 -63.166 -7.66699 -89.499 -23s-49 -35.833 -68 -61.5s-33.5 -54.667 -43.5 -87s-15 -65.5 -15 -99.5c0 -32 5.66699 -56.833 17 -74.5s28.333 -26.5 51 -26.5c20.667 0 40.667 6.66699 60 20
s37 31.833 53 55.5s30 51.334 42 83.001s21.333 65.5 28 101.5zM514 217.999c-7.33301 -40 -13 -74.333 -17 -103s-6 -53.667 -6 -75v-20.5c0 -5 0.666992 -11.167 2 -18.5c-7.33301 -1.33301 -15.166 -2.33301 -23.499 -3s-16.166 -1 -23.499 -1s-15 0.333008 -23 1
s-15.333 1.66699 -22 3c-1.33301 5.33301 -2.5 11.166 -3.5 17.499s-1.5 15.166 -1.5 26.499c0 8 0.833008 19.167 2.5 33.5s4.16699 27.5 7.5 39.5c-8 -14.667 -18 -29.667 -30 -45s-26 -29.333 -42 -42s-33.833 -23 -53.5 -31s-40.834 -12 -63.501 -12
c-44 0 -77.333 14.5 -100 43.5s-34 68.5 -34 118.5c0 47.333 7.33301 93.5 22 138.5s36.334 85 65.001 120s64.5 63.167 107.5 84.5s92.5 32 148.5 32c7.33301 0 15 -0.333008 23 -1s14.667 -1.33398 20 -2.00098c7.33301 38.667 13 72 17 100s6 52.667 6 74v20
c0 4.66699 -0.333008 10.334 -1 17.001c7.33301 1.33301 16.166 2.33301 26.499 3s19.166 1 26.499 1c6.66699 0 14.167 -0.166992 22.5 -0.5s15.833 -1.16602 22.5 -2.49902c2 -13.333 3 -25.666 3 -36.999c0 -15.333 -1.5 -35 -4.5 -59s-6.5 -47 -10.5 -69z" />
    <glyph glyph-name="e" unicode="e" horiz-adv-x="498" 
d="M186 204c2 -44.667 13.3291 -78.3311 33.9961 -100.998s52.667 -34 96 -34c26.667 0 52 3.16699 76 9.5s45.667 13.166 65 20.499c6 -10 10.333 -22 13 -36s4 -28 4 -42c-10 -4.66699 -22.167 -9 -36.5 -13s-29.333 -7.5 -45 -10.5s-31.5 -5.33301 -47.5 -7
s-30.667 -2.5 -44 -2.5c-39.333 0 -72.5 5.16699 -99.5 15.5s-49 24.666 -66 42.999s-29.333 40 -37 65s-11.5 52.167 -11.5 81.5c0 40.667 6.83301 80.834 20.5 120.501s33.334 75.167 59.001 106.5s56.334 56.666 92.001 75.999s75.5 29 119.5 29
s78.833 -10.833 104.5 -32.5s38.5 -50.5 38.5 -86.5c0 -29.333 -7.16699 -54.833 -21.5 -76.5s-34.166 -40.167 -59.499 -55.5s-55.166 -28 -89.499 -38s-71.833 -18 -112.5 -24zM248.996 288.003c34 6 62.1689 12.833 84.502 20.5s40.166 16 53.499 25
s22.666 18.5 27.999 28.5s8 21 8 33c0 15.333 -5.33301 27.833 -16 37.5s-26 14.5 -46 14.5c-21.333 0 -41 -4.83301 -59 -14.5s-34.167 -22.334 -48.5 -38.001s-26.5 -33.667 -36.5 -54s-17.667 -41.166 -23 -62.499z" />
    <glyph glyph-name="f" unicode="f" horiz-adv-x="336" 
d="M177 434l-82.999 0.00390625c0 13.333 0.833008 26.166 2.5 38.499s5.16699 25.833 10.5 40.5h83l5 29c11.333 67.333 33.5 117.666 66.5 150.999s79.5 50 139.5 50c17.333 0 32.333 -1.16699 45 -3.5s24.334 -5.16602 35.001 -8.49902
c-4 -17.333 -8.16699 -31.833 -12.5 -43.5s-9.83301 -23.834 -16.5 -36.501c-7.33301 2.66699 -15 5 -23 7s-17.333 3 -28 3c-14 0 -26.667 -1.83301 -38 -5.5s-21.5 -10 -30.5 -19s-16.833 -21.333 -23.5 -37s-12 -35.5 -16 -59.5
c-1.33301 -4.66699 -2.33301 -9.16699 -3 -13.5s-1.66699 -8.83301 -3 -13.5h123c0 -14 -0.833008 -27 -2.5 -39s-5.16699 -25.333 -10.5 -40h-123l-77 -437c-8 -44.667 -17.833 -82.334 -29.5 -113.001s-26.167 -55.5 -43.5 -74.5s-37.5 -32.667 -60.5 -41
s-49.833 -12.5 -80.5 -12.5c-14.667 0 -28.667 1.16699 -42 3.5s-25 5.5 -35 9.5c2.66699 15.333 6 29.166 10 41.499s9.33301 24.5 16 36.5c6.66699 -2.66699 14.167 -4.83398 22.5 -6.50098s16.833 -2.5 25.5 -2.5c15.333 0 29.166 2 41.499 6s23.166 12 32.499 24
s17.833 28.833 25.5 50.5s14.5 49.834 20.5 84.501z" />
    <glyph glyph-name="g" unicode="g" horiz-adv-x="550" 
d="M403 116c-7.33301 -14.667 -16.999 -29.501 -28.999 -44.501s-26 -28.667 -42 -41s-33.833 -22.5 -53.5 -30.5s-40.834 -12 -63.501 -12c-44 0 -77.167 14.5 -99.5 43.5s-33.5 68.5 -33.5 118.5c0 47.333 7.33301 93.5 22 138.5s36.334 85 65.001 120
s64.334 63.167 107.001 84.5s92.334 32 149.001 32c24 0 48.5 -1.83301 73.5 -5.5s46.833 -8.83398 65.5 -15.501l-44.5 -250l-44.5 -250c-8 -45.333 -21.333 -83.666 -40 -114.999s-41.667 -56.833 -69 -76.5s-58.333 -34 -93 -43s-72 -13.5 -112 -13.5
c-22.667 0 -45.334 2 -68.001 6s-41.334 9 -56.001 15c0.666992 28.667 8 55.334 22 80.001c13.333 -3.33301 29 -6.83301 47 -10.5s37.667 -5.5 59 -5.5c30 0 56.667 3 80 9s44 16 62 30s33.167 32.333 45.5 55s22.166 51 29.499 85zM455.001 435.999c-16 4 -34 6 -54 6
c-33.333 0 -63.333 -7.66699 -90 -23s-49.334 -35.833 -68.001 -61.5s-33.167 -54.667 -43.5 -87s-15.5 -65.5 -15.5 -99.5c0 -32 6 -56.833 18 -74.5s29 -26.5 51 -26.5c21.333 0 41.5 6.66699 60.5 20s36.333 31.666 52 54.999s29.334 50.833 41.001 82.5
s21.167 65.834 28.5 102.501z" />
    <glyph glyph-name="h" unicode="h" horiz-adv-x="567" 
d="M174 527c6.66699 37.333 12.001 69.498 16.001 96.498s6 51.167 6 72.5c0 8 -0.166992 14.333 -0.5 19s-0.833008 10.667 -1.5 18c7.33301 1.33301 16.333 2.33301 27 3s19.667 1 27 1c6.66699 0 14.167 -0.333008 22.5 -1s15.833 -1.66699 22.5 -3
c2 -12 3 -24.333 3 -37c0 -7.33301 -0.5 -16.166 -1.5 -26.499s-2.16699 -21.166 -3.5 -32.499s-3 -23 -5 -35s-4 -23.333 -6 -34c-4.66699 -22.667 -9 -45.167 -13 -67.5l-12 -67.5c18.667 24.667 42.667 46 72 64s62.666 27 99.999 27c40.667 0 72.5 -10.667 95.5 -32
s34.5 -54.333 34.5 -99c0 -10 -0.666992 -21 -2 -33s-3 -24 -5 -36l-57 -324c-7.33301 -1.33301 -15.833 -2.16602 -25.5 -2.49902s-18.167 -0.5 -25.5 -0.5s-15.5 0.166992 -24.5 0.5s-16.833 1.16602 -23.5 2.49902l27 154l27 154l4 30c1.33301 10 2 18.667 2 26
c0 25.333 -6.83301 44 -20.5 56s-31.167 18 -52.5 18c-15.333 0 -31 -3.33301 -47 -10s-31.167 -18.167 -45.5 -34.5s-27.5 -38.333 -39.5 -66s-21.667 -62.5 -29 -104.5c-7.33301 -38 -14.166 -75.333 -20.499 -112l-19.5 -111
c-9.33301 -1.33301 -19 -2.16602 -29 -2.49902s-19.667 -0.5 -29 -0.5c-3.33301 0 -9.33301 0.166992 -18 0.5s-16.334 1.16602 -23.001 2.49902z" />
    <glyph glyph-name="i" unicode="i" horiz-adv-x="285" 
d="M180 434h-62c0 13.333 0.833008 26.333 2.5 39s5.16699 26 10.5 40h160l-90 -513c-7.33301 -1.33301 -15.833 -2.16602 -25.5 -2.49902s-18.167 -0.5 -25.5 -0.5s-15 0.166992 -23 0.5s-15.667 1.16602 -23 2.49902zM179 619c0 19.333 1.66699 37.667 5 55
s7.66602 35 12.999 53c9.33301 1.33301 19.333 2.33301 30 3s20 1 28 1s17.167 -0.333008 27.5 -1s19.833 -1.66699 28.5 -3c-0.666992 -19.333 -2.66699 -37.833 -6 -55.5s-7.66602 -35.167 -12.999 -52.5c-9.33301 -1.33301 -19.333 -2.16602 -30 -2.49902
s-20 -0.5 -28 -0.5c-7.33301 0 -16.333 0.166992 -27 0.5s-20 1.16602 -28 2.49902z" />
    <glyph glyph-name="j" unicode="j" horiz-adv-x="284" 
d="M180 434h-62c0 13.333 0.833008 26.166 2.5 38.499s5.16699 25.833 10.5 40.5h160l-102 -582c-20.667 -116.667 -84.334 -175 -191.001 -175c-16 0 -31.167 1.16699 -45.5 3.5s-27.166 5.5 -38.499 9.5c0 10.667 1.83301 23.334 5.5 38.001s8.16699 27.334 13.5 38.001
c7.33301 -2.66699 16.5 -4.83398 27.5 -6.50098s21.167 -2.5 30.5 -2.5c24.667 0 46.167 7.33301 64.5 22s30.833 41 37.5 79zM179 619c0 19.333 1.66699 37.667 5 55s7.66602 35 12.999 53c9.33301 1.33301 19.333 2.33301 30 3s20 1 28 1s17.167 -0.333008 27.5 -1
s19.833 -1.66699 28.5 -3c-0.666992 -19.333 -2.66699 -37.833 -6 -55.5s-7.66602 -35.167 -12.999 -52.5c-9.33301 -1.33301 -19.333 -2.16602 -30 -2.49902s-20 -0.5 -28 -0.5c-7.33301 0 -16.333 0.166992 -27 0.5s-20 1.16602 -28 2.49902z" />
    <glyph glyph-name="k" unicode="k" horiz-adv-x="504" 
d="M261 266l105.001 131.001c18.667 23.333 34 44.666 46 63.999s19.667 36.666 23 51.999c9.33301 1.33301 18 2.33301 26 3s16.667 1 26 1s18.666 -0.333008 27.999 -1s18.333 -1.66699 27 -3c-2.66699 -15.333 -8.33398 -30.166 -17.001 -44.499
s-20.667 -31.833 -36 -52.5l-61.5 -74l-62.5 -74l122 -268c-19.333 -2 -36.666 -3 -51.999 -3c-17.333 0 -35.333 1 -54 3zM175.001 527.001c6.66699 37.333 11.8359 69.5 15.5029 96.5s5.5 51.167 5.5 72.5v19c0 4.66699 -0.333008 10.667 -1 18
c7.33301 1.33301 16.166 2.33301 26.499 3s19.166 1 26.499 1s15 -0.333008 23 -1s15.667 -1.66699 23 -3c0.666992 -6 1.16699 -12 1.5 -18s0.5 -12.333 0.5 -19c0 -12 -1 -26.833 -3 -44.5s-4.66699 -36.167 -8 -55.5l-105 -596
c-7.33301 -1.33301 -15.833 -2.16602 -25.5 -2.49902s-18.167 -0.5 -25.5 -0.5s-15.333 0.166992 -24 0.5s-16.334 1.16602 -23.001 2.49902z" />
    <glyph glyph-name="l" unicode="l" horiz-adv-x="297" 
d="M173 527c6.66699 37.333 11.832 69.5 15.499 96.5s5.83398 51.167 6.50098 72.5v19c0 4.66699 -0.333008 10.667 -1 18c7.33301 1.33301 16.166 2.33301 26.499 3s19.166 1 26.499 1c6.66699 0 14.167 -0.333008 22.5 -1s16.166 -1.66699 23.499 -3
c1.33301 -6 2 -12 2 -18v-19c0 -7.33301 -0.5 -16.166 -1.5 -26.499s-2.16699 -21.166 -3.5 -32.499s-3 -23 -5 -35s-4 -23.333 -6 -34l-78 -422c-2 -11.333 -3 -20.333 -3 -27c0 -10.667 1.5 -19.167 4.5 -25.5s6.83301 -11 11.5 -14s9.83398 -4.83301 15.501 -5.5
s11.167 -1 16.5 -1c6 0 12.833 0.666992 20.5 2s14.167 2.66602 19.5 3.99902c6 -17.333 9 -38 9 -62c0 -2.66699 -0.166992 -5.16699 -0.5 -7.5s-0.5 -4.5 -0.5 -6.5c-10 -3.33301 -22.167 -5.83301 -36.5 -7.5s-28.5 -2.5 -42.5 -2.5c-17.333 0 -33.166 1.66699 -47.499 5
s-26.666 9.33301 -36.999 18s-18.333 20.167 -24 34.5s-8.5 32.166 -8.5 53.499c0 12.667 1.33301 26 4 40l8 41z" />
    <glyph glyph-name="m" unicode="m" horiz-adv-x="843" 
d="M134 297c7.33301 40 13.1641 74.335 17.4971 103.002s6.5 53.667 6.5 75v20.5c0 5 -0.666992 11.167 -2 18.5c7.33301 1.33301 15.333 2.33301 24 3s16.667 1 24 1c6.66699 0 14 -0.333008 22 -1s15.667 -1.66699 23 -3c1.33301 -5.33301 2.33301 -11.166 3 -17.499
s1 -15.166 1 -26.499c0 -8 -0.333008 -15.667 -1 -23s-1.66699 -15 -3 -23c17.333 28 41 51.833 71 71.5s63.667 29.5 101 29.5c36 0 63.5 -8.83301 82.5 -26.5s30.167 -43.5 33.5 -77.5c20 30.667 45.333 55.667 76 75s64.334 29 101.001 29c78.667 0 118 -43.333 118 -130
c0 -10 -0.666992 -21.167 -2 -33.5s-3 -24.5 -5 -36.5l-57 -325c-7.33301 -1.33301 -15.666 -2.33301 -24.999 -3s-17.666 -1 -24.999 -1s-15.5 0.333008 -24.5 1s-16.833 1.66699 -23.5 3l54 308c2 10.667 3.5 21.167 4.5 31.5s1.5 19.166 1.5 26.499
c0 25.333 -5 43.833 -15 55.5s-26 17.5 -48 17.5c-14 0 -28.5 -3.33301 -43.5 -10s-29.333 -18 -43 -34s-26.167 -37 -37.5 -63s-20.333 -58.333 -27 -97l-41 -235c-8 -1.33301 -16.667 -2.33301 -26 -3s-17.666 -1 -24.999 -1s-15.5 0.333008 -24.5 1
s-16.833 1.66699 -23.5 3l54 308c2 10.667 3.5 21.167 4.5 31.5s1.5 19.166 1.5 26.499c0 25.333 -5 43.833 -15 55.5s-26 17.5 -48 17.5c-14 0 -28.5 -3.33301 -43.5 -10s-29.333 -18.334 -43 -35.001s-26.334 -38.834 -38.001 -66.501s-21.167 -62.5 -28.5 -104.5
l-40 -223c-8 -1.33301 -16.667 -2.33301 -26 -3s-17.666 -1 -24.999 -1s-15.333 0.333008 -24 1s-16.334 1.66699 -23.001 3z" />
    <glyph glyph-name="n" unicode="n" horiz-adv-x="575" 
d="M142 297c7.33301 40 13.1611 74.3311 17.4941 102.998s6.5 53.667 6.5 75c0 8.66699 -0.166992 15.5 -0.5 20.5s-1.16602 11.167 -2.49902 18.5c7.33301 1.33301 15.333 2.33301 24 3s16.667 1 24 1c6.66699 0 14.167 -0.333008 22.5 -1s15.833 -1.66699 22.5 -3
c1.33301 -5.33301 2.33301 -11.5 3 -18.5s1 -16.167 1 -27.5c0 -12.667 -0.833008 -24.667 -2.5 -36s-3.5 -22.333 -5.5 -33c6.66699 14 16 28.5 28 43.5s26 28.5 42 40.5s33.833 22 53.5 30s40.5 12 62.5 12c40 0 71.167 -10.667 93.5 -32s33.5 -54.333 33.5 -99
c0 -10 -0.666992 -21.167 -2 -33.5s-3 -24.166 -5 -35.499l-57 -325c-8 -1.33301 -16.667 -2.33301 -26 -3s-17.666 -1 -24.999 -1s-15.5 0.333008 -24.5 1s-16.833 1.66699 -23.5 3l54 308c2 10.667 3.5 21 4.5 31s1.5 18.667 1.5 26c0 26.667 -6.16699 45.667 -18.5 57
s-28.833 17 -49.5 17c-18 0 -35.667 -5.5 -53 -16.5s-33.666 -27.167 -48.999 -48.5s-29.166 -47.666 -41.499 -78.999s-22.166 -67.333 -29.499 -108l-33 -187c-8 -1.33301 -16.667 -2.33301 -26 -3s-17.666 -1 -24.999 -1s-15.5 0.333008 -24.5 1s-16.833 1.66699 -23.5 3
z" />
    <glyph glyph-name="o" unicode="o" horiz-adv-x="557" 
d="M276 -12c-62 0 -108.67 17.168 -140.003 51.501s-47 82.833 -47 145.5c0 36.667 5.66699 75.167 17 115.5s28.833 77 52.5 110s53.334 60.333 89.001 82s77.834 32.5 126.501 32.5c62.667 0 109.667 -17.333 141 -52s47 -83.334 47 -146.001
c0 -37.333 -5.66699 -76 -17 -116s-28.666 -76.5 -51.999 -109.5s-53 -60.167 -89 -81.5s-78.667 -32 -128 -32zM285.997 67.001c31.333 0 58.168 8.5 80.501 25.5s40.5 38.5 54.5 64.5s24.333 54.167 31 84.5s10 58.833 10 85.5c0 38 -8.5 67 -25.5 87s-41.167 30 -72.5 30
s-58 -8.66699 -80 -26s-40 -39 -54 -65s-24.167 -54.167 -30.5 -84.5s-9.5 -58.5 -9.5 -84.5c0 -38 8.16699 -67 24.5 -87s40.166 -30 71.499 -30z" />
    <glyph glyph-name="p" unicode="p" horiz-adv-x="571" 
d="M194 78c7.33301 -2.66699 16.334 -4.5 27.001 -5.5s20.667 -1.5 30 -1.5c30.667 0 59.167 6.33301 85.5 19s49 30.167 68 52.5s34 48.833 45 79.5s16.5 64 16.5 100s-7.66699 64.5 -23 85.5s-37.333 31.5 -66 31.5c-17.333 0 -34 -3.66699 -50 -11s-30.833 -19 -44.5 -35
s-25.834 -36.833 -36.501 -62.5s-19 -57.167 -25 -94.5zM134.001 297c7.33301 40 13.1699 74.3291 17.5029 102.996s6.5 53.667 6.5 75c0 8.66699 -0.166992 15.5 -0.5 20.5s-0.833008 11.167 -1.5 18.5c7.33301 1.33301 15.166 2.33301 23.499 3s16.166 1 23.499 1
c6.66699 0 14.167 -0.333008 22.5 -1s16.166 -1.66699 23.499 -3c1.33301 -5.33301 2.33301 -11.166 3 -17.499s1 -15.166 1 -26.499c0 -8 -0.333008 -15.167 -1 -21.5s-1.66699 -13.5 -3 -21.5c18 28 41.333 51.333 70 70s63.334 28 104.001 28
c46 0 82.333 -16.167 109 -48.5s40 -77.833 40 -136.5c0 -47.333 -7.16699 -92.166 -21.5 -134.499s-35.833 -79.666 -64.5 -111.999s-64.334 -58 -107.001 -77s-92.334 -28.5 -149.001 -28.5c-10.667 0 -20.167 0.333008 -28.5 1s-16.166 1.66699 -23.499 3l-39 -228
c-8 -1.33301 -16.667 -2.33301 -26 -3s-17.333 -1 -24 -1c-7.33301 0 -15.5 0.333008 -24.5 1s-17.5 1.66699 -25.5 3z" />
    <glyph glyph-name="q" unicode="q" horiz-adv-x="551" 
d="M397 105c-8 -13.333 -17.8369 -26.834 -29.5039 -40.501s-25 -26.167 -40 -37.5s-31.667 -20.666 -50 -27.999s-38.166 -11 -59.499 -11c-44 0 -77.167 14.667 -99.5 44s-33.5 69 -33.5 119c0 47.333 7.33301 93.333 22 138s36.334 84.5 65.001 119.5
s64.334 63.167 107.001 84.5s92 32 148 32c24.667 0 49 -2 73 -6s45.667 -8.66699 65 -14l-130 -741c-7.33301 -1.33301 -15.666 -2.33301 -24.999 -3s-17.333 -1 -24 -1c-7.33301 0 -15.5 0.333008 -24.5 1s-17.167 1.66699 -24.5 3zM456.996 436.999
c-7.33301 2 -15.502 3.33008 -24.502 3.99707s-18.833 1 -29.5 1c-33.333 0 -63.166 -7.66699 -89.499 -23s-49 -35.666 -68 -60.999s-33.5 -54.166 -43.5 -86.499s-15 -65.5 -15 -99.5c0 -32 5.83301 -57 17.5 -75s28.5 -27 50.5 -27c20.667 0 40.667 6.66699 60 20
s37 31.833 53 55.5s29.833 51.334 41.5 83.001s20.834 65.5 27.501 101.5z" />
    <glyph glyph-name="r" unicode="r" horiz-adv-x="365" 
d="M81 0c7.33301 42 15.502 86.3291 24.502 132.996s17.333 91.834 25 135.501s14.167 83.667 19.5 120s8 65.166 8 86.499c0 8.66699 -0.166992 15.5 -0.5 20.5s-1.16602 11.167 -2.49902 18.5c7.33301 1.33301 15.333 2.16602 24 2.49902s16.667 0.5 24 0.5
c6.66699 0 14.167 -0.166992 22.5 -0.5s15.833 -1.16602 22.5 -2.49902c1.33301 -5.33301 2.33301 -11.166 3 -17.499s1 -15.166 1 -26.499c0 -15.333 -1 -30.333 -3 -45c8.66699 12 18.167 23.333 28.5 34s21.833 20.334 34.5 29.001s26.667 15.5 42 20.5
s32.333 7.5 51 7.5c5.33301 0 11.166 -0.333008 17.499 -1s11.5 -1.66699 15.5 -3c0 -13.333 -1.5 -28.5 -4.5 -45.5s-8.16699 -31.5 -15.5 -43.5c-2.66699 0.666992 -6.83398 1.33398 -12.501 2.00098s-11.167 1 -16.5 1c-44.667 0 -80.834 -16 -108.501 -48
s-47.5 -81.333 -59.5 -148l-41 -230c-14 -2 -27.667 -3 -41 -3h-25z" />
    <glyph glyph-name="s" unicode="s" horiz-adv-x="434" 
d="M214 241c-10 4 -20.668 8.99805 -32.001 14.998s-21.666 13.667 -30.999 23s-17.166 21.166 -23.499 35.499s-9.5 31.5 -9.5 51.5c0 24.667 5 46.834 15 66.501s24 36.334 42 50.001s39.5 24.167 64.5 31.5s52.833 11 83.5 11c27.333 0 53.333 -3 78 -9
s44 -12.667 58 -20c-5.33301 -26 -15 -51 -29 -75c-11.333 5.33301 -27 10.833 -47 16.5s-41.333 8.5 -64 8.5c-28.667 0 -52.5 -5 -71.5 -15s-28.5 -27.333 -28.5 -52c0 -15.333 4.5 -28.166 13.5 -38.499s25.167 -20.166 48.5 -29.499l22 -10l39.5 -19
c13.667 -6.66699 26 -14.834 37 -24.501s20 -21.334 27 -35.001s10.5 -30.5 10.5 -50.5c0 -32 -6 -59.5 -18 -82.5s-28.5 -42 -49.5 -57s-45.333 -26.167 -73 -33.5s-57.5 -11 -89.5 -11c-26.667 0 -52.834 2.33301 -78.501 7s-46.834 10.667 -63.501 18
c1.33301 14.667 3.83301 28.667 7.5 42s9.16699 26 16.5 38c17.333 -7.33301 37.666 -13.166 60.999 -17.499s45 -6.5 65 -6.5c16.667 0 32.334 1.5 47.001 4.5s27.334 7.66699 38.001 14s19.167 14.833 25.5 25.5s9.5 24 9.5 40c0 20.667 -6 36.167 -18 46.5
s-29 19.833 -51 28.5z" />
    <glyph glyph-name="t" unicode="t" horiz-adv-x="350" 
d="M171 434h-80.9961c0 13.333 1 26.166 3 38.499s5.66699 25.833 11 40.5h80c3.33301 17.333 6.33301 35 9 53s4 36.667 4 56v16c13.333 6.66699 29.333 11.667 48 15s34.667 5 48 5c0.666992 -6 1.16699 -12 1.5 -18s0.5 -12.333 0.5 -19
c0 -20.667 -2.66699 -46.334 -8 -77.001l-6 -31h129c0 -14.667 -1 -28.167 -3 -40.5s-5.33301 -25.166 -10 -38.499h-128l-39 -217c-3.33301 -15.333 -6.33301 -31.166 -9 -47.499s-4 -31.166 -4 -44.499c0 -20 5.16699 -33.833 15.5 -41.5s24.166 -11.5 41.499 -11.5
c11.333 0 21.666 0.833008 30.999 2.5s18.666 3.83398 27.999 6.50098c2 -6.66699 3.66699 -14 5 -22s2 -16.667 2 -26v-14.5c0 -5 -0.333008 -10.167 -1 -15.5c-8.66699 -2.66699 -20 -5.16699 -34 -7.5s-29 -3.5 -45 -3.5c-21.333 0 -40.833 1.5 -58.5 4.5
s-32.834 8.66699 -45.501 17s-22.5 19.666 -29.5 33.999s-10.5 33.166 -10.5 56.499c0 12.667 1.16699 26.167 3.5 40.5l7.5 44.5z" />
    <glyph glyph-name="u" unicode="u" horiz-adv-x="568" 
d="M166 513c7.33301 1.33301 15.834 2.33496 25.501 3.00195s18.167 1 25.5 1s15.333 -0.333008 24 -1s16.667 -1.66699 24 -3l-54 -308c-4 -21.333 -6 -40.333 -6 -57c0 -26.667 6.16699 -45.667 18.5 -57s28.833 -17 49.5 -17c18 0 35.667 5.5 53 16.5
s33.666 27.167 48.999 48.5s29.166 47.666 41.499 78.999s22.166 67.333 29.499 108l33 187c8 1.33301 16.667 2.33301 26 3s17.666 1 24.999 1s15.5 -0.333008 24.5 -1s16.833 -1.66699 23.5 -3l-53 -297c-7.33301 -40 -13.166 -74.333 -17.499 -103s-6.5 -53.667 -6.5 -75
c0 -8.66699 0.166992 -15.5 0.5 -20.5s0.833008 -11.167 1.5 -18.5c-7.33301 -1.33301 -15.166 -2.33301 -23.499 -3s-16.166 -1 -23.499 -1c-6.66699 0 -14.167 0.333008 -22.5 1s-15.833 1.66699 -22.5 3c-2.66699 8.66699 -4 24 -4 46c0 12.667 0.833008 24.667 2.5 36
s3.5 22.333 5.5 33c-6.66699 -14 -16 -28.5 -28 -43.5s-26 -28.5 -42 -40.5s-33.833 -22 -53.5 -30s-40.5 -12 -62.5 -12c-40 0 -71.167 10.667 -93.5 32s-33.5 54.333 -33.5 99c0 10 0.666992 21.167 2 33.5s3 24.166 5 35.499z" />
    <glyph glyph-name="v" unicode="v" horiz-adv-x="500" 
d="M99 513c8 1.33301 16.499 2.33496 25.499 3.00195s17.833 1 26.5 1c10 0 19.5 -0.333008 28.5 -1s17.5 -1.66699 25.5 -3l58 -412l129 259c15.333 31.333 27.666 59.833 36.999 85.5s14.333 45.834 15 60.501v7c8.66699 1.33301 17.667 2.33301 27 3s18.666 1 27.999 1
c10 0 19.833 -0.333008 29.5 -1s18.5 -1.66699 26.5 -3v-5c0 -10.667 -1.66699 -21.834 -5 -33.501s-9.66602 -26.834 -18.999 -45.501l-116.5 -215.5l-118.5 -213.5c-18 -2 -35.333 -3 -52 -3c-7.33301 0 -16.166 0.166992 -26.499 0.5s-19.166 1.16602 -26.499 2.49902z
" />
    <glyph glyph-name="w" unicode="w" horiz-adv-x="764" 
d="M108 513c9.33301 1.33301 18.3389 2.33301 27.0059 3s17.667 1 27 1c19.333 0 36.666 -1.33301 51.999 -4l39 -398l160 398c7.33301 1.33301 15.333 2.33301 24 3s16.667 1 24 1c8.66699 0 17 -0.333008 25 -1s16 -1.66699 24 -3l49 -399l125 303
c8 19.333 13.5 36.5 16.5 51.5s4.5 26.833 4.5 35.5v9c8 1.33301 16.167 2.33301 24.5 3s17.166 1 26.499 1c21.333 0 39.666 -1.33301 54.999 -4v-4c0 -14.667 -2.83301 -30.167 -8.5 -46.5s-14.5 -36.833 -26.5 -61.5l-186 -401
c-8.66699 -1.33301 -17.834 -2.33301 -27.501 -3s-19.167 -1 -28.5 -1c-8 0 -16.333 0.333008 -25 1s-16.667 1.66699 -24 3l-50 369l-152 -369c-8.66699 -1.33301 -17.834 -2.33301 -27.501 -3s-18.834 -1 -27.501 -1c-8 0 -16.5 0.333008 -25.5 1s-17.167 1.66699 -24.5 3
z" />
    <glyph glyph-name="x" unicode="x" horiz-adv-x="490" 
d="M124 513c7.33301 1.33301 15.332 2.33301 23.999 3s17.667 1 27 1s17.333 -0.333008 24 -1s14.667 -1.66699 24 -3l69 -247l-128 -187c-10.667 -15.333 -18.667 -29.333 -24 -42s-8 -25 -8 -37c-11.333 -1.33301 -21.5 -2.16602 -30.5 -2.49902s-16.833 -0.5 -23.5 -0.5
c-8 0 -15.167 0.166992 -21.5 0.5s-15.166 1.16602 -26.499 2.49902c0.666992 2 1 4.16699 1 6.5s0.666992 4.83301 2 7.5c1.33301 14 7.83301 31.333 19.5 52s25.667 42.5 42 65.5l52 70l49.5 65.5zM407.999 428c11.333 17.333 19 33.5 23 48.5s6 27.167 6 36.5
c11.333 2 20.666 3.16699 27.999 3.5s14.333 0.5 21 0.5c16 0 31.667 -1.33301 47 -4c0 -15.333 -2.5 -31.5 -7.5 -48.5s-14.167 -35.167 -27.5 -54.5l-50 -69.5l-50 -69.5l81 -271c-10 -1.33301 -19.333 -2.33301 -28 -3s-17.667 -1 -27 -1c-8 0 -16.167 0.333008 -24.5 1
s-16.166 1.66699 -23.499 3l-38.5 133l-37.5 133z" />
    <glyph glyph-name="y" unicode="y" horiz-adv-x="500" 
d="M260 50l56.999 126.002l45.5 105l37 88l30.5 76c4 10.667 7 21 9 31s3 17.667 3 23c0 3.33301 -0.166992 6 -0.5 8s-0.5 4 -0.5 6c12.667 2 26.667 3 42 3h63c0.666992 -2.66699 1 -5.33398 1 -8.00098v-8c0 -16 -3.33301 -33.333 -10 -52s-14 -37.334 -22 -56.001
l-96.5 -207.5l-115.5 -244.5c-18.667 -39.333 -36.667 -71 -54 -95s-34.5 -42.667 -51.5 -56s-34.167 -22.333 -51.5 -27s-36 -7 -56 -7c-23.333 0 -46 3.33301 -68 10c0.666992 14.667 2.66699 28.667 6 42s8.66602 25 15.999 35c6 -2 13.333 -3.83301 22 -5.5
s16.667 -2.5 24 -2.5c10 0 20.333 1.5 31 4.5s21.834 10.167 33.501 21.5s24.167 28 37.5 50s28 52 44 90c-5.33301 -0.666992 -11 -1 -17 -1h-18h-15c-5.33301 0 -10 0.333008 -14 1l-33.5 256l-33.5 257c9.33301 1.33301 17.833 2.33301 25.5 3s16.167 1 25.5 1
s18.333 -0.333008 27 -1s17.334 -1.66699 26.001 -3z" />
    <glyph glyph-name="z" unicode="z" horiz-adv-x="449" 
d="M31 14l321 420h-222c0 13.333 0.833008 26.333 2.5 39s5.5 26 11.5 40h363l3 -13l-322 -422h243c0 -13.333 -1 -26.833 -3 -40.5s-5.66699 -26.167 -11 -37.5h-383z" />
    <glyph glyph-name="braceleft" unicode="{" horiz-adv-x="380" 
d="M160 134c2 16.667 3.00391 31.9961 3.00391 45.9961c0 25.333 -5.33301 47.166 -16 65.499s-28.334 35.166 -53.001 50.499l2 11c17.333 8.66699 32.333 17.334 45 26.001s23.667 18.334 33 29.001s17.166 22.834 23.499 36.501s11.833 29.834 16.5 48.501l31.5 137.5
c9 39.667 20.833 73 35.5 100s34.667 47.333 60 61s61 20.5 107 20.5c4.66699 0 9.16699 -0.166992 13.5 -0.5s8.83301 -0.833008 13.5 -1.5c0 -12 -1.5 -25.333 -4.5 -40s-6.5 -27.667 -10.5 -39h-11c-21.333 0 -38.833 -2.83301 -52.5 -8.5s-24.667 -14.334 -33 -26.001
s-15.166 -26.667 -20.499 -45s-10.333 -40.5 -15 -66.5c-1.33301 -5.33301 -2 -9.33301 -2 -12l-8 -43c-6 -30 -12.167 -55.167 -18.5 -75.5s-13.833 -37.333 -22.5 -51s-18.834 -25 -30.501 -34s-25.167 -17.5 -40.5 -25.5c18.667 -11.333 32.5 -24.833 41.5 -40.5
s13.5 -38.167 13.5 -67.5c0 -12 -1.33301 -27.833 -4 -47.5s-5.83398 -40 -9.50098 -61s-6.83398 -40.833 -9.50098 -59.5s-4 -33 -4 -43c0 -25.333 6.5 -42.666 19.5 -51.999s36.167 -14 69.5 -14c0 -12 -1 -24.667 -3 -38s-5.33301 -26.666 -10 -39.999
c-2.66699 0 -5.16699 -0.166992 -7.5 -0.5s-4.5 -0.5 -6.5 -0.5c-56.667 0 -97.5 11.333 -122.5 34s-37.5 57.334 -37.5 104.001c0 10 0.666992 20.667 2 32s3 23 5 35z" />
    <glyph glyph-name="bar" unicode="|" horiz-adv-x="333" 
d="M260 776c8 1.33301 16.333 2.33301 25 3s17 1 25 1c8.66699 0 17 -0.333008 25 -1s15.333 -1.66699 22 -3l-166 -944c-7.33301 -1.33301 -15 -2.33301 -23 -3s-16.333 -1 -25 -1c-9.33301 0 -18 0.333008 -26 1s-15.667 1.66699 -23 3z" />
    <glyph glyph-name="braceright" unicode="}" horiz-adv-x="376" 
d="M36 -84c21.333 0 38.8291 2.83594 52.4961 8.50293s24.667 14.334 33 26.001s15.166 26.667 20.499 45s10.333 40.5 15 66.5c1.33301 5.33301 2 9.33301 2 12l8 43c6 30 12.167 55.167 18.5 75.5s13.833 37.333 22.5 51s18.834 25 30.501 34s25.167 17.5 40.5 25.5
c-18.667 11.333 -32.5 24.833 -41.5 40.5s-13.5 38.167 -13.5 67.5c0 12 1.33301 27.833 4 47.5s5.83398 40 9.50098 61s6.83398 40.833 9.50098 59.5s4 33 4 43c0 25.333 -6.5 42.666 -19.5 51.999s-36.167 14 -69.5 14c0 12 1 24.667 3 38s5.33301 26.666 10 39.999
c2.66699 0 5.16699 0.166992 7.5 0.5s4.5 0.5 6.5 0.5c56.667 0 97.5 -11.333 122.5 -34s37.5 -57.334 37.5 -104.001c0 -10 -0.666992 -20.667 -2 -32s-3 -23 -5 -35l-17 -95c-2 -17.333 -3 -32.666 -3 -45.999c0 -25.333 5.33301 -47.166 16 -65.499
s28.334 -35.166 53.001 -50.499l-2 -11c-17.333 -8.66699 -32.333 -17.334 -45 -26.001s-23.667 -18.334 -33 -29.001s-17.166 -22.834 -23.499 -36.501s-11.833 -29.834 -16.5 -48.501l-31.5 -137.5c-9 -39.667 -20.833 -73 -35.5 -100s-34.667 -47.333 -60 -61
s-61 -20.5 -107 -20.5c-4.66699 0 -9.16699 0.166992 -13.5 0.5s-8.83301 0.833008 -13.5 1.5c0 12 1.5 25.333 4.5 40s6.5 27.667 10.5 39h11z" />
    <glyph glyph-name="asciitilde" unicode="~" horiz-adv-x="479" 
d="M94 408c7.33301 7.33301 16.6631 14.499 27.9961 21.499s23.333 13.333 36 19s25.834 10.167 39.501 13.5s26.834 5 39.501 5c16 0 30.667 -2.16699 44 -6.5s26.333 -9 39 -14s25.667 -9.5 39 -13.5s27.666 -6 42.999 -6c12 0 24.667 2.66699 38 8
s28.666 15.333 45.999 30c9.33301 -11.333 16.833 -22.166 22.5 -32.499s10.834 -22.5 15.501 -36.5c-18 -15.333 -38.833 -27.833 -62.5 -37.5s-48.5 -14.5 -74.5 -14.5c-15.333 0 -29.666 2 -42.999 6s-26.666 8.5 -39.999 13.5s-26.5 9.66699 -39.5 14
s-26.5 6.5 -40.5 6.5c-13.333 0 -27.666 -3 -42.999 -9s-31.333 -16 -48 -30c-9.33301 9.33301 -17.333 19 -24 29s-11.667 21.333 -15 34z" />
    <glyph glyph-name="uni00A0" unicode="&#xa0;" horiz-adv-x="90" 
 />
    <glyph glyph-name="exclamdown" unicode="&#xa1;" horiz-adv-x="282" 
d="M145 302c16.667 2 32.667 3 48 3c16 0 31.667 -1 47 -3l-84 -504c-18 -2 -35.333 -3 -52 -3c-18 0 -36.333 1 -55 3zM160 406c0 19.333 1.66797 37.833 5.00098 55.5s7.66602 36.167 12.999 55.5c9.33301 1.33301 18.5 2.33301 27.5 3s17.833 1 26.5 1
c9.33301 0 18.5 -0.333008 27.5 -1s17.5 -1.66699 25.5 -3c0 -38 -6.33301 -75 -19 -111c-9.33301 -1.33301 -18.333 -2.33301 -27 -3s-17.667 -1 -27 -1c-8.66699 0 -17.5 0.333008 -26.5 1s-17.5 1.66699 -25.5 3z" />
    <glyph glyph-name="cent" unicode="&#xa2;" horiz-adv-x="600" 
d="M315 -8c-54.667 8.66699 -94.832 30.3311 -120.499 64.998s-38.5 79.667 -38.5 135c0 36.667 5.5 73.334 16.5 110.001s27.167 70.167 48.5 100.5s47.5 56 78.5 77s66.833 34.5 107.5 40.5l21 116c6 1.33301 11.833 2.5 17.5 3.5s11.5 1.5 17.5 1.5
s11.833 -0.5 17.5 -1.5s11.5 -2.16699 17.5 -3.5l-10 -56l-10 -57c17.333 -1.33301 34 -3.66602 50 -6.99902s29.667 -7 41 -11c-0.666992 -12.667 -3.16699 -26.667 -7.5 -42s-10.166 -28.666 -17.499 -39.999c-13.333 5.33301 -28 9.83301 -44 13.5s-33 5.5 -51 5.5
c-32 0 -60 -7.5 -84 -22.5s-43.833 -34 -59.5 -57s-27.5 -48.833 -35.5 -77.5s-12 -56.334 -12 -83.001c0 -45.333 11.167 -78.666 33.5 -99.999s53.5 -32 93.5 -32c33.333 0 68 6.33301 104 19c4.66699 -9.33301 8.66699 -20.5 12 -33.5s5 -27.5 5 -43.5
c-17.333 -7.33301 -37.5 -12.833 -60.5 -16.5s-43.5 -5.83398 -61.5 -6.50098l-18 -107c-10.667 -2.66699 -22.334 -4 -35.001 -4c-6.66699 0 -12.834 0.333008 -18.501 1s-11.167 1.66699 -16.5 3z" />
    <glyph glyph-name="sterling" unicode="&#xa3;" horiz-adv-x="600" 
d="M103 11c3.33301 3.33301 6.83008 6.33008 10.4971 8.99707s7.5 5.66699 11.5 9c36 30 64 66.5 84 109.5s30 90.5 30 142.5c0 4 -0.166992 7.83301 -0.5 11.5s-0.5 7.5 -0.5 11.5h-90c0 25.333 4.66699 51.333 14 78h72c-1.33301 12.667 -2.33301 25 -3 37
s-1 23.667 -1 35c0 36.667 4.83301 71 14.5 103s24.834 60 45.501 84s46.834 43 78.501 57s69.167 21 112.5 21c39.333 0 72.333 -3.66699 99 -11s48 -14.666 64 -21.999c-3.33301 -13.333 -7.83301 -26.333 -13.5 -39s-13.167 -26.667 -22.5 -42
c-17.333 7.33301 -36.833 14 -58.5 20s-45.167 9 -70.5 9c-27.333 0 -50.166 -4.33301 -68.499 -13s-33.333 -20.834 -45 -36.501s-20 -34.5 -25 -56.5s-7.5 -46.333 -7.5 -73c0 -10.667 0.5 -22.167 1.5 -34.5s2.16699 -25.166 3.5 -38.499h187c0 -26 -4.66699 -52 -14 -78
h-169c0 -35.333 -4.33301 -71.666 -13 -108.999s-27.334 -72.333 -56.001 -105h283c0 -17.333 -1.66699 -33.666 -5 -48.999s-6.66602 -29 -9.99902 -41h-436z" />
    <glyph glyph-name="currency" unicode="&#xa4;" horiz-adv-x="600" 
d="M176 230c-11.333 16.667 -20.002 35.001 -26.002 55.001s-9 41 -9 63c0 22.667 3.33301 44 10 64s16 38.667 28 56l-79 80c7.33301 14.667 16 26.667 26 36s21.667 17 35 23l79 -80c16.667 11.333 34.834 20 54.501 26s40.5 9 62.5 9s42.833 -3 62.5 -9
s38.167 -14.667 55.5 -26l80 80c12 -7.33301 23.167 -15.833 33.5 -25.5s18.833 -20.5 25.5 -32.5l-79 -79c12.667 -17.333 22.5 -36.333 29.5 -57s10.5 -42.334 10.5 -65.001s-3.5 -44 -10.5 -64s-16.167 -38.667 -27.5 -56l76 -76c-14.667 -25.333 -33.667 -45 -57 -59
l-79 78c-35.333 -24 -75.333 -36 -120 -36c-45.333 0 -85.666 12 -120.999 36l-77 -77c-14.667 6.66699 -26.667 15.167 -36 25.5s-17 21.833 -23 34.5zM356.998 215.001c18.667 0 35.834 3.5 51.501 10.5s29.167 16.5 40.5 28.5s20.333 26 27 42s10 33.333 10 52
s-3.33301 36 -10 52s-15.667 30 -27 42s-24.833 21.5 -40.5 28.5s-32.834 10.5 -51.501 10.5c-18 0 -34.833 -3.5 -50.5 -10.5s-29.167 -16.5 -40.5 -28.5s-20.166 -26 -26.499 -42s-9.5 -33.333 -9.5 -52s3.16699 -36 9.5 -52s15.166 -30 26.499 -42
s24.833 -21.5 40.5 -28.5s32.5 -10.5 50.5 -10.5z" />
    <glyph glyph-name="yen" unicode="&#xa5;" horiz-adv-x="600" 
d="M274 165l-181 -0.000976562c0 12 0.666992 23.5 2 34.5s4.66602 22.833 9.99902 35.5h182l13 78h-182c0 14 1.16699 26.5 3.5 37.5s5.5 21.833 9.5 32.5h144l-118 330c8.66699 1.33301 18.167 2.33301 28.5 3s20.166 1 29.499 1s18.333 -0.333008 27 -1
s16.667 -1.66699 24 -3l99 -304l194 304c10 1.33301 20.667 2.16602 32 2.49902s22.333 0.5 33 0.5c6.66699 0 14.167 -0.166992 22.5 -0.5s15.833 -1.16602 22.5 -2.49902l-218 -330h155c0 -11.333 -0.666992 -22.5 -2 -33.5s-4.66602 -23.167 -9.99902 -36.5h-192l-14 -78
h192c0 -13.333 -1.16699 -25.666 -3.5 -36.999s-5.16602 -22.333 -8.49902 -33h-192l-29 -165c-17.333 -2 -34.666 -3 -51.999 -3c-18.667 0 -35.334 1 -50.001 3z" />
    <glyph glyph-name="brokenbar" unicode="&#xa6;" horiz-adv-x="235" 
d="M204 776c8 1.33301 16.166 2.33301 24.499 3s16.5 1 24.5 1c8.66699 0 17 -0.333008 25 -1s15.667 -1.66699 23 -3l-58 -333c-7.33301 -1.33301 -15.166 -2.33301 -23.499 -3s-16.833 -1 -25.5 -1s-17 0.333008 -25 1s-15.667 1.66699 -23 3zM96.999 165
c8 1.33301 16.167 2.33301 24.5 3s16.5 1 24.5 1c8.66699 0 17 -0.333008 25 -1s15.667 -1.66699 23 -3l-58 -333c-8 -1.33301 -16 -2.33301 -24 -3s-16.333 -1 -25 -1s-17 0.333008 -25 1s-15.667 1.66699 -23 3z" />
    <glyph glyph-name="section" unicode="&#xa7;" horiz-adv-x="546" 
d="M211 242c-28 9.33301 -48.8369 21.832 -62.5039 37.499s-20.5 36.167 -20.5 61.5c0 28 7.33301 53.5 22 76.5s34 44.833 58 65.5c-6 8.66699 -11.167 18.5 -15.5 29.5s-6.5 23.5 -6.5 37.5c0 28.667 6 53.667 18 75s28.167 39 48.5 53s44 24.333 71 31s55.5 10 85.5 10
c32 0 62.333 -3 91 -9s52.667 -13.333 72 -22c-3.33301 -14 -8.16602 -27.167 -14.499 -39.5s-13.166 -24.166 -20.499 -35.499c-15.333 7.33301 -34.5 13.666 -57.5 18.999s-45.5 8 -67.5 8c-13.333 0 -27.166 -1 -41.499 -3s-27.5 -5.5 -39.5 -10.5s-21.833 -12 -29.5 -21
s-11.5 -20.5 -11.5 -34.5c0 -19.333 6.83301 -33.5 20.5 -42.5s29.167 -16.5 46.5 -22.5l104 -37c26 -9.33301 47.167 -21.5 63.5 -36.5s24.5 -35.5 24.5 -61.5c0 -26.667 -7.16699 -51.667 -21.5 -75s-32.5 -45.333 -54.5 -66c20 -21.333 30 -46 30 -74
c0 -28.667 -6.16699 -53.667 -18.5 -75s-28.666 -39 -48.999 -53s-44 -24.333 -71 -31s-55.167 -10 -84.5 -10c-16 0 -32.333 0.833008 -49 2.5s-32.5 3.83398 -47.5 6.50098s-28.833 5.83398 -41.5 9.50098s-23.334 7.5 -32.001 11.5c3.33301 14 8 27.333 14 40
s12.667 24.667 20 36c15.333 -7.33301 35.333 -13.833 60 -19.5s48.334 -8.5 71.001 -8.5c12 0 25.167 0.833008 39.5 2.5s27.833 5 40.5 10s23.167 12.333 31.5 22s12.5 22.167 12.5 37.5c0 17.333 -6.5 30.666 -19.5 39.999s-28.167 17 -45.5 23zM414.996 269.999
c9.33301 9.33301 18 19.833 26 31.5s12 24.167 12 37.5c0 10.667 -5 20.167 -15 28.5s-22.5 15.666 -37.5 21.999s-31.667 12.5 -50 18.5s-35.5 12 -51.5 18l-36 14c-10 -8.66699 -19.167 -18.834 -27.5 -30.501s-12.5 -24.167 -12.5 -37.5s4.33301 -23.666 13 -30.999
s22.667 -14.333 42 -21l54.5 -19.5c18.333 -6.33301 36.833 -13.166 55.5 -20.499z" />
    <glyph glyph-name="dieresis" unicode="&#xa8;" horiz-adv-x="500" 
d="M194 604c0.666992 17.333 2.33398 34.167 5.00098 50.5s7 32.833 13 49.5c8.66699 1.33301 17.5 2.33301 26.5 3s17.167 1 24.5 1s15.666 -0.333008 24.999 -1s18 -1.66699 26 -3c-0.666992 -17.333 -2.33398 -34.166 -5.00098 -50.499s-7 -32.833 -13 -49.5
c-17.333 -2 -34.333 -3 -51 -3c-7.33301 0 -15.666 0.166992 -24.999 0.5s-18 1.16602 -26 2.49902zM398 604.001c0.666992 17.333 2.16699 34.168 4.5 50.501s6.83301 32.833 13.5 49.5c8 1.33301 16.5 2.33301 25.5 3s17.5 1 25.5 1c7.33301 0 15.666 -0.333008 24.999 -1
s18 -1.66699 26 -3c-1.33301 -17.333 -3.33301 -34 -6 -50s-6.66699 -32.667 -12 -50c-17.333 -2 -34.333 -3 -51 -3c-7.33301 0 -15.666 0.166992 -24.999 0.5s-18 1.16602 -26 2.49902z" />
    <glyph glyph-name="copyright" unicode="&#xa9;" horiz-adv-x="846" 
d="M582 238c11.333 -19.333 18.334 -41.668 21.001 -67.001c-15.333 -7.33301 -32.166 -12.666 -50.499 -15.999s-37.166 -5 -56.499 -5c-30.667 0 -58.167 5.16699 -82.5 15.5s-44.833 24.833 -61.5 43.5s-29.334 40.667 -38.001 66s-13 53 -13 83s4.5 58 13.5 84
s21.667 48.5 38 67.5s36.333 34 60 45s50.5 16.5 80.5 16.5c24 0 43.167 -1.33301 57.5 -4s29.5 -6.66699 45.5 -12c-0.666992 -12 -2 -23.833 -4 -35.5s-5.66699 -22.834 -11 -33.501c-15.333 4.66699 -28.833 7.83398 -40.5 9.50098s-24.834 2.5 -39.501 2.5
c-38 0 -66.833 -12.5 -86.5 -37.5s-29.5 -59.167 -29.5 -102.5c0 -44.667 10.667 -78.5 32 -101.5s50 -34.5 86 -34.5c14.667 0 28.167 1.16699 40.5 3.5s25.166 6.5 38.499 12.5zM481.001 51.998c46.667 0 88.334 8 125.001 24s67.834 37.833 93.501 65.5
s45.334 60.167 59.001 97.5s20.5 77.333 20.5 120s-6.83301 82.667 -20.5 120s-33.334 69.833 -59.001 97.5s-56.834 49.5 -93.501 65.5s-78.334 24 -125.001 24c-46 0 -87.5 -8 -124.5 -24s-68.333 -37.833 -94 -65.5s-45.334 -60.167 -59.001 -97.5
s-20.5 -77.333 -20.5 -120s6.83301 -82.667 20.5 -120s33.334 -69.833 59.001 -97.5s57 -49.5 94 -65.5s78.5 -24 124.5 -24zM481.001 -13.002c-55.333 0 -105.833 9.49707 -151.5 28.4971s-84.667 45 -117 78s-57.5 72.167 -75.5 117.5s-27 94.666 -27 147.999
c0 52.667 9 101.834 27 147.501s43.167 85 75.5 118s71.333 59 117 78s96.167 28.5 151.5 28.5s105.833 -9.33301 151.5 -28s84.667 -44.667 117 -78s57.5 -72.666 75.5 -117.999s27 -94.666 27 -147.999s-9 -102.666 -27 -147.999s-43.167 -84.5 -75.5 -117.5
s-71.333 -59 -117 -78s-96.167 -28.5 -151.5 -28.5z" />
    <glyph glyph-name="ordfeminine" unicode="&#xaa;" horiz-adv-x="500" 
d="M432 645c-6 1.33301 -12.1641 2.16699 -18.4971 2.5s-13.166 0.5 -20.499 0.5c-25.333 0 -48.333 -6 -69 -18s-38.334 -27.833 -53.001 -47.5s-25.834 -42 -33.501 -67s-11.5 -50.833 -11.5 -77.5c0 -24 4 -43 12 -57s20.667 -21 38 -21c16 0 31.333 5.33301 46 16
s28.167 25.167 40.5 43.5s23.166 40 32.499 65s16.666 51.833 21.999 80.5zM481.003 447.001c-8 -48 -11.9971 -85.334 -11.9971 -112.001v-16.5c0 -5 0.333008 -10.5 1 -16.5c-6.66699 -0.666992 -14.334 -1.16699 -23.001 -1.5s-15.667 -0.5 -21 -0.5
s-11.5 0.166992 -18.5 0.5s-13.5 0.833008 -19.5 1.5c-2.66699 10.667 -4 24.667 -4 42c0 4.66699 0.333008 10.5 1 17.5s1.66699 15.167 3 24.5c-14.667 -24.667 -33.667 -46.5 -57 -65.5s-51.333 -28.5 -84 -28.5c-37.333 0 -65.333 11.167 -84 33.5s-28 53.5 -28 93.5
c0 37.333 5.83301 73.833 17.5 109.5s29.167 67.5 52.5 95.5s52.166 50.5 86.499 67.5s74.166 25.5 119.499 25.5c19.333 0 39.5 -1.66699 60.5 -5s39.167 -7.66602 54.5 -12.999z" />
    <glyph glyph-name="guillemotleft" unicode="&#xab;" horiz-adv-x="585" 
d="M323 271l208.998 217c8 1.33301 17 2.33301 27 3s19.333 1 28 1c9.33301 0 19.333 -0.333008 30 -1s20.667 -1.66699 30 -3l-211 -223l129 -220c-9.33301 -1.33301 -18.666 -2.33301 -27.999 -3s-18.666 -1 -27.999 -1c-8.66699 0 -17.167 0.333008 -25.5 1
s-16.5 1.66699 -24.5 3zM85.998 271l208.998 217c8 1.33301 17 2.33301 27 3s19.333 1 28 1c9.33301 0 19.333 -0.333008 30 -1s20.667 -1.66699 30 -3l-211 -223l129 -220c-9.33301 -1.33301 -18.666 -2.33301 -27.999 -3s-18.666 -1 -27.999 -1
c-8.66699 0 -17.167 0.333008 -25.5 1s-16.5 1.66699 -24.5 3z" />
    <glyph glyph-name="logicalnot" unicode="&#xac;" horiz-adv-x="600" 
d="M555 386v-279c-6 -1.33301 -13.167 -2.33301 -21.5 -3s-16.166 -1 -23.499 -1s-15.333 0.333008 -24 1s-16.334 1.66699 -23.001 3v187h-326c-1.33301 6 -2.16602 13.167 -2.49902 21.5s-0.5 16.166 -0.5 23.499s0.166992 15.333 0.5 24s1.16602 16.334 2.49902 23.001
h418z" />
    <glyph glyph-name="uni00AD" unicode="&#xad;" horiz-adv-x="359" 
d="M365 334c0 -14 -1.49902 -29.333 -4.49902 -46s-6.83301 -32 -11.5 -46h-252c1.33301 31.333 6.66602 62 15.999 92h252z" />
    <glyph glyph-name="registered" unicode="&#xae;" horiz-adv-x="846" 
d="M358 558c16.667 2 33.1689 3.66504 49.502 4.99805s34.5 2 54.5 2c24 0 46 -2.33301 66 -7s37.167 -11.667 51.5 -21s25.666 -21.666 33.999 -36.999s12.5 -33.333 12.5 -54c0 -15.333 -2.16699 -29 -6.5 -41s-9.83301 -22.667 -16.5 -32s-14.167 -17.166 -22.5 -23.499
s-16.5 -11.833 -24.5 -16.5l104 -159c-9.33301 -1.33301 -17.833 -2.16602 -25.5 -2.49902s-15.167 -0.5 -22.5 -0.5c-14 0 -27 1 -39 3l-114 178l20 9c16 7.33301 31.333 17.166 46 29.499s22 28.166 22 47.499s-7 34.333 -21 45s-32.667 16 -56 16
c-5.33301 0 -11 -0.166992 -17 -0.5s-12.667 -1.16602 -20 -2.49902v-323c-10 -2 -22.333 -3 -37 -3s-27.334 1 -38.001 3v385zM481.002 51.998c46 0 87.5 8 124.5 24s68.333 37.667 94 65s45.334 59.666 59.001 96.999s20.5 77.666 20.5 120.999
c0 42.667 -6.83301 82.667 -20.5 120s-33.334 69.666 -59.001 96.999s-57 49 -94 65s-78.5 24 -124.5 24c-46.667 0 -88.334 -8 -125.001 -24s-67.834 -37.667 -93.501 -65s-45.334 -59.666 -59.001 -96.999s-20.5 -77.333 -20.5 -120
c0 -43.333 6.83301 -83.666 20.5 -120.999s33.334 -69.666 59.001 -96.999s56.834 -49 93.501 -65s78.334 -24 125.001 -24zM481.002 -13.002c-55.333 0 -105.833 9.49707 -151.5 28.4971s-84.667 45 -117 78s-57.5 72.167 -75.5 117.5s-27 94.666 -27 147.999
c0 52.667 9 101.834 27 147.501s43.167 85 75.5 118s71.333 59 117 78s96.167 28.5 151.5 28.5s105.833 -9.33301 151.5 -28s84.667 -44.667 117 -78s57.5 -72.666 75.5 -117.999s27 -94.666 27 -147.999s-9 -102.666 -27 -147.999s-43.167 -84.5 -75.5 -117.5
s-71.333 -59 -117 -78s-96.167 -28.5 -151.5 -28.5z" />
    <glyph glyph-name="macron" unicode="&#xaf;" horiz-adv-x="500" 
d="M482 694c0 -13.333 -0.831055 -26.167 -2.49805 -38.5s-4.83398 -25.5 -9.50098 -39.5h-270c0 13.333 0.666992 26.333 2 39s4.66602 25.667 9.99902 39h270z" />
    <glyph glyph-name="degree" unicode="&#xb0;" horiz-adv-x="370" 
d="M115 580c0 20.667 3.83301 39.834 11.5 57.501s18 33 31 46s28.5 23.333 46.5 31s37 11.5 57 11.5s38.833 -3.83301 56.5 -11.5s33.167 -18 46.5 -31s23.833 -28.333 31.5 -46s11.5 -36.834 11.5 -57.501c0 -20 -3.83301 -38.833 -11.5 -56.5s-18.167 -33 -31.5 -46
s-28.833 -23.333 -46.5 -31s-36.5 -11.5 -56.5 -11.5s-39 3.83301 -57 11.5s-33.5 18 -46.5 31s-23.333 28.333 -31 46s-11.5 36.5 -11.5 56.5zM261 502c21.333 0 39.166 7.33301 53.499 22s21.5 33.334 21.5 56.001s-7.16699 41.5 -21.5 56.5s-32.166 22.5 -53.499 22.5
s-39.166 -7.5 -53.499 -22.5s-21.5 -33.833 -21.5 -56.5s7.16699 -41.334 21.5 -56.001s32.166 -22 53.499 -22z" />
    <glyph glyph-name="plusminus" unicode="&#xb1;" horiz-adv-x="600" 
d="M523 92l0.000976562 -7c0 -15.333 -1.33301 -30 -4 -44s-6.33398 -27.333 -11.001 -40h-424c0 16 1.33301 31.333 4 46s6.66699 29.667 12 45h423zM303.001 307h-164.001c0 13.333 1 27.5 3 42.5s5.66699 30.167 11 45.5h166l32 182
c7.33301 1.33301 14.833 2.33301 22.5 3s15.5 1 23.5 1c7.33301 0 15 -0.333008 23 -1s15.667 -1.66699 23 -3l-32 -182h164c0 -14.667 -1 -29 -3 -43s-5.66699 -29 -11 -45h-166l-32 -182c-13.333 -2.66699 -28.666 -4 -45.999 -4c-8 0 -15.833 0.333008 -23.5 1
s-15.167 1.66699 -22.5 3z" />
    <glyph glyph-name="twosuperior" unicode="&#xb2;" 
d="M104 318l159 149c20.667 19.333 39 38.166 55 56.499s24 39.166 24 62.499c0 36 -19 54 -57 54c-15.333 0 -31.333 -2.33301 -48 -7s-31.667 -10 -45 -16c-4 9.33301 -7.83301 19.5 -11.5 30.5s-5.83398 22.5 -6.50098 34.5c19.333 8.66699 40 15.834 62 21.501
s45.333 8.5 70 8.5c39.333 0 70.333 -10 93 -30s34 -47 34 -81c0 -18 -2.83301 -34.667 -8.5 -50s-13.167 -29.666 -22.5 -42.999s-20.666 -26.333 -33.999 -39l-42 -40l-56 -51h148c0 -23.333 -4.33301 -47.333 -13 -72h-299z" />
    <glyph glyph-name="threesuperior" unicode="&#xb3;" 
d="M218 505l114.999 133h-144c0 11.333 0.833008 22.666 2.5 33.999s4.5 23 8.5 35h249l5 -15l-121 -144c31.333 -4 54.166 -15.667 68.499 -35s21.5 -40.666 21.5 -63.999c0 -24.667 -4.83301 -46.667 -14.5 -66s-22.667 -35.5 -39 -48.5s-35.5 -23 -57.5 -30
s-45 -10.5 -69 -10.5c-26.667 0 -50.5 2.16699 -71.5 6.5s-38.833 9.83301 -53.5 16.5c4 22 13.667 43.333 29 64c16.667 -5.33301 32.5 -9.83301 47.5 -13.5s30.5 -5.5 46.5 -5.5c12 0 23.667 1.33301 35 4s21.5 7 30.5 13s16.167 14 21.5 24s8 22 8 36
c0 19.333 -6.16699 33.833 -18.5 43.5s-28.833 14.5 -49.5 14.5c-5.33301 0 -11.666 -0.333008 -18.999 -1s-14.666 -1.66699 -21.999 -3z" />
    <glyph glyph-name="acute" unicode="&#xb4;" horiz-adv-x="500" 
d="M351 721c10.667 1.33301 21.333 2.33301 32 3s21.667 1 33 1s22 -0.333008 32 -1s20 -1.66699 30 -3l-124 -127c-7.33301 -1.33301 -15.5 -2.33301 -24.5 -3s-18.5 -1 -28.5 -1c-7.33301 0 -15 0.333008 -23 1s-16 1.66699 -24 3z" />
    <glyph glyph-name="mu" unicode="&#xb5;" horiz-adv-x="580" 
d="M158 513c7.33301 1.33301 15.5 2.33398 24.5 3.00098s17.167 1 24.5 1s15.5 -0.333008 24.5 -1s17.167 -1.66699 24.5 -3l-47 -268c-2 -12.667 -3.66699 -25.5 -5 -38.5s-2 -25.167 -2 -36.5c0 -33.333 7.16699 -58.5 21.5 -75.5s37.833 -25.5 70.5 -25.5
c14.667 0 29.667 3 45 9s29.666 15 42.999 27s25.166 27.167 35.499 45.5s17.5 39.833 21.5 64.5l51 298c7.33301 1.33301 15.5 2.33301 24.5 3s17.167 1 24.5 1s15.5 -0.333008 24.5 -1s17.167 -1.66699 24.5 -3l-88 -513c-5.33301 -1.33301 -11.333 -2.33301 -18 -3
s-13.667 -1 -21 -1s-14.833 0.333008 -22.5 1s-14.167 1.66699 -19.5 3v11c0 8.66699 0.166992 17.667 0.5 27s1.16602 18 2.49902 26c-17.333 -23.333 -37.666 -41.833 -60.999 -55.5s-51.666 -20.5 -84.999 -20.5c-23.333 0 -44.333 4.66699 -63 14s-32 21.666 -40 36.999
l-46 -275c-7.33301 -1.33301 -15.666 -2.33301 -24.999 -3s-17.666 -1 -24.999 -1s-15.333 0.333008 -24 1s-16.334 1.66699 -23.001 3z" />
    <glyph glyph-name="paragraph" unicode="&#xb6;" horiz-adv-x="575" 
d="M308 313c-25.333 2 -49.6689 6.66699 -73.002 14s-43.666 18 -60.999 32s-31.166 31.667 -41.499 53s-15.5 47 -15.5 77c0 44.667 8.16699 82.167 24.5 112.5s39.5 54.666 69.5 72.999s65.833 31.333 107.5 39s88.167 11.5 139.5 11.5l-125 -730h-17
c-10 0 -20.333 0.333008 -31 1s-21 2.33398 -31 5.00098zM533.997 725c17.333 0 32.833 -0.5 46.5 -1.5s24.167 -2.83301 31.5 -5.5l-123 -718c-18 -4 -44.667 -6 -80 -6z" />
    <glyph glyph-name="periodcentered" unicode="&#xb7;" horiz-adv-x="241" 
d="M105 225c0 18.667 1.83496 37.167 5.50195 55.5s8.16699 36.833 13.5 55.5c9.33301 1.33301 18.666 2.33301 27.999 3s18.666 1 27.999 1s18.666 -0.333008 27.999 -1s18.333 -1.66699 27 -3c0 -19.333 -1.66699 -37.833 -5 -55.5s-7.66602 -36.167 -12.999 -55.5
c-10.667 -1.33301 -20.5 -2.33301 -29.5 -3s-18.167 -1 -27.5 -1s-18.5 0.333008 -27.5 1s-18.167 1.66699 -27.5 3z" />
    <glyph glyph-name="cedilla" unicode="&#xb8;" horiz-adv-x="500" 
d="M163 -109l68.999 132.002h59l-43 -81c2 0.666992 4.5 1.16699 7.5 1.5s7.16699 0.5 12.5 0.5c26.667 0 47.5 -7.33301 62.5 -22s22.5 -33.334 22.5 -56.001c0 -20.667 -4 -37.834 -12 -51.501s-18.5 -24.667 -31.5 -33s-27.833 -14.166 -44.5 -17.499s-33.667 -5 -51 -5
c-20 0 -37.667 2 -53 6s-26.666 8.33301 -33.999 13c2 8.66699 4.83301 18.167 8.5 28.5s8.5 19.166 14.5 26.499c9.33301 -3.33301 19.666 -6.5 30.999 -9.5s22 -4.5 32 -4.5c6.66699 0 13.667 0.333008 21 1s14.333 2.33398 21 5.00098s12.167 6.66699 16.5 12
s6.5 12.666 6.5 21.999c0 12.667 -5.16699 21.5 -15.5 26.5s-24.166 7.5 -41.499 7.5c-8.66699 0 -17.5 -0.666992 -26.5 -2s-18.167 -3 -27.5 -5z" />
    <glyph glyph-name="onesuperior" unicode="&#xb9;" 
d="M243 377l40 228l-94 -38c-13.333 18 -21 39.667 -23 65l194 79h26l-58 -334h92c0 -12 -0.833008 -23.833 -2.5 -35.5s-5.16699 -23.5 -10.5 -35.5h-267c0 12 0.833008 23.833 2.5 35.5s5.5 23.5 11.5 35.5h89z" />
    <glyph glyph-name="ordmasculine" unicode="&#xba;" horiz-adv-x="500" 
d="M292 292c-50.667 0 -89.167 13.665 -115.5 40.998s-39.5 66 -39.5 116c0 28.667 4.33301 58.834 13 90.501s22.334 60.834 41.001 87.501s42.667 48.5 72 65.5s64.333 25.5 105 25.5c51.333 0 89.833 -13.833 115.5 -41.5s38.5 -66.834 38.5 -117.501
c0 -29.333 -4.33301 -59.666 -13 -90.999s-22.334 -60 -41.001 -86s-42.5 -47.5 -71.5 -64.5s-63.833 -25.5 -104.5 -25.5zM298 359.998c24 0 44.501 6.5 61.501 19.5s30.833 29.5 41.5 49.5s18.5 41.667 23.5 65s7.5 45 7.5 65c0 29.333 -6.33301 51.5 -19 66.5
s-30.334 22.5 -53.001 22.5c-24 0 -44.333 -6.66699 -61 -20s-30.167 -30 -40.5 -50s-18 -41.667 -23 -65s-7.5 -45 -7.5 -65c0 -58.667 23.333 -88 70 -88z" />
    <glyph glyph-name="guillemotright" unicode="&#xbb;" horiz-adv-x="606" 
d="M495 273l-131 215c9.33301 1.33301 18.666 2.33301 27.999 3s18.666 1 27.999 1c8.66699 0 17.167 -0.333008 25.5 -1s16.5 -1.66699 24.5 -3l136 -228l-210 -215c-8 -1.33301 -16.833 -2.33301 -26.5 -3s-19.167 -1 -28.5 -1s-19.166 0.333008 -29.499 1
s-20.166 1.66699 -29.499 3zM259 273l-131 215c9.33301 1.33301 18.666 2.33301 27.999 3s18.666 1 27.999 1c8.66699 0 17.167 -0.333008 25.5 -1s16.5 -1.66699 24.5 -3l136 -228l-210 -215c-8 -1.33301 -16.833 -2.33301 -26.5 -3s-19.167 -1 -28.5 -1
s-19.166 0.333008 -29.499 1s-20.166 1.66699 -29.499 3z" />
    <glyph glyph-name="onequarter" unicode="&#xbc;" horiz-adv-x="1050" 
d="M818 708c8 1.33301 17.001 2.33301 27.001 3s19.333 1 28 1s17.667 -0.333008 27 -1s17.666 -1.66699 24.999 -3l-554 -707c-9.33301 -1.33301 -18 -2.33301 -26 -3s-16 -1 -24 -1c-8.66699 0 -18.167 0.333008 -28.5 1s-19.5 1.66699 -27.5 3zM243.001 377l40 228
l-94 -38c-13.333 18 -21 39.667 -23 65l194 79h26l-58 -334h92c0 -12 -0.833008 -23.833 -2.5 -35.5s-5.16699 -23.5 -10.5 -35.5h-267c0 12 0.833008 23.833 2.5 35.5s5.5 23.5 11.5 35.5h89zM629.001 92l213.001 324.002c13.333 -2 26.166 -5.33301 38.499 -10
s22.833 -10 31.5 -16l-162 -244h98l15 82c6 1.33301 11.833 2.16602 17.5 2.49902s12.167 0.5 19.5 0.5c13.333 0 25.666 -1 36.999 -3l-14 -82h46c0 -10 -0.833008 -21.167 -2.5 -33.5s-4.5 -23.5 -8.5 -33.5h-46l-14 -79
c-5.33301 -0.666992 -10.666 -1.16699 -15.999 -1.5s-11.333 -0.5 -18 -0.5c-7.33301 0 -14 0.166992 -20 0.5s-12.667 1.16602 -20 2.49902l13 78h-203z" />
    <glyph glyph-name="onehalf" unicode="&#xbd;" horiz-adv-x="1050" 
d="M806 708c8 1.33301 17.001 2.33301 27.001 3s19.333 1 28 1s17.667 -0.333008 27 -1s17.666 -1.66699 24.999 -3l-554 -707c-9.33301 -1.33301 -18 -2.33301 -26 -3s-16 -1 -24 -1c-8.66699 0 -18.167 0.333008 -28.5 1s-19.5 1.66699 -27.5 3zM243.001 377l40 228
l-94 -38c-13.333 18 -21 39.667 -23 65l194 79h26l-58 -334h92c0 -12 -0.833008 -23.833 -2.5 -35.5s-5.16699 -23.5 -10.5 -35.5h-267c0 12 0.833008 23.833 2.5 35.5s5.5 23.5 11.5 35.5h89zM656.001 13l159 149c20.667 19.333 39 38.166 55 56.499s24 39.166 24 62.499
c0 36 -19 54 -57 54c-15.333 0 -31.333 -2.33301 -48 -7s-31.667 -10 -45 -16c-4 9.33301 -7.83301 19.5 -11.5 30.5s-5.83398 22.5 -6.50098 34.5c19.333 8.66699 40 15.834 62 21.501s45.333 8.5 70 8.5c39.333 0 70.333 -10 93 -30s34 -47 34 -81
c0 -18 -2.83301 -34.667 -8.5 -50s-13.167 -29.666 -22.5 -42.999s-20.666 -26.333 -33.999 -39l-42 -40l-56 -51h148c0 -23.333 -4.33301 -47.333 -13 -72h-299z" />
    <glyph glyph-name="threequarters" unicode="&#xbe;" horiz-adv-x="1050" 
d="M800 708c8 1.33301 17.001 2.33301 27.001 3s19.333 1 28 1s17.667 -0.333008 27 -1s17.666 -1.66699 24.999 -3l-554 -707c-9.33301 -1.33301 -18 -2.33301 -26 -3s-16 -1 -24 -1c-8.66699 0 -18.167 0.333008 -28.5 1s-19.5 1.66699 -27.5 3zM616.001 92
l213.001 324.002c13.333 -2 26.166 -5.33301 38.499 -10s22.833 -10 31.5 -16l-162 -244h98l15 82c6 1.33301 11.833 2.16602 17.5 2.49902s12.167 0.5 19.5 0.5c13.333 0 25.666 -1 36.999 -3l-14 -82h46c0 -10 -0.833008 -21.167 -2.5 -33.5s-4.5 -23.5 -8.5 -33.5h-46
l-14 -79c-5.33301 -0.666992 -10.666 -1.16699 -15.999 -1.5s-11.333 -0.5 -18 -0.5c-7.33301 0 -14 0.166992 -20 0.5s-12.667 1.16602 -20 2.49902l13 78h-203zM225.002 505.002l114.999 133h-144c0 11.333 0.833008 22.666 2.5 33.999s4.5 23 8.5 35h249l5 -15l-121 -144
c31.333 -4 54.166 -15.667 68.499 -35s21.5 -40.666 21.5 -63.999c0 -24.667 -4.83301 -46.667 -14.5 -66s-22.667 -35.5 -39 -48.5s-35.5 -23 -57.5 -30s-45 -10.5 -69 -10.5c-26.667 0 -50.5 2.16699 -71.5 6.5s-38.833 9.83301 -53.5 16.5c4 22 13.667 43.333 29 64
c16.667 -5.33301 32.5 -9.83301 47.5 -13.5s30.5 -5.5 46.5 -5.5c12 0 23.667 1.33301 35 4s21.5 7 30.5 13s16.167 14 21.5 24s8 22 8 36c0 19.333 -6.16699 33.833 -18.5 43.5s-28.833 14.5 -49.5 14.5c-5.33301 0 -11.666 -0.333008 -18.999 -1
s-14.666 -1.66699 -21.999 -3z" />
    <glyph glyph-name="questiondown" unicode="&#xbf;" horiz-adv-x="453" 
d="M292 304c16.667 2 32.6699 2.99609 48.0029 2.99609c8 0 16 -0.166992 24 -0.5s15.667 -1.16602 23 -2.49902l-28 -162l-37 -10c-19.333 -5.33301 -37.5 -12.666 -54.5 -21.999s-32.167 -20.666 -45.5 -33.999s-23.833 -28.5 -31.5 -45.5s-11.5 -35.833 -11.5 -56.5
c0 -30.667 10.667 -54 32 -70s50 -24 86 -24c25.333 0 47.166 2.16699 65.499 6.5s38.166 10.166 59.499 17.499c4.66699 -11.333 8.66699 -24.833 12 -40.5s5 -30.167 5 -43.5c-30.667 -11.333 -59.167 -18.666 -85.5 -21.999s-52.5 -5 -78.5 -5
c-33.333 0 -62.833 4.16699 -88.5 12.5s-47 20 -64 35s-29.833 32.667 -38.5 53s-13 42.5 -13 66.5c0 29.333 5.5 56.833 16.5 82.5s26 48.834 45 69.501s40.667 38.667 65 54s50.166 27 77.499 35zM302.003 405.996c0.666992 20 2.49902 39 5.49902 57s7.83301 36 14.5 54
c9.33301 1.33301 18.666 2.33301 27.999 3s18.666 1 27.999 1s18.5 -0.333008 27.5 -1s18.167 -1.66699 27.5 -3c-0.666992 -19.333 -2.5 -38.333 -5.5 -57s-7.83301 -36.667 -14.5 -54c-9.33301 -1.33301 -18.666 -2.5 -27.999 -3.5s-18.666 -1.5 -27.999 -1.5
c-8.66699 0 -17.667 0.5 -27 1.5s-18.666 2.16699 -27.999 3.5z" />
    <glyph glyph-name="Agrave" unicode="&#xc0;" horiz-adv-x="599" 
d="M362 719c8.66699 1.33301 19.167 2.16699 31.5 2.5s23.166 0.5 32.499 0.5c10 0 20.167 -0.166992 30.5 -0.5s19.5 -1.16602 27.5 -2.49902l98 -719c-19.333 -2 -38.666 -3 -57.999 -3c-16 0 -32.333 1 -49 3l-19 169h-242l-73 -169c-16 -2 -34 -3 -54 -3
c-9.33301 0 -18.5 0.166992 -27.5 0.5s-17.167 1.16602 -24.5 2.49902zM446 257.001l-41 347l-152 -347h193zM272 891.001c8 1.33301 18.499 2.33301 31.499 3s25.833 1 38.5 1c11.333 0 22.333 -0.333008 33 -1s19.667 -1.66699 27 -3l91 -113
c-5.33301 -1.33301 -12.666 -2.5 -21.999 -3.5s-18.666 -1.5 -27.999 -1.5c-10.667 0 -20.334 0.333008 -29.001 1s-16 1.66699 -22 3z" />
    <glyph glyph-name="Aacute" unicode="&#xc1;" horiz-adv-x="599" 
d="M362 719c8.66699 1.33301 19.167 2.16699 31.5 2.5s23.166 0.5 32.499 0.5c10 0 20.167 -0.166992 30.5 -0.5s19.5 -1.16602 27.5 -2.49902l98 -719c-19.333 -2 -38.666 -3 -57.999 -3c-16 0 -32.333 1 -49 3l-19 169h-242l-73 -169c-16 -2 -34 -3 -54 -3
c-9.33301 0 -18.5 0.166992 -27.5 0.5s-17.167 1.16602 -24.5 2.49902zM446 257.001l-41 347l-152 -347h193zM469 887.001c8 1.33301 17.5 2.33203 28.5 2.99902s22.167 1 33.5 1c12 0 24.333 -0.333008 37 -1s22.667 -1.66699 30 -3l-145 -110
c-6.66699 -1.33301 -15.167 -2.16602 -25.5 -2.49902s-20.833 -0.5 -31.5 -0.5c-9.33301 0 -18.5 0.333008 -27.5 1s-16.167 1.66699 -21.5 3z" />
    <glyph glyph-name="Acircumflex" unicode="&#xc2;" horiz-adv-x="599" 
d="M362 719c8.66699 1.33301 19.167 2.16699 31.5 2.5s23.166 0.5 32.499 0.5c10 0 20.167 -0.166992 30.5 -0.5s19.5 -1.16602 27.5 -2.49902l98 -719c-19.333 -2 -38.666 -3 -57.999 -3c-16 0 -32.333 1 -49 3l-19 169h-242l-73 -169c-16 -2 -34 -3 -54 -3
c-9.33301 0 -18.5 0.166992 -27.5 0.5s-17.167 1.16602 -24.5 2.49902zM446 257.001l-41 347l-152 -347h193zM394 889.001c8.66699 1.33301 18.498 2.33301 29.498 3s21.167 1 30.5 1c6.66699 0 14.834 -0.333008 24.501 -1s18.834 -1.66699 27.501 -3l82 -110
c-7.33301 -1.33301 -15 -2.33301 -23 -3s-16.333 -1 -25 -1c-7.33301 0 -15.5 0.333008 -24.5 1s-17.833 2 -26.5 4l-45 60l-69 -61c-8.66699 -1.33301 -18.167 -2.33301 -28.5 -3s-19.5 -1 -27.5 -1c-9.33301 0 -18.5 0.333008 -27.5 1s-17.167 1.66699 -24.5 3z" />
    <glyph glyph-name="Atilde" unicode="&#xc3;" horiz-adv-x="599" 
d="M362 719c8.66699 1.33301 19.167 2.16699 31.5 2.5s23.166 0.5 32.499 0.5c10 0 20.167 -0.166992 30.5 -0.5s19.5 -1.16602 27.5 -2.49902l98 -719c-19.333 -2 -38.666 -3 -57.999 -3c-16 0 -32.333 1 -49 3l-19 169h-242l-73 -169c-16 -2 -34 -3 -54 -3
c-9.33301 0 -18.5 0.166992 -27.5 0.5s-17.167 1.16602 -24.5 2.49902zM446 257.001l-41 347l-152 -347h193zM265 848.001c12.667 13.333 27.835 25.0029 45.502 35.0029s37.167 15 58.5 15c14 0 26.667 -1.83301 38 -5.5s22.333 -7.83398 33 -12.501
s21.5 -8.83398 32.5 -12.501s23.167 -5.5 36.5 -5.5c11.333 0 21.5 1.83301 30.5 5.5s20.167 11.167 33.5 22.5c5.33301 -6.66699 11.166 -15.334 17.499 -26.001s10.166 -20.667 11.499 -30c-13.333 -12 -28.833 -23 -46.5 -33s-37.167 -15 -58.5 -15
c-14 0 -26.667 1.83301 -38 5.5s-22.333 7.66699 -33 12s-21.5 8.33301 -32.5 12s-22.5 5.5 -34.5 5.5c-12.667 0 -23.5 -2 -32.5 -6s-19.833 -11 -32.5 -21c-6 6.66699 -12 15 -18 25s-9.66699 19.667 -11 29z" />
    <glyph glyph-name="Adieresis" unicode="&#xc4;" horiz-adv-x="599" 
d="M362 719c8.66699 1.33301 19.167 2.16699 31.5 2.5s23.166 0.5 32.499 0.5c10 0 20.167 -0.166992 30.5 -0.5s19.5 -1.16602 27.5 -2.49902l98 -719c-19.333 -2 -38.666 -3 -57.999 -3c-16 0 -32.333 1 -49 3l-19 169h-242l-73 -169c-16 -2 -34 -3 -54 -3
c-9.33301 0 -18.5 0.166992 -27.5 0.5s-17.167 1.16602 -24.5 2.49902zM446 257.001l-41 347l-152 -347h193zM267 778.001c0 34.667 5.66797 68.334 17.001 101.001c9.33301 1.33301 18.5 2.33301 27.5 3s17.5 1 25.5 1c8.66699 0 17.667 -0.333008 27 -1
s17.666 -1.66699 24.999 -3c0 -34.667 -5.66699 -68.334 -17 -101.001c-9.33301 -1.33301 -18.5 -2.33301 -27.5 -3s-17.833 -1 -26.5 -1c-8 0 -16.5 0.333008 -25.5 1s-17.5 1.66699 -25.5 3zM481.001 778.001c0 33.333 5.66602 67 16.999 101
c8.66699 1.33301 17.667 2.33301 27 3s18 1 26 1c8.66699 0 17.5 -0.333008 26.5 -1s17.5 -1.66699 25.5 -3c-1.33301 -34 -7 -67.667 -17 -101c-9.33301 -1.33301 -18.5 -2.33301 -27.5 -3s-17.833 -1 -26.5 -1c-8 0 -16.667 0.333008 -26 1s-17.666 1.66699 -24.999 3z
" />
    <glyph glyph-name="Aring" unicode="&#xc5;" horiz-adv-x="605" 
d="M363 717c-14.667 8.66699 -25.833 20.5 -33.5 35.5s-11.5 31.833 -11.5 50.5s3.33301 36.167 10 52.5s15.834 30.5 27.501 42.5s25.5 21.333 41.5 28s33.667 10 53 10c34 0 60 -10.167 78 -30.5s27 -45.5 27 -75.5c0 -25.333 -6.33301 -48 -19 -68s-29.667 -35 -51 -45
l98 -717c-15.333 -2 -33 -3 -53 -3c-18.667 0 -36.334 1 -53.001 3l-10 84l-10 85h-241l-74 -169c-13.333 -2 -27.333 -3 -42 -3h-27l-37 3zM447.001 257l-41 347l-152 -347h193zM430.001 753c19.333 0 34.333 7.16797 45 21.501s16 31.166 16 50.499
c0 16 -3.5 29.5 -10.5 40.5s-19.167 16.5 -36.5 16.5c-20 0 -35.5 -6.83301 -46.5 -20.5s-16.5 -30.5 -16.5 -50.5c0 -17.333 3.83301 -31.333 11.5 -42s20.167 -16 37.5 -16z" />
    <glyph glyph-name="AE" unicode="&#xc6;" horiz-adv-x="877" 
d="M497 719l454 -0.000976562c0 -28 -5 -58 -15 -90h-278l-36 -205h222c0 -14 -1.33301 -28.667 -4 -44s-6.66699 -30.666 -12 -45.999h-222l-43 -245h285c0 -14.667 -1.33301 -29.5 -4 -44.5s-6.33398 -29.833 -11.001 -44.5h-388l29 168h-242l-119 -168
c-9.33301 -1.33301 -19.166 -2.33301 -29.499 -3s-20.5 -1 -30.5 -1c-9.33301 0 -18.5 0.333008 -27.5 1s-17.5 1.66699 -25.5 3zM490 255.999l67 381h-6l-258 -381h197z" />
    <glyph glyph-name="Ccedilla" unicode="&#xc7;" horiz-adv-x="577" 
d="M339 -9c-72.667 8.66699 -128.332 37.0029 -166.999 85.0029s-58 111.333 -58 190c0 60 8.33301 118 25 174s41.5 105.5 74.5 148.5s73.833 77.5 122.5 103.5s104.667 39 168 39c35.333 0 65.666 -2.5 90.999 -7.5s46.666 -11.167 63.999 -18.5
c-3.33301 -15.333 -7.16602 -29.333 -11.499 -42s-10.833 -26.667 -19.5 -42c-19.333 7.33301 -38.333 12.666 -57 15.999s-40 5 -64 5c-49.333 0 -92 -10.333 -128 -31s-65.5 -48.167 -88.5 -82.5s-40 -73.5 -51 -117.5s-16.5 -89.333 -16.5 -136
c0 -64.667 16 -113.667 48 -147s77.667 -50 137 -50c25.333 0 48.833 2.33301 70.5 7s43.5 11.667 65.5 21c6 -11.333 10.667 -24.333 14 -39s5.66602 -30 6.99902 -46c-23.333 -10.667 -50.333 -18.5 -81 -23.5s-59 -8.16699 -85 -9.5l-26 -46
c6.66699 1.33301 13.667 2 21 2c28 0 49.5 -7.33301 64.5 -22s22.5 -33.334 22.5 -56.001c0 -20.667 -4 -37.834 -12 -51.501s-18.667 -24.667 -32 -33s-28.5 -14.166 -45.5 -17.499s-34.5 -5 -52.5 -5c-20.667 0 -38.834 2 -54.501 6s-27.167 8.33301 -34.5 13
c1.33301 8.66699 4 18.167 8 28.5s8.66699 19.166 14 26.499c10 -3.33301 21 -6.5 33 -9.5s23 -4.5 33 -4.5c6.66699 0 13.834 0.333008 21.501 1s14.834 2.33398 21.501 5.00098s12.167 6.66699 16.5 12s6.5 12.666 6.5 21.999c0 12.667 -5.16699 21.5 -15.5 26.5
s-24.5 7.5 -42.5 7.5c-9.33301 0 -18.5 -0.666992 -27.5 -2s-18.167 -3 -27.5 -5l-5 5z" />
    <glyph glyph-name="Egrave" unicode="&#xc8;" horiz-adv-x="524" 
d="M218 719l381 0.000976562c0 -30 -5.33301 -60 -16 -90h-278l-36 -205h222c0 -30.667 -5.33301 -60.667 -16 -90h-222l-21.5 -122.5l-21.5 -122.5h286c-2 -17.333 -3.66699 -32.333 -5 -45s-5 -27.334 -11 -44.001h-388zM273 891.001c8 1.33301 18.499 2.33301 31.499 3
s25.833 1 38.5 1c11.333 0 22.333 -0.333008 33 -1s19.667 -1.66699 27 -3l91 -113c-5.33301 -1.33301 -12.666 -2.5 -21.999 -3.5s-18.666 -1.5 -27.999 -1.5c-10.667 0 -20.334 0.333008 -29.001 1s-16 1.66699 -22 3z" />
    <glyph glyph-name="Eacute" unicode="&#xc9;" horiz-adv-x="524" 
d="M218 719l381 0.000976562c0 -30 -5.33301 -60 -16 -90h-278l-36 -205h222c0 -30.667 -5.33301 -60.667 -16 -90h-222l-21.5 -122.5l-21.5 -122.5h286c-2 -17.333 -3.66699 -32.333 -5 -45s-5 -27.334 -11 -44.001h-388zM467 887.001c8 1.33301 17.5 2.33203 28.5 2.99902
s22.167 1 33.5 1c12 0 24.333 -0.333008 37 -1s22.667 -1.66699 30 -3l-145 -110c-6.66699 -1.33301 -15.167 -2.16602 -25.5 -2.49902s-20.833 -0.5 -31.5 -0.5c-9.33301 0 -18.5 0.333008 -27.5 1s-16.167 1.66699 -21.5 3z" />
    <glyph glyph-name="Ecircumflex" unicode="&#xca;" horiz-adv-x="524" 
d="M218 719l381 0.000976562c0 -30 -5.33301 -60 -16 -90h-278l-36 -205h222c0 -30.667 -5.33301 -60.667 -16 -90h-222l-21.5 -122.5l-21.5 -122.5h286c-2 -17.333 -3.66699 -32.333 -5 -45s-5 -27.334 -11 -44.001h-388zM382 889.001
c8.66699 1.33301 18.498 2.33301 29.498 3s21.167 1 30.5 1c6.66699 0 14.834 -0.333008 24.501 -1s18.834 -1.66699 27.501 -3l82 -110c-7.33301 -1.33301 -15 -2.33301 -23 -3s-16.333 -1 -25 -1c-7.33301 0 -15.5 0.333008 -24.5 1s-17.833 2 -26.5 4l-45 60l-69 -61
c-8.66699 -1.33301 -18.167 -2.33301 -28.5 -3s-19.5 -1 -27.5 -1c-9.33301 0 -18.5 0.333008 -27.5 1s-17.167 1.66699 -24.5 3z" />
    <glyph glyph-name="Edieresis" unicode="&#xcb;" horiz-adv-x="524" 
d="M218 719l381 0.000976562c0 -30 -5.33301 -60 -16 -90h-278l-36 -205h222c0 -30.667 -5.33301 -60.667 -16 -90h-222l-21.5 -122.5l-21.5 -122.5h286c-2 -17.333 -3.66699 -32.333 -5 -45s-5 -27.334 -11 -44.001h-388zM261 778.001
c0 34.667 5.66797 68.334 17.001 101.001c9.33301 1.33301 18.5 2.33301 27.5 3s17.5 1 25.5 1c8.66699 0 17.667 -0.333008 27 -1s17.666 -1.66699 24.999 -3c0 -34.667 -5.66699 -68.334 -17 -101.001c-9.33301 -1.33301 -18.5 -2.33301 -27.5 -3s-17.833 -1 -26.5 -1
c-8 0 -16.5 0.333008 -25.5 1s-17.5 1.66699 -25.5 3zM475.001 778.001c0 33.333 5.66602 67 16.999 101c8.66699 1.33301 17.667 2.33301 27 3s18 1 26 1c8.66699 0 17.5 -0.333008 26.5 -1s17.5 -1.66699 25.5 -3c-1.33301 -34 -7 -67.667 -17 -101
c-9.33301 -1.33301 -18.5 -2.33301 -27.5 -3s-17.833 -1 -26.5 -1c-8 0 -16.667 0.333008 -26 1s-17.666 1.66699 -24.999 3z" />
    <glyph glyph-name="Igrave" unicode="&#xcc;" horiz-adv-x="288" 
d="M219 719c8.66699 1.33301 17.3291 2.33301 25.9961 3s17.334 1 26.001 1c9.33301 0 18.166 -0.333008 26.499 -1s16.5 -1.66699 24.5 -3l-126 -719c-9.33301 -1.33301 -18.166 -2.33301 -26.499 -3s-17.166 -1 -26.499 -1s-18.166 0.333008 -26.499 1
s-16.166 1.66699 -23.499 3zM135.995 891c8 1.33301 18.499 2.33301 31.499 3s25.833 1 38.5 1c11.333 0 22.333 -0.333008 33 -1s19.667 -1.66699 27 -3l91 -113c-5.33301 -1.33301 -12.666 -2.5 -21.999 -3.5s-18.666 -1.5 -27.999 -1.5
c-10.667 0 -20.334 0.333008 -29.001 1s-16 1.66699 -22 3z" />
    <glyph glyph-name="Iacute" unicode="&#xcd;" horiz-adv-x="288" 
d="M219 719c8.66699 1.33301 17.3291 2.33301 25.9961 3s17.334 1 26.001 1c9.33301 0 18.166 -0.333008 26.499 -1s16.5 -1.66699 24.5 -3l-126 -719c-9.33301 -1.33301 -18.166 -2.33301 -26.499 -3s-17.166 -1 -26.499 -1s-18.166 0.333008 -26.499 1
s-16.166 1.66699 -23.499 3zM313.995 887c8 1.33301 17.5 2.33203 28.5 2.99902s22.167 1 33.5 1c12 0 24.333 -0.333008 37 -1s22.667 -1.66699 30 -3l-145 -110c-6.66699 -1.33301 -15.167 -2.16602 -25.5 -2.49902s-20.833 -0.5 -31.5 -0.5
c-9.33301 0 -18.5 0.333008 -27.5 1s-16.167 1.66699 -21.5 3z" />
    <glyph glyph-name="Icircumflex" unicode="&#xce;" horiz-adv-x="288" 
d="M219 719c8.66699 1.33301 17.3291 2.33301 25.9961 3s17.334 1 26.001 1c9.33301 0 18.166 -0.333008 26.499 -1s16.5 -1.66699 24.5 -3l-126 -719c-9.33301 -1.33301 -18.166 -2.33301 -26.499 -3s-17.166 -1 -26.499 -1s-18.166 0.333008 -26.499 1
s-16.166 1.66699 -23.499 3zM246.995 889c8.66699 1.33301 18.498 2.33301 29.498 3s21.167 1 30.5 1c6.66699 0 14.834 -0.333008 24.501 -1s18.834 -1.66699 27.501 -3l82 -110c-7.33301 -1.33301 -15 -2.33301 -23 -3s-16.333 -1 -25 -1
c-7.33301 0 -15.5 0.333008 -24.5 1s-17.833 2 -26.5 4l-45 60l-69 -61c-8.66699 -1.33301 -18.167 -2.33301 -28.5 -3s-19.5 -1 -27.5 -1c-9.33301 0 -18.5 0.333008 -27.5 1s-17.167 1.66699 -24.5 3z" />
    <glyph glyph-name="Idieresis" unicode="&#xcf;" horiz-adv-x="288" 
d="M219 719c8.66699 1.33301 17.3291 2.33301 25.9961 3s17.334 1 26.001 1c9.33301 0 18.166 -0.333008 26.499 -1s16.5 -1.66699 24.5 -3l-126 -719c-9.33301 -1.33301 -18.166 -2.33301 -26.499 -3s-17.166 -1 -26.499 -1s-18.166 0.333008 -26.499 1
s-16.166 1.66699 -23.499 3zM120.995 778c0 34.667 5.66797 68.334 17.001 101.001c9.33301 1.33301 18.5 2.33301 27.5 3s17.5 1 25.5 1c8.66699 0 17.667 -0.333008 27 -1s17.666 -1.66699 24.999 -3c0 -34.667 -5.66699 -68.334 -17 -101.001
c-9.33301 -1.33301 -18.5 -2.33301 -27.5 -3s-17.833 -1 -26.5 -1c-8 0 -16.5 0.333008 -25.5 1s-17.5 1.66699 -25.5 3zM334.996 778c0 33.333 5.66602 67 16.999 101c8.66699 1.33301 17.667 2.33301 27 3s18 1 26 1c8.66699 0 17.5 -0.333008 26.5 -1
s17.5 -1.66699 25.5 -3c-1.33301 -34 -7 -67.667 -17 -101c-9.33301 -1.33301 -18.5 -2.33301 -27.5 -3s-17.833 -1 -26.5 -1c-8 0 -16.667 0.333008 -26 1s-17.666 1.66699 -24.999 3z" />
    <glyph glyph-name="Eth" unicode="&#xd0;" horiz-adv-x="696" 
d="M165 338l-75.002 0.00195312c0 13.333 0.833008 26.166 2.5 38.499s4.83398 24.5 9.50098 36.5h76l54 306c10.667 1.33301 22.667 2.66602 36 3.99902s27 2.5 41 3.5s27.667 1.83301 41 2.5s26 1 38 1c56 0 104.333 -7 145 -21s74 -33.833 100 -59.5
s45.167 -56.5 57.5 -92.5s18.5 -76 18.5 -120c0 -63.333 -9.33301 -122.166 -28 -176.499s-46.167 -101.833 -82.5 -142.5s-81.166 -72.5 -134.499 -95.5s-115 -34.5 -185 -34.5c-36 0 -68.833 1.16699 -98.5 3.5s-54.5 5.16602 -74.5 8.49902zM222.998 84.002
c8.66699 -1.33301 20.833 -2.49902 36.5 -3.49902s30.834 -1.5 45.501 -1.5c46 0 87.333 8.66699 124 26s67.834 41.333 93.501 72s45.167 67 58.5 109s20 87.667 20 137c0 70.667 -16 124.667 -48 162s-84.667 56 -158 56c-13.333 0 -26.333 -0.5 -39 -1.5
s-24.334 -2.16699 -35.001 -3.5l-40 -223h172c0 -12.667 -0.833008 -25.334 -2.5 -38.001s-4.83398 -25 -9.50098 -37h-173z" />
    <glyph glyph-name="Ntilde" unicode="&#xd1;" horiz-adv-x="669" 
d="M218 719c7.33301 1.33301 15.499 2.16699 24.499 2.5s17.167 0.5 24.5 0.5c16.667 0 31.667 -1 45 -3l202 -542l94 542l19.5 2c6.33301 0.666992 12.833 1 19.5 1h24l32 -3l-126 -719c-7.33301 -1.33301 -15.166 -2.16602 -23.499 -2.49902s-16.5 -0.5 -24.5 -0.5
c-7.33301 0 -14.833 0.166992 -22.5 0.5s-15.167 1.16602 -22.5 2.49902l-203 539l-93 -539c-13.333 -2 -26.333 -3 -39 -3h-25l-32 3zM309.999 848.001c12.667 13.333 27.835 25.0029 45.502 35.0029s37.167 15 58.5 15c14 0 26.667 -1.83301 38 -5.5
s22.333 -7.83398 33 -12.501s21.5 -8.83398 32.5 -12.501s23.167 -5.5 36.5 -5.5c11.333 0 21.5 1.83301 30.5 5.5s20.167 11.167 33.5 22.5c5.33301 -6.66699 11.166 -15.334 17.499 -26.001s10.166 -20.667 11.499 -30c-13.333 -12 -28.833 -23 -46.5 -33
s-37.167 -15 -58.5 -15c-14 0 -26.667 1.83301 -38 5.5s-22.333 7.66699 -33 12s-21.5 8.33301 -32.5 12s-22.5 5.5 -34.5 5.5c-12.667 0 -23.5 -2 -32.5 -6s-19.833 -11 -32.5 -21c-6 6.66699 -12 15 -18 25s-9.66699 19.667 -11 29z" />
    <glyph glyph-name="Ograve" unicode="&#xd2;" horiz-adv-x="701" 
d="M349 -12c-40 0 -74.8311 6.33301 -104.498 19s-54.334 30.5 -74.001 53.5s-34.334 50.833 -44.001 83.5s-14.5 68.667 -14.5 108c0 61.333 8 120.833 24 178.5s39.5 108.667 70.5 153s69.167 80 114.5 107s97 40.5 155 40.5c40 0 75 -6.66699 105 -20
s54.667 -31.666 74 -54.999s33.833 -51.333 43.5 -84s14.5 -68.334 14.5 -107.001c0 -62.667 -8.16699 -122.667 -24.5 -180s-40 -108 -71 -152s-69 -79.167 -114 -105.5s-96.5 -39.5 -154.5 -39.5zM360.002 76c39.333 0 74.1689 11.5 104.502 34.5s56 53 77 90
s37 78.667 48 125s16.5 92.5 16.5 138.5c0 54 -11.167 97 -33.5 129s-58.5 48 -108.5 48c-40 0 -75.333 -11.333 -106 -34s-56.334 -52.334 -77.001 -89.001s-36.334 -78.167 -47.001 -124.5s-16 -93.166 -16 -140.499c0 -56 11.5 -99.5 34.5 -130.5
s58.833 -46.5 107.5 -46.5zM365.005 891c8 1.33301 18.499 2.33301 31.499 3s25.833 1 38.5 1c11.333 0 22.333 -0.333008 33 -1s19.667 -1.66699 27 -3l91 -113c-5.33301 -1.33301 -12.666 -2.5 -21.999 -3.5s-18.666 -1.5 -27.999 -1.5
c-10.667 0 -20.334 0.333008 -29.001 1s-16 1.66699 -22 3z" />
    <glyph glyph-name="Oacute" unicode="&#xd3;" horiz-adv-x="701" 
d="M349 -12c-40 0 -74.8311 6.33301 -104.498 19s-54.334 30.5 -74.001 53.5s-34.334 50.833 -44.001 83.5s-14.5 68.667 -14.5 108c0 61.333 8 120.833 24 178.5s39.5 108.667 70.5 153s69.167 80 114.5 107s97 40.5 155 40.5c40 0 75 -6.66699 105 -20
s54.667 -31.666 74 -54.999s33.833 -51.333 43.5 -84s14.5 -68.334 14.5 -107.001c0 -62.667 -8.16699 -122.667 -24.5 -180s-40 -108 -71 -152s-69 -79.167 -114 -105.5s-96.5 -39.5 -154.5 -39.5zM360.002 76c39.333 0 74.1689 11.5 104.502 34.5s56 53 77 90
s37 78.667 48 125s16.5 92.5 16.5 138.5c0 54 -11.167 97 -33.5 129s-58.5 48 -108.5 48c-40 0 -75.333 -11.333 -106 -34s-56.334 -52.334 -77.001 -89.001s-36.334 -78.167 -47.001 -124.5s-16 -93.166 -16 -140.499c0 -56 11.5 -99.5 34.5 -130.5
s58.833 -46.5 107.5 -46.5zM517.005 887c8 1.33301 17.5 2.33203 28.5 2.99902s22.167 1 33.5 1c12 0 24.333 -0.333008 37 -1s22.667 -1.66699 30 -3l-145 -110c-6.66699 -1.33301 -15.167 -2.16602 -25.5 -2.49902s-20.833 -0.5 -31.5 -0.5
c-9.33301 0 -18.5 0.333008 -27.5 1s-16.167 1.66699 -21.5 3z" />
    <glyph glyph-name="Ocircumflex" unicode="&#xd4;" horiz-adv-x="701" 
d="M349 -12c-40 0 -74.8311 6.33301 -104.498 19s-54.334 30.5 -74.001 53.5s-34.334 50.833 -44.001 83.5s-14.5 68.667 -14.5 108c0 61.333 8 120.833 24 178.5s39.5 108.667 70.5 153s69.167 80 114.5 107s97 40.5 155 40.5c40 0 75 -6.66699 105 -20
s54.667 -31.666 74 -54.999s33.833 -51.333 43.5 -84s14.5 -68.334 14.5 -107.001c0 -62.667 -8.16699 -122.667 -24.5 -180s-40 -108 -71 -152s-69 -79.167 -114 -105.5s-96.5 -39.5 -154.5 -39.5zM360.002 76c39.333 0 74.1689 11.5 104.502 34.5s56 53 77 90
s37 78.667 48 125s16.5 92.5 16.5 138.5c0 54 -11.167 97 -33.5 129s-58.5 48 -108.5 48c-40 0 -75.333 -11.333 -106 -34s-56.334 -52.334 -77.001 -89.001s-36.334 -78.167 -47.001 -124.5s-16 -93.166 -16 -140.499c0 -56 11.5 -99.5 34.5 -130.5
s58.833 -46.5 107.5 -46.5zM447.005 889c8.66699 1.33301 18.498 2.33301 29.498 3s21.167 1 30.5 1c6.66699 0 14.834 -0.333008 24.501 -1s18.834 -1.66699 27.501 -3l82 -110c-7.33301 -1.33301 -15 -2.33301 -23 -3s-16.333 -1 -25 -1
c-7.33301 0 -15.5 0.333008 -24.5 1s-17.833 2 -26.5 4l-45 60l-69 -61c-8.66699 -1.33301 -18.167 -2.33301 -28.5 -3s-19.5 -1 -27.5 -1c-9.33301 0 -18.5 0.333008 -27.5 1s-17.167 1.66699 -24.5 3z" />
    <glyph glyph-name="Otilde" unicode="&#xd5;" horiz-adv-x="701" 
d="M349 -12c-40 0 -74.8311 6.33301 -104.498 19s-54.334 30.5 -74.001 53.5s-34.334 50.833 -44.001 83.5s-14.5 68.667 -14.5 108c0 61.333 8 120.833 24 178.5s39.5 108.667 70.5 153s69.167 80 114.5 107s97 40.5 155 40.5c40 0 75 -6.66699 105 -20
s54.667 -31.666 74 -54.999s33.833 -51.333 43.5 -84s14.5 -68.334 14.5 -107.001c0 -62.667 -8.16699 -122.667 -24.5 -180s-40 -108 -71 -152s-69 -79.167 -114 -105.5s-96.5 -39.5 -154.5 -39.5zM360.002 76c39.333 0 74.1689 11.5 104.502 34.5s56 53 77 90
s37 78.667 48 125s16.5 92.5 16.5 138.5c0 54 -11.167 97 -33.5 129s-58.5 48 -108.5 48c-40 0 -75.333 -11.333 -106 -34s-56.334 -52.334 -77.001 -89.001s-36.334 -78.167 -47.001 -124.5s-16 -93.166 -16 -140.499c0 -56 11.5 -99.5 34.5 -130.5
s58.833 -46.5 107.5 -46.5zM332.005 848c12.667 13.333 27.835 25.0029 45.502 35.0029s37.167 15 58.5 15c14 0 26.667 -1.83301 38 -5.5s22.333 -7.83398 33 -12.501s21.5 -8.83398 32.5 -12.501s23.167 -5.5 36.5 -5.5c11.333 0 21.5 1.83301 30.5 5.5
s20.167 11.167 33.5 22.5c5.33301 -6.66699 11.166 -15.334 17.499 -26.001s10.166 -20.667 11.499 -30c-13.333 -12 -28.833 -23 -46.5 -33s-37.167 -15 -58.5 -15c-14 0 -26.667 1.83301 -38 5.5s-22.333 7.66699 -33 12s-21.5 8.33301 -32.5 12s-22.5 5.5 -34.5 5.5
c-12.667 0 -23.5 -2 -32.5 -6s-19.833 -11 -32.5 -21c-6 6.66699 -12 15 -18 25s-9.66699 19.667 -11 29z" />
    <glyph glyph-name="Odieresis" unicode="&#xd6;" horiz-adv-x="701" 
d="M349 -12c-40 0 -74.8311 6.33301 -104.498 19s-54.334 30.5 -74.001 53.5s-34.334 50.833 -44.001 83.5s-14.5 68.667 -14.5 108c0 61.333 8 120.833 24 178.5s39.5 108.667 70.5 153s69.167 80 114.5 107s97 40.5 155 40.5c40 0 75 -6.66699 105 -20
s54.667 -31.666 74 -54.999s33.833 -51.333 43.5 -84s14.5 -68.334 14.5 -107.001c0 -62.667 -8.16699 -122.667 -24.5 -180s-40 -108 -71 -152s-69 -79.167 -114 -105.5s-96.5 -39.5 -154.5 -39.5zM360.002 76c39.333 0 74.1689 11.5 104.502 34.5s56 53 77 90
s37 78.667 48 125s16.5 92.5 16.5 138.5c0 54 -11.167 97 -33.5 129s-58.5 48 -108.5 48c-40 0 -75.333 -11.333 -106 -34s-56.334 -52.334 -77.001 -89.001s-36.334 -78.167 -47.001 -124.5s-16 -93.166 -16 -140.499c0 -56 11.5 -99.5 34.5 -130.5
s58.833 -46.5 107.5 -46.5zM329.005 778c0 34.667 5.66797 68.334 17.001 101.001c9.33301 1.33301 18.5 2.33301 27.5 3s17.5 1 25.5 1c8.66699 0 17.667 -0.333008 27 -1s17.666 -1.66699 24.999 -3c0 -34.667 -5.66699 -68.334 -17 -101.001
c-9.33301 -1.33301 -18.5 -2.33301 -27.5 -3s-17.833 -1 -26.5 -1c-8 0 -16.5 0.333008 -25.5 1s-17.5 1.66699 -25.5 3zM543.006 778c0 33.333 5.66602 67 16.999 101c8.66699 1.33301 17.667 2.33301 27 3s18 1 26 1c8.66699 0 17.5 -0.333008 26.5 -1
s17.5 -1.66699 25.5 -3c-1.33301 -34 -7 -67.667 -17 -101c-9.33301 -1.33301 -18.5 -2.33301 -27.5 -3s-17.833 -1 -26.5 -1c-8 0 -16.667 0.333008 -26 1s-17.666 1.66699 -24.999 3z" />
    <glyph glyph-name="multiply" unicode="&#xd7;" horiz-adv-x="600" 
d="M298 357l-96.999 118c10.667 11.333 22.167 22.5 34.5 33.5s25.833 21.167 40.5 30.5l97 -119l141 121c11.333 -9.33301 22.166 -20.333 32.499 -33s18.833 -25.334 25.5 -38.001l-141 -121l96 -116c-10 -12 -21.5 -23.333 -34.5 -34s-26.167 -20 -39.5 -28l-96 116
l-144 -122c-12 8.66699 -22.833 19.334 -32.5 32.001s-18.167 25.667 -25.5 39z" />
    <glyph glyph-name="Oslash" unicode="&#xd8;" horiz-adv-x="701" 
d="M156 80c-29.333 44 -44 101.333 -44 172c0 61.333 8 120.833 24 178.5s39.5 108.667 70.5 153s69.167 80 114.5 107s97 40.5 155 40.5c62 0 112 -16 150 -48l35 45c5.33301 1.33301 11.833 2.33301 19.5 3s14.834 1 21.501 1c15.333 0 28.333 -1.33301 39 -4l-72 -92
c29.333 -45.333 44 -102.333 44 -171c0 -62.667 -8.16699 -122.667 -24.5 -180s-40 -108 -71 -152s-69 -79.167 -114 -105.5s-96.5 -39.5 -154.5 -39.5c-61.333 0 -111 15 -149 45l-38 -48c-10.667 -2.66699 -23.334 -4 -38.001 -4c-6.66699 0 -14 0.333008 -22 1
s-14.667 1.66699 -20 3zM261 113c23.333 -24.667 56.334 -37 99.001 -37c39.333 0 74.166 11.5 104.499 34.5s56 53 77 90s37 78.667 48 125s16.5 92.5 16.5 138.5c0 30 -3.66699 55.667 -11 77zM564.001 603c-24 25.333 -57.3311 38 -99.998 38
c-40 0 -75.333 -11.333 -106 -34s-56.334 -52.334 -77.001 -89.001s-36.334 -78.167 -47.001 -124.5s-16 -93.166 -16 -140.499c0 -30 4 -56 12 -78z" />
    <glyph glyph-name="Ugrave" unicode="&#xd9;" horiz-adv-x="663" 
d="M212 719c8.66699 1.33301 17.5029 2.33496 26.5029 3.00195s17.833 1 26.5 1s17.167 -0.333008 25.5 -1s16.5 -1.66699 24.5 -3l-72 -408c-8 -46 -12 -85 -12 -117c0 -40.667 8.5 -69.834 25.5 -87.501s46.5 -26.5 88.5 -26.5c28.667 0 53.167 4.83301 73.5 14.5
s37.5 24.167 51.5 43.5s25.667 43.5 35 72.5s17.333 62.5 24 100.5l71 408c9.33301 1.33301 18.166 2.33301 26.499 3s17.166 1 26.499 1c8 0 16.5 -0.333008 25.5 -1s17.167 -1.66699 24.5 -3l-76 -433c-8.66699 -48 -20.167 -90.667 -34.5 -128s-33 -68.5 -56 -93.5
s-51.333 -44 -85 -57s-74.167 -19.5 -121.5 -19.5c-68.667 0 -119.834 16.333 -153.501 49s-50.5 83.334 -50.5 152.001c0 15.333 1 31.666 3 48.999s4.66699 35.666 8 54.999zM326.003 891.002c8 1.33301 18.499 2.33301 31.499 3s25.833 1 38.5 1
c11.333 0 22.333 -0.333008 33 -1s19.667 -1.66699 27 -3l91 -113c-5.33301 -1.33301 -12.666 -2.5 -21.999 -3.5s-18.666 -1.5 -27.999 -1.5c-10.667 0 -20.334 0.333008 -29.001 1s-16 1.66699 -22 3z" />
    <glyph glyph-name="Uacute" unicode="&#xda;" horiz-adv-x="663" 
d="M212 719c8.66699 1.33301 17.5029 2.33496 26.5029 3.00195s17.833 1 26.5 1s17.167 -0.333008 25.5 -1s16.5 -1.66699 24.5 -3l-72 -408c-8 -46 -12 -85 -12 -117c0 -40.667 8.5 -69.834 25.5 -87.501s46.5 -26.5 88.5 -26.5c28.667 0 53.167 4.83301 73.5 14.5
s37.5 24.167 51.5 43.5s25.667 43.5 35 72.5s17.333 62.5 24 100.5l71 408c9.33301 1.33301 18.166 2.33301 26.499 3s17.166 1 26.499 1c8 0 16.5 -0.333008 25.5 -1s17.167 -1.66699 24.5 -3l-76 -433c-8.66699 -48 -20.167 -90.667 -34.5 -128s-33 -68.5 -56 -93.5
s-51.333 -44 -85 -57s-74.167 -19.5 -121.5 -19.5c-68.667 0 -119.834 16.333 -153.501 49s-50.5 83.334 -50.5 152.001c0 15.333 1 31.666 3 48.999s4.66699 35.666 8 54.999zM508.003 887.002c8 1.33301 17.5 2.33203 28.5 2.99902s22.167 1 33.5 1
c12 0 24.333 -0.333008 37 -1s22.667 -1.66699 30 -3l-145 -110c-6.66699 -1.33301 -15.167 -2.16602 -25.5 -2.49902s-20.833 -0.5 -31.5 -0.5c-9.33301 0 -18.5 0.333008 -27.5 1s-16.167 1.66699 -21.5 3z" />
    <glyph glyph-name="Ucircumflex" unicode="&#xdb;" horiz-adv-x="663" 
d="M212 719c8.66699 1.33301 17.5029 2.33496 26.5029 3.00195s17.833 1 26.5 1s17.167 -0.333008 25.5 -1s16.5 -1.66699 24.5 -3l-72 -408c-8 -46 -12 -85 -12 -117c0 -40.667 8.5 -69.834 25.5 -87.501s46.5 -26.5 88.5 -26.5c28.667 0 53.167 4.83301 73.5 14.5
s37.5 24.167 51.5 43.5s25.667 43.5 35 72.5s17.333 62.5 24 100.5l71 408c9.33301 1.33301 18.166 2.33301 26.499 3s17.166 1 26.499 1c8 0 16.5 -0.333008 25.5 -1s17.167 -1.66699 24.5 -3l-76 -433c-8.66699 -48 -20.167 -90.667 -34.5 -128s-33 -68.5 -56 -93.5
s-51.333 -44 -85 -57s-74.167 -19.5 -121.5 -19.5c-68.667 0 -119.834 16.333 -153.501 49s-50.5 83.334 -50.5 152.001c0 15.333 1 31.666 3 48.999s4.66699 35.666 8 54.999zM434.003 889.002c8.66699 1.33301 18.498 2.33301 29.498 3s21.167 1 30.5 1
c6.66699 0 14.834 -0.333008 24.501 -1s18.834 -1.66699 27.501 -3l82 -110c-7.33301 -1.33301 -15 -2.33301 -23 -3s-16.333 -1 -25 -1c-7.33301 0 -15.5 0.333008 -24.5 1s-17.833 2 -26.5 4l-45 60l-69 -61c-8.66699 -1.33301 -18.167 -2.33301 -28.5 -3
s-19.5 -1 -27.5 -1c-9.33301 0 -18.5 0.333008 -27.5 1s-17.167 1.66699 -24.5 3z" />
    <glyph glyph-name="Udieresis" unicode="&#xdc;" horiz-adv-x="663" 
d="M212 719c8.66699 1.33301 17.5029 2.33496 26.5029 3.00195s17.833 1 26.5 1s17.167 -0.333008 25.5 -1s16.5 -1.66699 24.5 -3l-72 -408c-8 -46 -12 -85 -12 -117c0 -40.667 8.5 -69.834 25.5 -87.501s46.5 -26.5 88.5 -26.5c28.667 0 53.167 4.83301 73.5 14.5
s37.5 24.167 51.5 43.5s25.667 43.5 35 72.5s17.333 62.5 24 100.5l71 408c9.33301 1.33301 18.166 2.33301 26.499 3s17.166 1 26.499 1c8 0 16.5 -0.333008 25.5 -1s17.167 -1.66699 24.5 -3l-76 -433c-8.66699 -48 -20.167 -90.667 -34.5 -128s-33 -68.5 -56 -93.5
s-51.333 -44 -85 -57s-74.167 -19.5 -121.5 -19.5c-68.667 0 -119.834 16.333 -153.501 49s-50.5 83.334 -50.5 152.001c0 15.333 1 31.666 3 48.999s4.66699 35.666 8 54.999zM314.003 778.002c0 34.667 5.66797 68.334 17.001 101.001
c9.33301 1.33301 18.5 2.33301 27.5 3s17.5 1 25.5 1c8.66699 0 17.667 -0.333008 27 -1s17.666 -1.66699 24.999 -3c0 -34.667 -5.66699 -68.334 -17 -101.001c-9.33301 -1.33301 -18.5 -2.33301 -27.5 -3s-17.833 -1 -26.5 -1c-8 0 -16.5 0.333008 -25.5 1
s-17.5 1.66699 -25.5 3zM528.004 778.002c0 33.333 5.66602 67 16.999 101c8.66699 1.33301 17.667 2.33301 27 3s18 1 26 1c8.66699 0 17.5 -0.333008 26.5 -1s17.5 -1.66699 25.5 -3c-1.33301 -34 -7 -67.667 -17 -101c-9.33301 -1.33301 -18.5 -2.33301 -27.5 -3
s-17.833 -1 -26.5 -1c-8 0 -16.667 0.333008 -26 1s-17.666 1.66699 -24.999 3z" />
    <glyph glyph-name="Yacute" unicode="&#xdd;" horiz-adv-x="549" 
d="M270 262l-136.998 457c9.33301 1.33301 20.166 2.16602 32.499 2.49902s24.166 0.5 35.499 0.5c14 0 27.667 -1 41 -3l96 -353l206 353c18 2 37 3 57 3c8.66699 0 17.834 -0.166992 27.501 -0.5s18.167 -1.16602 25.5 -2.49902l-283 -460l-45 -259
c-18 -2 -35.667 -3 -53 -3c-18.667 0 -35.334 1 -50.001 3zM454.002 887c8 1.33301 17.5 2.33203 28.5 2.99902s22.167 1 33.5 1c12 0 24.333 -0.333008 37 -1s22.667 -1.66699 30 -3l-145 -110c-6.66699 -1.33301 -15.167 -2.16602 -25.5 -2.49902s-20.833 -0.5 -31.5 -0.5
c-9.33301 0 -18.5 0.333008 -27.5 1s-16.167 1.66699 -21.5 3z" />
    <glyph glyph-name="Thorn" unicode="&#xde;" horiz-adv-x="577" 
d="M222 719c16 2 32.335 2.99609 49.002 2.99609c9.33301 0 18.666 -0.166992 27.999 -0.5s17.666 -1.16602 24.999 -2.49902l-20 -112c8.66699 0.666992 16.667 1 24 1h22c32 0 62.5 -3.33301 91.5 -10s54.5 -17.834 76.5 -33.501s39.5 -36 52.5 -61
s19.5 -55.833 19.5 -92.5c0 -43.333 -7.33301 -82 -22 -116s-35.334 -62.667 -62.001 -86s-58.667 -41.166 -96 -53.499s-78.666 -18.5 -123.999 -18.5c-13.333 0 -24.5 0.333008 -33.5 1s-18.833 1.33398 -29.5 2.00098l-25 -140
c-10.667 -1.33301 -20.5 -2.16602 -29.5 -2.49902s-18.5 -0.5 -28.5 -0.5c-7.33301 0 -15 0.333008 -23 1s-15 1.33398 -21 2.00098zM238.002 227.996c9.33301 -1.33301 17.9961 -2.16699 25.9961 -2.5s19.667 -0.5 35 -0.5c26.667 0 51.334 3.5 74.001 10.5
s42 17.833 58 32.5s28.5 33.334 37.5 56.001s13.5 49.667 13.5 81c0 24 -3.83301 43.5 -11.5 58.5s-17.667 26.667 -30 35s-26.666 14.166 -42.999 17.499s-33.166 5 -50.499 5h-16.5c-4.33301 0 -8.66602 -0.166992 -12.999 -0.5l-13 -1
c-4.33301 -0.333008 -9.83301 -0.833008 -16.5 -1.5z" />
    <glyph glyph-name="germandbls" unicode="&#xdf;" horiz-adv-x="578" 
d="M171 523c6.66699 40 16.001 73.8369 28.001 101.504s27.333 50.167 46 67.5s41 30 67 38s56 12 90 12c29.333 0 54.833 -3.66699 76.5 -11s39.5 -17.5 53.5 -30.5s24.5 -28 31.5 -45s10.5 -35.5 10.5 -55.5c0 -32 -6.83301 -59.167 -20.5 -81.5s-28.667 -42.333 -45 -60
l-45 -50.5c-13.667 -16 -20.5 -33.667 -20.5 -53c0 -16.667 6.16699 -31.167 18.5 -43.5l41 -39.5c15 -14 28.833 -30.333 41.5 -49s19 -42.334 19 -71.001c0 -24.667 -4.66699 -47.167 -14 -67.5s-22.333 -37.666 -39 -51.999s-36.667 -25.333 -60 -33s-49 -11.5 -77 -11.5
c-25.333 0 -48.5 2 -69.5 6s-39.5 9.66699 -55.5 17c3.33301 12 7.83301 24.667 13.5 38s12.167 26.666 19.5 39.999c13.333 -6 28.166 -10.833 44.499 -14.5s32.5 -5.5 48.5 -5.5c24 0 45.333 6.16699 64 18.5s28 31.166 28 56.499c0 21.333 -6.33301 38.5 -19 51.5
s-26.5 25.667 -41.5 38s-28.833 26.333 -41.5 42s-19 36.834 -19 63.501c0 26 7 48.833 21 68.5s29.333 38.667 46 57s32 37.333 46 57s21 42.167 21 67.5c0 23.333 -8.5 41.166 -25.5 53.499s-38.5 18.5 -64.5 18.5c-18 0 -33.667 -2.33301 -47 -7
s-24.666 -12.667 -33.999 -24s-17.166 -26.333 -23.499 -45s-11.833 -41.667 -16.5 -69l-95 -546c-7.33301 -40 -17 -73.5 -29 -100.5s-26.833 -49 -44.5 -66s-37.834 -29.167 -60.501 -36.5s-48.334 -11 -77.001 -11c-14.667 0 -28.5 1.16699 -41.5 3.5
s-24.833 5.16602 -35.5 8.49902c2.66699 16 6 30.167 10 42.5s9.33301 24.5 16 36.5c6.66699 -2.66699 14.167 -4.83398 22.5 -6.50098s16.833 -2.5 25.5 -2.5c14.667 0 28.167 1.66699 40.5 5s23.333 10 33 20s18 24.167 25 42.5s13.167 42.5 18.5 72.5z" />
    <glyph glyph-name="agrave" unicode="&#xe0;" horiz-adv-x="554" 
d="M455 437c-8 2 -16.334 3.33203 -25.001 3.99902s-18.334 1 -29.001 1c-33.333 0 -63.166 -7.66699 -89.499 -23s-49 -35.833 -68 -61.5s-33.5 -54.667 -43.5 -87s-15 -65.5 -15 -99.5c0 -32 5.66699 -56.833 17 -74.5s28.333 -26.5 51 -26.5
c20.667 0 40.667 6.66699 60 20s37 31.833 53 55.5s29.833 51.334 41.5 83.001s20.834 65.5 27.501 101.5zM511.999 217.999c-7.33301 -40 -13.167 -74.332 -17.5 -102.999s-6.5 -53.667 -6.5 -75c0 -8.66699 0.166992 -15.5 0.5 -20.5s1.16602 -11.167 2.49902 -18.5
c-7.33301 -1.33301 -15.333 -2.33301 -24 -3s-16.667 -1 -24 -1c-6.66699 0 -14 0.333008 -22 1s-15.667 1.66699 -23 3c-1.33301 7.33301 -2.33301 14.833 -3 22.5s-1 17.167 -1 28.5c0 7.33301 0.833008 17.333 2.5 30s3.5 24 5.5 34
c-7.33301 -14.667 -17 -29.5 -29 -44.5s-25.833 -28.667 -41.5 -41s-33.334 -22.5 -53.001 -30.5s-40.834 -12 -63.501 -12c-44 0 -77.167 14.5 -99.5 43.5s-33.5 68.5 -33.5 118.5c0 47.333 7.33301 93.5 22 138.5s36.334 85 65.001 120s64.334 63.167 107.001 84.5
s92.334 32 149.001 32c24 0 48.167 -1.83301 72.5 -5.5s45.833 -8.83398 64.5 -15.501zM275.998 721c10 1.33301 20 2.33301 30 3s20.667 1 32 1s22.5 -0.333008 33.5 -1s21.5 -1.66699 31.5 -3l92 -127c-15.333 -2.66699 -31.333 -4 -48 -4c-10 0 -19.333 0.333008 -28 1
s-16.667 1.66699 -24 3z" />
    <glyph glyph-name="aacute" unicode="&#xe1;" horiz-adv-x="554" 
d="M455 437c-8 2 -16.334 3.33203 -25.001 3.99902s-18.334 1 -29.001 1c-33.333 0 -63.166 -7.66699 -89.499 -23s-49 -35.833 -68 -61.5s-33.5 -54.667 -43.5 -87s-15 -65.5 -15 -99.5c0 -32 5.66699 -56.833 17 -74.5s28.333 -26.5 51 -26.5
c20.667 0 40.667 6.66699 60 20s37 31.833 53 55.5s29.833 51.334 41.5 83.001s20.834 65.5 27.501 101.5zM511.999 217.999c-7.33301 -40 -13.167 -74.332 -17.5 -102.999s-6.5 -53.667 -6.5 -75c0 -8.66699 0.166992 -15.5 0.5 -20.5s1.16602 -11.167 2.49902 -18.5
c-7.33301 -1.33301 -15.333 -2.33301 -24 -3s-16.667 -1 -24 -1c-6.66699 0 -14 0.333008 -22 1s-15.667 1.66699 -23 3c-1.33301 7.33301 -2.33301 14.833 -3 22.5s-1 17.167 -1 28.5c0 7.33301 0.833008 17.333 2.5 30s3.5 24 5.5 34
c-7.33301 -14.667 -17 -29.5 -29 -44.5s-25.833 -28.667 -41.5 -41s-33.334 -22.5 -53.001 -30.5s-40.834 -12 -63.501 -12c-44 0 -77.167 14.5 -99.5 43.5s-33.5 68.5 -33.5 118.5c0 47.333 7.33301 93.5 22 138.5s36.334 85 65.001 120s64.334 63.167 107.001 84.5
s92.334 32 149.001 32c24 0 48.167 -1.83301 72.5 -5.5s45.833 -8.83398 64.5 -15.501zM444.998 721c10.667 1.33301 21.333 2.33301 32 3s21.667 1 33 1s22 -0.333008 32 -1s20 -1.66699 30 -3l-124 -127c-7.33301 -1.33301 -15.5 -2.33301 -24.5 -3s-18.5 -1 -28.5 -1
c-7.33301 0 -15 0.333008 -23 1s-16 1.66699 -24 3z" />
    <glyph glyph-name="acircumflex" unicode="&#xe2;" horiz-adv-x="554" 
d="M455 437c-8 2 -16.334 3.33203 -25.001 3.99902s-18.334 1 -29.001 1c-33.333 0 -63.166 -7.66699 -89.499 -23s-49 -35.833 -68 -61.5s-33.5 -54.667 -43.5 -87s-15 -65.5 -15 -99.5c0 -32 5.66699 -56.833 17 -74.5s28.333 -26.5 51 -26.5
c20.667 0 40.667 6.66699 60 20s37 31.833 53 55.5s29.833 51.334 41.5 83.001s20.834 65.5 27.501 101.5zM511.999 217.999c-7.33301 -40 -13.167 -74.332 -17.5 -102.999s-6.5 -53.667 -6.5 -75c0 -8.66699 0.166992 -15.5 0.5 -20.5s1.16602 -11.167 2.49902 -18.5
c-7.33301 -1.33301 -15.333 -2.33301 -24 -3s-16.667 -1 -24 -1c-6.66699 0 -14 0.333008 -22 1s-15.667 1.66699 -23 3c-1.33301 7.33301 -2.33301 14.833 -3 22.5s-1 17.167 -1 28.5c0 7.33301 0.833008 17.333 2.5 30s3.5 24 5.5 34
c-7.33301 -14.667 -17 -29.5 -29 -44.5s-25.833 -28.667 -41.5 -41s-33.334 -22.5 -53.001 -30.5s-40.834 -12 -63.501 -12c-44 0 -77.167 14.5 -99.5 43.5s-33.5 68.5 -33.5 118.5c0 47.333 7.33301 93.5 22 138.5s36.334 85 65.001 120s64.334 63.167 107.001 84.5
s92.334 32 149.001 32c24 0 48.167 -1.83301 72.5 -5.5s45.833 -8.83398 64.5 -15.501zM369.998 721c8 1.33301 17.501 2.33301 28.501 3s21.167 1 30.5 1c7.33301 0 16.666 -0.333008 27.999 -1s21.333 -2 30 -4l74 -126c-6 -1.33301 -12.833 -2.33301 -20.5 -3
s-15.834 -1 -24.501 -1c-8 0 -16.667 0.333008 -26 1s-18 1.66699 -26 3l-41 79l-70 -79c-8 -1.33301 -17.167 -2.33301 -27.5 -3s-19.5 -1 -27.5 -1c-9.33301 0 -18.666 0.333008 -27.999 1s-17.333 1.66699 -24 3z" />
    <glyph glyph-name="atilde" unicode="&#xe3;" horiz-adv-x="554" 
d="M455 437c-8 2 -16.334 3.33203 -25.001 3.99902s-18.334 1 -29.001 1c-33.333 0 -63.166 -7.66699 -89.499 -23s-49 -35.833 -68 -61.5s-33.5 -54.667 -43.5 -87s-15 -65.5 -15 -99.5c0 -32 5.66699 -56.833 17 -74.5s28.333 -26.5 51 -26.5
c20.667 0 40.667 6.66699 60 20s37 31.833 53 55.5s29.833 51.334 41.5 83.001s20.834 65.5 27.501 101.5zM511.999 217.999c-7.33301 -40 -13.167 -74.332 -17.5 -102.999s-6.5 -53.667 -6.5 -75c0 -8.66699 0.166992 -15.5 0.5 -20.5s1.16602 -11.167 2.49902 -18.5
c-7.33301 -1.33301 -15.333 -2.33301 -24 -3s-16.667 -1 -24 -1c-6.66699 0 -14 0.333008 -22 1s-15.667 1.66699 -23 3c-1.33301 7.33301 -2.33301 14.833 -3 22.5s-1 17.167 -1 28.5c0 7.33301 0.833008 17.333 2.5 30s3.5 24 5.5 34
c-7.33301 -14.667 -17 -29.5 -29 -44.5s-25.833 -28.667 -41.5 -41s-33.334 -22.5 -53.001 -30.5s-40.834 -12 -63.501 -12c-44 0 -77.167 14.5 -99.5 43.5s-33.5 68.5 -33.5 118.5c0 47.333 7.33301 93.5 22 138.5s36.334 85 65.001 120s64.334 63.167 107.001 84.5
s92.334 32 149.001 32c24 0 48.167 -1.83301 72.5 -5.5s45.833 -8.83398 64.5 -15.501zM242.998 660c12.667 13.333 27.835 24.999 45.502 34.999s37.167 15 58.5 15c14 0 26.667 -1.83301 38 -5.5s22.333 -7.66699 33 -12s21.5 -8.33301 32.5 -12s23.167 -5.5 36.5 -5.5
c11.333 0 21.666 1.66699 30.999 5s20.666 10.666 33.999 21.999c5.33301 -6.66699 11 -15.167 17 -25.5s9.66699 -20.5 11 -30.5c-12.667 -12 -28 -23 -46 -33s-37.667 -15 -59 -15c-14 0 -26.667 1.83301 -38 5.5s-22.333 7.83398 -33 12.501s-21.5 8.83398 -32.5 12.501
s-22.5 5.5 -34.5 5.5c-12.667 0 -23.5 -2.16699 -32.5 -6.5s-19.833 -11.5 -32.5 -21.5c-6 6.66699 -12 15 -18 25s-9.66699 19.667 -11 29z" />
    <glyph glyph-name="adieresis" unicode="&#xe4;" horiz-adv-x="554" 
d="M455 437c-8 2 -16.334 3.33203 -25.001 3.99902s-18.334 1 -29.001 1c-33.333 0 -63.166 -7.66699 -89.499 -23s-49 -35.833 -68 -61.5s-33.5 -54.667 -43.5 -87s-15 -65.5 -15 -99.5c0 -32 5.66699 -56.833 17 -74.5s28.333 -26.5 51 -26.5
c20.667 0 40.667 6.66699 60 20s37 31.833 53 55.5s29.833 51.334 41.5 83.001s20.834 65.5 27.501 101.5zM511.999 217.999c-7.33301 -40 -13.167 -74.332 -17.5 -102.999s-6.5 -53.667 -6.5 -75c0 -8.66699 0.166992 -15.5 0.5 -20.5s1.16602 -11.167 2.49902 -18.5
c-7.33301 -1.33301 -15.333 -2.33301 -24 -3s-16.667 -1 -24 -1c-6.66699 0 -14 0.333008 -22 1s-15.667 1.66699 -23 3c-1.33301 7.33301 -2.33301 14.833 -3 22.5s-1 17.167 -1 28.5c0 7.33301 0.833008 17.333 2.5 30s3.5 24 5.5 34
c-7.33301 -14.667 -17 -29.5 -29 -44.5s-25.833 -28.667 -41.5 -41s-33.334 -22.5 -53.001 -30.5s-40.834 -12 -63.501 -12c-44 0 -77.167 14.5 -99.5 43.5s-33.5 68.5 -33.5 118.5c0 47.333 7.33301 93.5 22 138.5s36.334 85 65.001 120s64.334 63.167 107.001 84.5
s92.334 32 149.001 32c24 0 48.167 -1.83301 72.5 -5.5s45.833 -8.83398 64.5 -15.501zM250.998 604c0.666992 17.333 2.33398 34.167 5.00098 50.5s7 32.833 13 49.5c8.66699 1.33301 17.5 2.33301 26.5 3s17.167 1 24.5 1s15.666 -0.333008 24.999 -1s18 -1.66699 26 -3
c-0.666992 -17.333 -2.33398 -34.166 -5.00098 -50.499s-7 -32.833 -13 -49.5c-17.333 -2 -34.333 -3 -51 -3c-7.33301 0 -15.666 0.166992 -24.999 0.5s-18 1.16602 -26 2.49902zM454.998 604.001c0.666992 17.333 2.16699 34.168 4.5 50.501s6.83301 32.833 13.5 49.5
c8 1.33301 16.5 2.33301 25.5 3s17.5 1 25.5 1c7.33301 0 15.666 -0.333008 24.999 -1s18 -1.66699 26 -3c-1.33301 -17.333 -3.33301 -34 -6 -50s-6.66699 -32.667 -12 -50c-17.333 -2 -34.333 -3 -51 -3c-7.33301 0 -15.666 0.166992 -24.999 0.5s-18 1.16602 -26 2.49902
z" />
    <glyph glyph-name="aring" unicode="&#xe5;" horiz-adv-x="554" 
d="M455 437c-8 2 -16.334 3.33203 -25.001 3.99902s-18.334 1 -29.001 1c-33.333 0 -63.166 -7.66699 -89.499 -23s-49 -35.833 -68 -61.5s-33.5 -54.667 -43.5 -87s-15 -65.5 -15 -99.5c0 -32 5.66699 -56.833 17 -74.5s28.333 -26.5 51 -26.5
c20.667 0 40.667 6.66699 60 20s37 31.833 53 55.5s29.833 51.334 41.5 83.001s20.834 65.5 27.501 101.5zM511.999 217.999c-7.33301 -40 -13.167 -74.332 -17.5 -102.999s-6.5 -53.667 -6.5 -75c0 -8.66699 0.166992 -15.5 0.5 -20.5s1.16602 -11.167 2.49902 -18.5
c-7.33301 -1.33301 -15.333 -2.33301 -24 -3s-16.667 -1 -24 -1c-6.66699 0 -14 0.333008 -22 1s-15.667 1.66699 -23 3c-1.33301 7.33301 -2.33301 14.833 -3 22.5s-1 17.167 -1 28.5c0 7.33301 0.833008 17.333 2.5 30s3.5 24 5.5 34
c-7.33301 -14.667 -17 -29.5 -29 -44.5s-25.833 -28.667 -41.5 -41s-33.334 -22.5 -53.001 -30.5s-40.834 -12 -63.501 -12c-44 0 -77.167 14.5 -99.5 43.5s-33.5 68.5 -33.5 118.5c0 47.333 7.33301 93.5 22 138.5s36.334 85 65.001 120s64.334 63.167 107.001 84.5
s92.334 32 149.001 32c24 0 48.167 -1.83301 72.5 -5.5s45.833 -8.83398 64.5 -15.501zM332.998 681c0 16 2.66699 31.167 8 45.5s13 27 23 38s22 19.833 36 26.5s29.667 10 47 10c30 0 53.667 -8.83301 71 -26.5s26 -41.834 26 -72.501c0 -16 -2.83301 -31.167 -8.5 -45.5
s-13.667 -26.666 -24 -36.999s-22.5 -18.5 -36.5 -24.5s-29.333 -9 -46 -9c-30 0 -53.5 8.66699 -70.5 26s-25.5 40.333 -25.5 69zM433.998 637c15.333 0 27.5 5.66895 36.5 17.002s13.5 26.666 13.5 45.999c0 15.333 -3.16699 27.5 -9.5 36.5s-16.833 13.5 -31.5 13.5
c-16.667 0 -29.334 -6.33301 -38.001 -19s-13 -27.334 -13 -44.001c0 -15.333 3.33301 -27.5 10 -36.5s17.334 -13.5 32.001 -13.5z" />
    <glyph glyph-name="ae" unicode="&#xe6;" horiz-adv-x="825" 
d="M454 436c-16 4 -34.001 5.99902 -54.001 5.99902c-33.333 0 -63.166 -7.83301 -89.499 -23.5s-49 -36.167 -68 -61.5s-33.5 -54.166 -43.5 -86.499s-15 -65.5 -15 -99.5c0 -32 5.83301 -56.833 17.5 -74.5s28.5 -26.5 50.5 -26.5c21.333 0 41.666 6.66699 60.999 20
s37 31.666 53 54.999s29.833 50.833 41.5 82.5s20.834 65.834 27.501 102.501zM575.999 286.999c34 5.33301 62.167 11.833 84.5 19.5s40 16 53 25s22.167 18.5 27.5 28.5s8 20.667 8 32c0 16 -5.5 29.167 -16.5 39.5s-26.5 15.5 -46.5 15.5c-21.333 0 -41 -4.66699 -59 -14
s-34 -21.833 -48 -37.5s-25.833 -33.667 -35.5 -54s-17.167 -41.5 -22.5 -63.5zM512.999 203.999c0 -40.667 10.332 -73.3301 30.999 -97.9971s53 -37 97 -37c26.667 0 52 3.16699 76 9.5s45.667 13.166 65 20.499c6.66699 -10 11.167 -22 13.5 -36s3.5 -28 3.5 -42
c-10 -4.66699 -22.167 -9 -36.5 -13s-29.333 -7.5 -45 -10.5s-31.5 -5.33301 -47.5 -7s-30.667 -2.5 -44 -2.5c-31.333 0 -58.5 3.33301 -81.5 10s-42.5 16 -58.5 28s-28.667 26.167 -38 42.5s-16.333 34.166 -21 53.499c-26 -42.667 -56 -75.667 -90 -99s-72 -35 -114 -35
c-48 0 -83.5 14.5 -106.5 43.5s-34.5 68.5 -34.5 118.5c0 46.667 7.33301 92.5 22 137.5s36.167 85.167 64.5 120.5s63.666 63.666 105.999 84.999s91.166 32 146.499 32c21.333 0 43 -1.83301 65 -5.5s42.333 -8.5 61 -14.5c-2 -9.33301 -3.83301 -18.833 -5.5 -28.5
s-3.16699 -19.167 -4.5 -28.5c20.667 22 45.334 40.333 74.001 55s61.667 22 99 22c42 0 75.5 -10.833 100.5 -32.5s37.5 -50.5 37.5 -86.5c0 -29.333 -7.16699 -54.833 -21.5 -76.5s-34.166 -40.167 -59.499 -55.5s-55.166 -28 -89.499 -38s-71.833 -18 -112.5 -24z" />
    <glyph glyph-name="ccedilla" unicode="&#xe7;" horiz-adv-x="459" 
d="M250 -8c-56 8 -96.998 29.333 -122.998 64s-39 80.334 -39 137.001c0 40 6.5 79.833 19.5 119.5s32.333 75.334 58 107.001s57 57.167 94 76.5s79.5 29 127.5 29c22 0 43 -2 63 -6s37.333 -8.66699 52 -14c-0.666992 -12.667 -3.33398 -26.5 -8.00098 -41.5
s-10.667 -28.167 -18 -39.5c-13.333 5.33301 -27.833 9.83301 -43.5 13.5s-32.167 5.5 -49.5 5.5c-32.667 0 -61 -7.16699 -85 -21.5s-44 -33 -60 -56s-27.833 -48.833 -35.5 -77.5s-11.5 -57 -11.5 -85c0 -45.333 11.167 -78.833 33.5 -100.5s53.166 -32.5 92.499 -32.5
c17.333 0 34.5 1.5 51.5 4.5s34.5 8.16699 52.5 15.5c5.33301 -9.33301 9.5 -20.5 12.5 -33.5s4.5 -27.833 4.5 -44.5c-18.667 -7.33301 -39.834 -13 -63.501 -17s-45.834 -6.33301 -66.501 -7l-25 -46c2.66699 0.666992 5.5 1.16699 8.5 1.5s6.83301 0.5 11.5 0.5
c28 0 49.5 -7.33301 64.5 -22s22.5 -33.334 22.5 -56.001c0 -20.667 -4 -37.834 -12 -51.501s-18.667 -24.667 -32 -33s-28.5 -14.166 -45.5 -17.499s-34.5 -5 -52.5 -5c-20.667 0 -38.834 2 -54.501 6s-27.167 8.33301 -34.5 13c2 8.66699 4.83301 18.167 8.5 28.5
s8.5 19.166 14.5 26.499c9.33301 -3.33301 20 -6.5 32 -9.5s23.333 -4.5 34 -4.5c6.66699 0 13.834 0.333008 21.501 1s14.834 2.33398 21.501 5.00098s12.167 6.66699 16.5 12s6.5 12.666 6.5 21.999c0 12.667 -5.33301 21.5 -16 26.5s-24.667 7.5 -42 7.5
c-9.33301 0 -18.666 -0.666992 -27.999 -2s-18.333 -3 -27 -5l-5 5z" />
    <glyph glyph-name="egrave" unicode="&#xe8;" horiz-adv-x="498" 
d="M186 204c2 -44.667 13.3291 -78.3311 33.9961 -100.998s52.667 -34 96 -34c26.667 0 52 3.16699 76 9.5s45.667 13.166 65 20.499c6 -10 10.333 -22 13 -36s4 -28 4 -42c-10 -4.66699 -22.167 -9 -36.5 -13s-29.333 -7.5 -45 -10.5s-31.5 -5.33301 -47.5 -7
s-30.667 -2.5 -44 -2.5c-39.333 0 -72.5 5.16699 -99.5 15.5s-49 24.666 -66 42.999s-29.333 40 -37 65s-11.5 52.167 -11.5 81.5c0 40.667 6.83301 80.834 20.5 120.501s33.334 75.167 59.001 106.5s56.334 56.666 92.001 75.999s75.5 29 119.5 29
s78.833 -10.833 104.5 -32.5s38.5 -50.5 38.5 -86.5c0 -29.333 -7.16699 -54.833 -21.5 -76.5s-34.166 -40.167 -59.499 -55.5s-55.166 -28 -89.499 -38s-71.833 -18 -112.5 -24zM248.996 288.003c34 6 62.1689 12.833 84.502 20.5s40.166 16 53.499 25
s22.666 18.5 27.999 28.5s8 21 8 33c0 15.333 -5.33301 27.833 -16 37.5s-26 14.5 -46 14.5c-21.333 0 -41 -4.83301 -59 -14.5s-34.167 -22.334 -48.5 -38.001s-26.5 -33.667 -36.5 -54s-17.667 -41.166 -23 -62.499zM238.998 721.003c10 1.33301 20 2.33301 30 3
s20.667 1 32 1s22.5 -0.333008 33.5 -1s21.5 -1.66699 31.5 -3l92 -127c-15.333 -2.66699 -31.333 -4 -48 -4c-10 0 -19.333 0.333008 -28 1s-16.667 1.66699 -24 3z" />
    <glyph glyph-name="eacute" unicode="&#xe9;" horiz-adv-x="498" 
d="M186 204c2 -44.667 13.3291 -78.3311 33.9961 -100.998s52.667 -34 96 -34c26.667 0 52 3.16699 76 9.5s45.667 13.166 65 20.499c6 -10 10.333 -22 13 -36s4 -28 4 -42c-10 -4.66699 -22.167 -9 -36.5 -13s-29.333 -7.5 -45 -10.5s-31.5 -5.33301 -47.5 -7
s-30.667 -2.5 -44 -2.5c-39.333 0 -72.5 5.16699 -99.5 15.5s-49 24.666 -66 42.999s-29.333 40 -37 65s-11.5 52.167 -11.5 81.5c0 40.667 6.83301 80.834 20.5 120.501s33.334 75.167 59.001 106.5s56.334 56.666 92.001 75.999s75.5 29 119.5 29
s78.833 -10.833 104.5 -32.5s38.5 -50.5 38.5 -86.5c0 -29.333 -7.16699 -54.833 -21.5 -76.5s-34.166 -40.167 -59.499 -55.5s-55.166 -28 -89.499 -38s-71.833 -18 -112.5 -24zM248.996 288.003c34 6 62.1689 12.833 84.502 20.5s40.166 16 53.499 25
s22.666 18.5 27.999 28.5s8 21 8 33c0 15.333 -5.33301 27.833 -16 37.5s-26 14.5 -46 14.5c-21.333 0 -41 -4.83301 -59 -14.5s-34.167 -22.334 -48.5 -38.001s-26.5 -33.667 -36.5 -54s-17.667 -41.166 -23 -62.499zM396.998 721.003c10.667 1.33301 21.333 2.33301 32 3
s21.667 1 33 1s22 -0.333008 32 -1s20 -1.66699 30 -3l-124 -127c-7.33301 -1.33301 -15.5 -2.33301 -24.5 -3s-18.5 -1 -28.5 -1c-7.33301 0 -15 0.333008 -23 1s-16 1.66699 -24 3z" />
    <glyph glyph-name="ecircumflex" unicode="&#xea;" horiz-adv-x="498" 
d="M186 204c2 -44.667 13.3291 -78.3311 33.9961 -100.998s52.667 -34 96 -34c26.667 0 52 3.16699 76 9.5s45.667 13.166 65 20.499c6 -10 10.333 -22 13 -36s4 -28 4 -42c-10 -4.66699 -22.167 -9 -36.5 -13s-29.333 -7.5 -45 -10.5s-31.5 -5.33301 -47.5 -7
s-30.667 -2.5 -44 -2.5c-39.333 0 -72.5 5.16699 -99.5 15.5s-49 24.666 -66 42.999s-29.333 40 -37 65s-11.5 52.167 -11.5 81.5c0 40.667 6.83301 80.834 20.5 120.501s33.334 75.167 59.001 106.5s56.334 56.666 92.001 75.999s75.5 29 119.5 29
s78.833 -10.833 104.5 -32.5s38.5 -50.5 38.5 -86.5c0 -29.333 -7.16699 -54.833 -21.5 -76.5s-34.166 -40.167 -59.499 -55.5s-55.166 -28 -89.499 -38s-71.833 -18 -112.5 -24zM248.996 288.003c34 6 62.1689 12.833 84.502 20.5s40.166 16 53.499 25
s22.666 18.5 27.999 28.5s8 21 8 33c0 15.333 -5.33301 27.833 -16 37.5s-26 14.5 -46 14.5c-21.333 0 -41 -4.83301 -59 -14.5s-34.167 -22.334 -48.5 -38.001s-26.5 -33.667 -36.5 -54s-17.667 -41.166 -23 -62.499zM330.998 721.003c8 1.33301 17.501 2.33301 28.501 3
s21.167 1 30.5 1c7.33301 0 16.666 -0.333008 27.999 -1s21.333 -2 30 -4l74 -126c-6 -1.33301 -12.833 -2.33301 -20.5 -3s-15.834 -1 -24.501 -1c-8 0 -16.667 0.333008 -26 1s-18 1.66699 -26 3l-41 79l-70 -79c-8 -1.33301 -17.167 -2.33301 -27.5 -3s-19.5 -1 -27.5 -1
c-9.33301 0 -18.666 0.333008 -27.999 1s-17.333 1.66699 -24 3z" />
    <glyph glyph-name="edieresis" unicode="&#xeb;" horiz-adv-x="498" 
d="M186 204c2 -44.667 13.3291 -78.3311 33.9961 -100.998s52.667 -34 96 -34c26.667 0 52 3.16699 76 9.5s45.667 13.166 65 20.499c6 -10 10.333 -22 13 -36s4 -28 4 -42c-10 -4.66699 -22.167 -9 -36.5 -13s-29.333 -7.5 -45 -10.5s-31.5 -5.33301 -47.5 -7
s-30.667 -2.5 -44 -2.5c-39.333 0 -72.5 5.16699 -99.5 15.5s-49 24.666 -66 42.999s-29.333 40 -37 65s-11.5 52.167 -11.5 81.5c0 40.667 6.83301 80.834 20.5 120.501s33.334 75.167 59.001 106.5s56.334 56.666 92.001 75.999s75.5 29 119.5 29
s78.833 -10.833 104.5 -32.5s38.5 -50.5 38.5 -86.5c0 -29.333 -7.16699 -54.833 -21.5 -76.5s-34.166 -40.167 -59.499 -55.5s-55.166 -28 -89.499 -38s-71.833 -18 -112.5 -24zM248.996 288.003c34 6 62.1689 12.833 84.502 20.5s40.166 16 53.499 25
s22.666 18.5 27.999 28.5s8 21 8 33c0 15.333 -5.33301 27.833 -16 37.5s-26 14.5 -46 14.5c-21.333 0 -41 -4.83301 -59 -14.5s-34.167 -22.334 -48.5 -38.001s-26.5 -33.667 -36.5 -54s-17.667 -41.166 -23 -62.499zM208.998 604.003
c0.666992 17.333 2.33398 34.167 5.00098 50.5s7 32.833 13 49.5c8.66699 1.33301 17.5 2.33301 26.5 3s17.167 1 24.5 1s15.666 -0.333008 24.999 -1s18 -1.66699 26 -3c-0.666992 -17.333 -2.33398 -34.166 -5.00098 -50.499s-7 -32.833 -13 -49.5
c-17.333 -2 -34.333 -3 -51 -3c-7.33301 0 -15.666 0.166992 -24.999 0.5s-18 1.16602 -26 2.49902zM412.998 604.004c0.666992 17.333 2.16699 34.168 4.5 50.501s6.83301 32.833 13.5 49.5c8 1.33301 16.5 2.33301 25.5 3s17.5 1 25.5 1
c7.33301 0 15.666 -0.333008 24.999 -1s18 -1.66699 26 -3c-1.33301 -17.333 -3.33301 -34 -6 -50s-6.66699 -32.667 -12 -50c-17.333 -2 -34.333 -3 -51 -3c-7.33301 0 -15.666 0.166992 -24.999 0.5s-18 1.16602 -26 2.49902z" />
    <glyph glyph-name="igrave" unicode="&#xec;" horiz-adv-x="285" 
d="M105 721c10 1.33301 20 2.33301 30 3s20.667 1 32 1s22.5 -0.333008 33.5 -1s21.5 -1.66699 31.5 -3l92 -127c-15.333 -2.66699 -31.333 -4 -48 -4c-10 0 -19.333 0.333008 -28 1s-16.667 1.66699 -24 3zM180 434h-62c0 13.333 0.833008 26.333 2.5 39
s5.16699 26 10.5 40h160l-90 -513c-7.33301 -1.33301 -15.833 -2.16602 -25.5 -2.49902s-18.167 -0.5 -25.5 -0.5s-15 0.166992 -23 0.5s-15.667 1.16602 -23 2.49902z" />
    <glyph glyph-name="iacute" unicode="&#xed;" horiz-adv-x="285" 
d="M250 721c10.667 1.33301 21.333 2.33301 32 3s21.667 1 33 1s22 -0.333008 32 -1s20 -1.66699 30 -3l-124 -127c-7.33301 -1.33301 -15.5 -2.33301 -24.5 -3s-18.5 -1 -28.5 -1c-7.33301 0 -15 0.333008 -23 1s-16 1.66699 -24 3zM179.999 434h-62
c0 13.333 0.833008 26.333 2.5 39s5.16699 26 10.5 40h160l-90 -513c-7.33301 -1.33301 -15.833 -2.16602 -25.5 -2.49902s-18.167 -0.5 -25.5 -0.5s-15 0.166992 -23 0.5s-15.667 1.16602 -23 2.49902z" />
    <glyph glyph-name="icircumflex" unicode="&#xee;" horiz-adv-x="285" 
d="M180 434h-62c0 13.333 0.833008 26.333 2.5 39s5.16699 26 10.5 40h160l-90 -513c-7.33301 -1.33301 -15.833 -2.16602 -25.5 -2.49902s-18.167 -0.5 -25.5 -0.5s-15 0.166992 -23 0.5s-15.667 1.16602 -23 2.49902zM195 721c8 1.33301 17.501 2.33301 28.501 3
s21.167 1 30.5 1c7.33301 0 16.666 -0.333008 27.999 -1s21.333 -2 30 -4l74 -126c-6 -1.33301 -12.833 -2.33301 -20.5 -3s-15.834 -1 -24.501 -1c-8 0 -16.667 0.333008 -26 1s-18 1.66699 -26 3l-41 79l-70 -79c-8 -1.33301 -17.167 -2.33301 -27.5 -3s-19.5 -1 -27.5 -1
c-9.33301 0 -18.666 0.333008 -27.999 1s-17.333 1.66699 -24 3z" />
    <glyph glyph-name="idieresis" unicode="&#xef;" horiz-adv-x="285" 
d="M77 604c0.666992 17.333 2.33398 34.167 5.00098 50.5s7 32.833 13 49.5c8.66699 1.33301 17.5 2.33301 26.5 3s17.167 1 24.5 1s15.666 -0.333008 24.999 -1s18 -1.66699 26 -3c-0.666992 -17.333 -2.33398 -34.166 -5.00098 -50.499s-7 -32.833 -13 -49.5
c-17.333 -2 -34.333 -3 -51 -3c-7.33301 0 -15.666 0.166992 -24.999 0.5s-18 1.16602 -26 2.49902zM281 604.001c0.666992 17.333 2.16699 34.168 4.5 50.501s6.83301 32.833 13.5 49.5c8 1.33301 16.5 2.33301 25.5 3s17.5 1 25.5 1c7.33301 0 15.666 -0.333008 24.999 -1
s18 -1.66699 26 -3c-1.33301 -17.333 -3.33301 -34 -6 -50s-6.66699 -32.667 -12 -50c-17.333 -2 -34.333 -3 -51 -3c-7.33301 0 -15.666 0.166992 -24.999 0.5s-18 1.16602 -26 2.49902zM180 434.003h-62c0 13.333 0.833008 26.333 2.5 39s5.16699 26 10.5 40h160l-90 -513
c-7.33301 -1.33301 -15.833 -2.16602 -25.5 -2.49902s-18.167 -0.5 -25.5 -0.5s-15 0.166992 -23 0.5s-15.667 1.16602 -23 2.49902z" />
    <glyph glyph-name="eth" unicode="&#xf0;" horiz-adv-x="565" 
d="M367 629c-29.333 16.667 -62.335 26 -99.002 28c0 11.333 1.5 23.666 4.5 36.999s8.83301 27.666 17.5 42.999c34 -2 65.167 -7.83301 93.5 -17.5s52.166 -22.167 71.499 -37.5l100 55c7.33301 -6.66699 13.666 -14.834 18.999 -24.501s9 -19.5 11 -29.5l-83 -46
c24 -30 41.667 -66.667 53 -110s17 -89.666 17 -138.999c0 -46 -5 -92.667 -15 -140s-26.5 -90.166 -49.5 -128.499s-53.333 -69.833 -91 -94.5s-83.834 -37 -138.501 -37c-33.333 0 -62.166 5 -86.499 15s-44.166 23.833 -59.499 41.5s-26.666 38.667 -33.999 63
s-11 50.5 -11 78.5c0 36 5.33301 72 16 108s26.5 68.167 47.5 96.5s47.333 51.5 79 69.5s68.5 27 110.5 27c30 0 56.833 -6.16699 80.5 -18.5s42.167 -28.166 55.5 -47.499c-1.33301 35.333 -7 67 -17 95s-23.667 51.667 -41 71l-103 -58
c-7.33301 6.66699 -13.666 15 -18.999 25s-8.66602 19.667 -9.99902 29zM289.998 66c26.667 0 50.1699 6.49805 70.5029 19.498s37.5 29.5 51.5 49.5s24.667 42.333 32 67s11 49 11 73c0 42.667 -9 75.834 -27 99.501s-46 35.5 -84 35.5c-28 0 -51.833 -7.16699 -71.5 -21.5
s-35.834 -32.5 -48.501 -54.5s-21.834 -46 -27.501 -72s-8.5 -50.333 -8.5 -73c0 -37.333 7.66699 -67.166 23 -89.499s41.666 -33.5 78.999 -33.5z" />
    <glyph glyph-name="ntilde" unicode="&#xf1;" horiz-adv-x="575" 
d="M142 297c7.33301 40 13.1611 74.3311 17.4941 102.998s6.5 53.667 6.5 75c0 8.66699 -0.166992 15.5 -0.5 20.5s-1.16602 11.167 -2.49902 18.5c7.33301 1.33301 15.333 2.33301 24 3s16.667 1 24 1c6.66699 0 14.167 -0.333008 22.5 -1s15.833 -1.66699 22.5 -3
c1.33301 -5.33301 2.33301 -11.5 3 -18.5s1 -16.167 1 -27.5c0 -12.667 -0.833008 -24.667 -2.5 -36s-3.5 -22.333 -5.5 -33c6.66699 14 16 28.5 28 43.5s26 28.5 42 40.5s33.833 22 53.5 30s40.5 12 62.5 12c40 0 71.167 -10.667 93.5 -32s33.5 -54.333 33.5 -99
c0 -10 -0.666992 -21.167 -2 -33.5s-3 -24.166 -5 -35.499l-57 -325c-8 -1.33301 -16.667 -2.33301 -26 -3s-17.666 -1 -24.999 -1s-15.5 0.333008 -24.5 1s-16.833 1.66699 -23.5 3l54 308c2 10.667 3.5 21 4.5 31s1.5 18.667 1.5 26c0 26.667 -6.16699 45.667 -18.5 57
s-28.833 17 -49.5 17c-18 0 -35.667 -5.5 -53 -16.5s-33.666 -27.167 -48.999 -48.5s-29.166 -47.666 -41.499 -78.999s-22.166 -67.333 -29.499 -108l-33 -187c-8 -1.33301 -16.667 -2.33301 -26 -3s-17.666 -1 -24.999 -1s-15.5 0.333008 -24.5 1s-16.833 1.66699 -23.5 3
zM221.995 659.998c12.667 13.333 27.835 24.999 45.502 34.999s37.167 15 58.5 15c14 0 26.667 -1.83301 38 -5.5s22.333 -7.66699 33 -12s21.5 -8.33301 32.5 -12s23.167 -5.5 36.5 -5.5c11.333 0 21.666 1.66699 30.999 5s20.666 10.666 33.999 21.999
c5.33301 -6.66699 11 -15.167 17 -25.5s9.66699 -20.5 11 -30.5c-12.667 -12 -28 -23 -46 -33s-37.667 -15 -59 -15c-14 0 -26.667 1.83301 -38 5.5s-22.333 7.83398 -33 12.501s-21.5 8.83398 -32.5 12.501s-22.5 5.5 -34.5 5.5c-12.667 0 -23.5 -2.16699 -32.5 -6.5
s-19.833 -11.5 -32.5 -21.5c-6 6.66699 -12 15 -18 25s-9.66699 19.667 -11 29z" />
    <glyph glyph-name="ograve" unicode="&#xf2;" horiz-adv-x="557" 
d="M276 -12c-62 0 -108.67 17.168 -140.003 51.501s-47 82.833 -47 145.5c0 36.667 5.66699 75.167 17 115.5s28.833 77 52.5 110s53.334 60.333 89.001 82s77.834 32.5 126.501 32.5c62.667 0 109.667 -17.333 141 -52s47 -83.334 47 -146.001
c0 -37.333 -5.66699 -76 -17 -116s-28.666 -76.5 -51.999 -109.5s-53 -60.167 -89 -81.5s-78.667 -32 -128 -32zM285.997 67.001c31.333 0 58.168 8.5 80.501 25.5s40.5 38.5 54.5 64.5s24.333 54.167 31 84.5s10 58.833 10 85.5c0 38 -8.5 67 -25.5 87s-41.167 30 -72.5 30
s-58 -8.66699 -80 -26s-40 -39 -54 -65s-24.167 -54.167 -30.5 -84.5s-9.5 -58.5 -9.5 -84.5c0 -38 8.16699 -67 24.5 -87s40.166 -30 71.499 -30zM274.999 721.001c10 1.33301 20 2.33301 30 3s20.667 1 32 1s22.5 -0.333008 33.5 -1s21.5 -1.66699 31.5 -3l92 -127
c-15.333 -2.66699 -31.333 -4 -48 -4c-10 0 -19.333 0.333008 -28 1s-16.667 1.66699 -24 3z" />
    <glyph glyph-name="oacute" unicode="&#xf3;" horiz-adv-x="557" 
d="M276 -12c-62 0 -108.67 17.168 -140.003 51.501s-47 82.833 -47 145.5c0 36.667 5.66699 75.167 17 115.5s28.833 77 52.5 110s53.334 60.333 89.001 82s77.834 32.5 126.501 32.5c62.667 0 109.667 -17.333 141 -52s47 -83.334 47 -146.001
c0 -37.333 -5.66699 -76 -17 -116s-28.666 -76.5 -51.999 -109.5s-53 -60.167 -89 -81.5s-78.667 -32 -128 -32zM285.997 67.001c31.333 0 58.168 8.5 80.501 25.5s40.5 38.5 54.5 64.5s24.333 54.167 31 84.5s10 58.833 10 85.5c0 38 -8.5 67 -25.5 87s-41.167 30 -72.5 30
s-58 -8.66699 -80 -26s-40 -39 -54 -65s-24.167 -54.167 -30.5 -84.5s-9.5 -58.5 -9.5 -84.5c0 -38 8.16699 -67 24.5 -87s40.166 -30 71.499 -30zM401.999 721.001c10.667 1.33301 21.333 2.33301 32 3s21.667 1 33 1s22 -0.333008 32 -1s20 -1.66699 30 -3l-124 -127
c-7.33301 -1.33301 -15.5 -2.33301 -24.5 -3s-18.5 -1 -28.5 -1c-7.33301 0 -15 0.333008 -23 1s-16 1.66699 -24 3z" />
    <glyph glyph-name="ocircumflex" unicode="&#xf4;" horiz-adv-x="557" 
d="M276 -12c-62 0 -108.67 17.168 -140.003 51.501s-47 82.833 -47 145.5c0 36.667 5.66699 75.167 17 115.5s28.833 77 52.5 110s53.334 60.333 89.001 82s77.834 32.5 126.501 32.5c62.667 0 109.667 -17.333 141 -52s47 -83.334 47 -146.001
c0 -37.333 -5.66699 -76 -17 -116s-28.666 -76.5 -51.999 -109.5s-53 -60.167 -89 -81.5s-78.667 -32 -128 -32zM285.997 67.001c31.333 0 58.168 8.5 80.501 25.5s40.5 38.5 54.5 64.5s24.333 54.167 31 84.5s10 58.833 10 85.5c0 38 -8.5 67 -25.5 87s-41.167 30 -72.5 30
s-58 -8.66699 -80 -26s-40 -39 -54 -65s-24.167 -54.167 -30.5 -84.5s-9.5 -58.5 -9.5 -84.5c0 -38 8.16699 -67 24.5 -87s40.166 -30 71.499 -30zM347.999 721.001c8 1.33301 17.501 2.33301 28.501 3s21.167 1 30.5 1c7.33301 0 16.666 -0.333008 27.999 -1
s21.333 -2 30 -4l74 -126c-6 -1.33301 -12.833 -2.33301 -20.5 -3s-15.834 -1 -24.501 -1c-8 0 -16.667 0.333008 -26 1s-18 1.66699 -26 3l-41 79l-70 -79c-8 -1.33301 -17.167 -2.33301 -27.5 -3s-19.5 -1 -27.5 -1c-9.33301 0 -18.666 0.333008 -27.999 1
s-17.333 1.66699 -24 3z" />
    <glyph glyph-name="otilde" unicode="&#xf5;" horiz-adv-x="557" 
d="M276 -12c-62 0 -108.67 17.168 -140.003 51.501s-47 82.833 -47 145.5c0 36.667 5.66699 75.167 17 115.5s28.833 77 52.5 110s53.334 60.333 89.001 82s77.834 32.5 126.501 32.5c62.667 0 109.667 -17.333 141 -52s47 -83.334 47 -146.001
c0 -37.333 -5.66699 -76 -17 -116s-28.666 -76.5 -51.999 -109.5s-53 -60.167 -89 -81.5s-78.667 -32 -128 -32zM285.997 67.001c31.333 0 58.168 8.5 80.501 25.5s40.5 38.5 54.5 64.5s24.333 54.167 31 84.5s10 58.833 10 85.5c0 38 -8.5 67 -25.5 87s-41.167 30 -72.5 30
s-58 -8.66699 -80 -26s-40 -39 -54 -65s-24.167 -54.167 -30.5 -84.5s-9.5 -58.5 -9.5 -84.5c0 -38 8.16699 -67 24.5 -87s40.166 -30 71.499 -30zM214.999 660.001c12.667 13.333 27.835 24.999 45.502 34.999s37.167 15 58.5 15c14 0 26.667 -1.83301 38 -5.5
s22.333 -7.66699 33 -12s21.5 -8.33301 32.5 -12s23.167 -5.5 36.5 -5.5c11.333 0 21.666 1.66699 30.999 5s20.666 10.666 33.999 21.999c5.33301 -6.66699 11 -15.167 17 -25.5s9.66699 -20.5 11 -30.5c-12.667 -12 -28 -23 -46 -33s-37.667 -15 -59 -15
c-14 0 -26.667 1.83301 -38 5.5s-22.333 7.83398 -33 12.501s-21.5 8.83398 -32.5 12.501s-22.5 5.5 -34.5 5.5c-12.667 0 -23.5 -2.16699 -32.5 -6.5s-19.833 -11.5 -32.5 -21.5c-6 6.66699 -12 15 -18 25s-9.66699 19.667 -11 29z" />
    <glyph glyph-name="odieresis" unicode="&#xf6;" horiz-adv-x="557" 
d="M276 -12c-62 0 -108.67 17.168 -140.003 51.501s-47 82.833 -47 145.5c0 36.667 5.66699 75.167 17 115.5s28.833 77 52.5 110s53.334 60.333 89.001 82s77.834 32.5 126.501 32.5c62.667 0 109.667 -17.333 141 -52s47 -83.334 47 -146.001
c0 -37.333 -5.66699 -76 -17 -116s-28.666 -76.5 -51.999 -109.5s-53 -60.167 -89 -81.5s-78.667 -32 -128 -32zM285.997 67.001c31.333 0 58.168 8.5 80.501 25.5s40.5 38.5 54.5 64.5s24.333 54.167 31 84.5s10 58.833 10 85.5c0 38 -8.5 67 -25.5 87s-41.167 30 -72.5 30
s-58 -8.66699 -80 -26s-40 -39 -54 -65s-24.167 -54.167 -30.5 -84.5s-9.5 -58.5 -9.5 -84.5c0 -38 8.16699 -67 24.5 -87s40.166 -30 71.499 -30zM231.999 604.001c0.666992 17.333 2.33398 34.167 5.00098 50.5s7 32.833 13 49.5c8.66699 1.33301 17.5 2.33301 26.5 3
s17.167 1 24.5 1s15.666 -0.333008 24.999 -1s18 -1.66699 26 -3c-0.666992 -17.333 -2.33398 -34.166 -5.00098 -50.499s-7 -32.833 -13 -49.5c-17.333 -2 -34.333 -3 -51 -3c-7.33301 0 -15.666 0.166992 -24.999 0.5s-18 1.16602 -26 2.49902zM435.999 604.002
c0.666992 17.333 2.16699 34.168 4.5 50.501s6.83301 32.833 13.5 49.5c8 1.33301 16.5 2.33301 25.5 3s17.5 1 25.5 1c7.33301 0 15.666 -0.333008 24.999 -1s18 -1.66699 26 -3c-1.33301 -17.333 -3.33301 -34 -6 -50s-6.66699 -32.667 -12 -50
c-17.333 -2 -34.333 -3 -51 -3c-7.33301 0 -15.666 0.166992 -24.999 0.5s-18 1.16602 -26 2.49902z" />
    <glyph glyph-name="divide" unicode="&#xf7;" horiz-adv-x="600" 
d="M267 166c0 21.333 7.5 39.333 22.5 54s33.167 22 54.5 22c19.333 0 34.5 -5.5 45.5 -16.5s16.5 -26.5 16.5 -46.5c0 -19.333 -7.16699 -36.5 -21.5 -51.5s-32.833 -22.5 -55.5 -22.5c-20 0 -35.333 6.16699 -46 18.5s-16 26.5 -16 42.5zM327 528
c0 21.333 7.5 39.332 22.5 53.999s33.167 22 54.5 22c19.333 0 34.5 -5.5 45.5 -16.5s16.5 -26.5 16.5 -46.5c0 -19.333 -7.16699 -36.666 -21.5 -51.999s-32.833 -23 -55.5 -23c-20 0 -35.333 6.33301 -46 19s-16 27 -16 43zM591 397.999
c0 -14.667 -1.33301 -30.168 -4 -46.501s-6.66699 -31.166 -12 -44.499h-423c0 14.667 1.5 30 4.5 46s6.83301 31 11.5 45h423z" />
    <glyph glyph-name="oslash" unicode="&#xf8;" horiz-adv-x="557" 
d="M124 53c-24 32.667 -35.9971 76.667 -35.9971 132c0 36.667 5.83301 75 17.5 115s29.167 76.667 52.5 110s53 60.833 89 82.5s78.333 32.5 127 32.5c43.333 0 80.333 -9.66699 111 -29l27 34c8 2 19.333 3 34 3s27 -1 37 -3l-58 -71c24.667 -34 37 -78.333 37 -133
c0 -37.333 -5.66699 -75.833 -17 -115.5s-28.833 -76 -52.5 -109s-53.5 -60.167 -89.5 -81.5s-78.333 -32 -127 -32c-22.667 0 -43.334 2.5 -62.001 7.5s-35.334 11.833 -50.001 20.5l-11 -16c-3.33301 -4.66699 -7.16602 -8.66699 -11.499 -12s-9.83301 -6 -16.5 -8
s-15.334 -3 -26.001 -3c-14.667 0 -26.334 1 -35.001 3zM223.003 88c16 -14 36.668 -21 62.001 -21c31.333 0 58.166 8.5 80.499 25.5s40.5 38.5 54.5 64.5s24.333 54.167 31 84.5s10 58.5 10 84.5c0 8.66699 -0.666992 16.667 -2 24s-3 14 -5 20zM425.004 423
c-16 14 -36.667 21 -62 21c-31.333 0 -58 -8.66699 -80 -26s-40 -39 -54 -65s-24.167 -54.333 -30.5 -85s-9.5 -59 -9.5 -85c0 -14 1.66699 -28.333 5 -43z" />
    <glyph glyph-name="ugrave" unicode="&#xf9;" horiz-adv-x="568" 
d="M166 513c7.33301 1.33301 15.834 2.33496 25.501 3.00195s18.167 1 25.5 1s15.333 -0.333008 24 -1s16.667 -1.66699 24 -3l-54 -308c-4 -21.333 -6 -40.333 -6 -57c0 -26.667 6.16699 -45.667 18.5 -57s28.833 -17 49.5 -17c18 0 35.667 5.5 53 16.5
s33.666 27.167 48.999 48.5s29.166 47.666 41.499 78.999s22.166 67.333 29.499 108l33 187c8 1.33301 16.667 2.33301 26 3s17.666 1 24.999 1s15.5 -0.333008 24.5 -1s16.833 -1.66699 23.5 -3l-53 -297c-7.33301 -40 -13.166 -74.333 -17.499 -103s-6.5 -53.667 -6.5 -75
c0 -8.66699 0.166992 -15.5 0.5 -20.5s0.833008 -11.167 1.5 -18.5c-7.33301 -1.33301 -15.166 -2.33301 -23.499 -3s-16.166 -1 -23.499 -1c-6.66699 0 -14.167 0.333008 -22.5 1s-15.833 1.66699 -22.5 3c-2.66699 8.66699 -4 24 -4 46c0 12.667 0.833008 24.667 2.5 36
s3.5 22.333 5.5 33c-6.66699 -14 -16 -28.5 -28 -43.5s-26 -28.5 -42 -40.5s-33.833 -22 -53.5 -30s-40.5 -12 -62.5 -12c-40 0 -71.167 10.667 -93.5 32s-33.5 54.333 -33.5 99c0 10 0.666992 21.167 2 33.5s3 24.166 5 35.499zM239.001 721.002
c10 1.33301 20 2.33301 30 3s20.667 1 32 1s22.5 -0.333008 33.5 -1s21.5 -1.66699 31.5 -3l92 -127c-15.333 -2.66699 -31.333 -4 -48 -4c-10 0 -19.333 0.333008 -28 1s-16.667 1.66699 -24 3z" />
    <glyph glyph-name="uacute" unicode="&#xfa;" horiz-adv-x="568" 
d="M166 513c7.33301 1.33301 15.834 2.33496 25.501 3.00195s18.167 1 25.5 1s15.333 -0.333008 24 -1s16.667 -1.66699 24 -3l-54 -308c-4 -21.333 -6 -40.333 -6 -57c0 -26.667 6.16699 -45.667 18.5 -57s28.833 -17 49.5 -17c18 0 35.667 5.5 53 16.5
s33.666 27.167 48.999 48.5s29.166 47.666 41.499 78.999s22.166 67.333 29.499 108l33 187c8 1.33301 16.667 2.33301 26 3s17.666 1 24.999 1s15.5 -0.333008 24.5 -1s16.833 -1.66699 23.5 -3l-53 -297c-7.33301 -40 -13.166 -74.333 -17.499 -103s-6.5 -53.667 -6.5 -75
c0 -8.66699 0.166992 -15.5 0.5 -20.5s0.833008 -11.167 1.5 -18.5c-7.33301 -1.33301 -15.166 -2.33301 -23.499 -3s-16.166 -1 -23.499 -1c-6.66699 0 -14.167 0.333008 -22.5 1s-15.833 1.66699 -22.5 3c-2.66699 8.66699 -4 24 -4 46c0 12.667 0.833008 24.667 2.5 36
s3.5 22.333 5.5 33c-6.66699 -14 -16 -28.5 -28 -43.5s-26 -28.5 -42 -40.5s-33.833 -22 -53.5 -30s-40.5 -12 -62.5 -12c-40 0 -71.167 10.667 -93.5 32s-33.5 54.333 -33.5 99c0 10 0.666992 21.167 2 33.5s3 24.166 5 35.499zM422.001 721.002
c10.667 1.33301 21.333 2.33301 32 3s21.667 1 33 1s22 -0.333008 32 -1s20 -1.66699 30 -3l-124 -127c-7.33301 -1.33301 -15.5 -2.33301 -24.5 -3s-18.5 -1 -28.5 -1c-7.33301 0 -15 0.333008 -23 1s-16 1.66699 -24 3z" />
    <glyph glyph-name="ucircumflex" unicode="&#xfb;" horiz-adv-x="568" 
d="M166 513c7.33301 1.33301 15.834 2.33496 25.501 3.00195s18.167 1 25.5 1s15.333 -0.333008 24 -1s16.667 -1.66699 24 -3l-54 -308c-4 -21.333 -6 -40.333 -6 -57c0 -26.667 6.16699 -45.667 18.5 -57s28.833 -17 49.5 -17c18 0 35.667 5.5 53 16.5
s33.666 27.167 48.999 48.5s29.166 47.666 41.499 78.999s22.166 67.333 29.499 108l33 187c8 1.33301 16.667 2.33301 26 3s17.666 1 24.999 1s15.5 -0.333008 24.5 -1s16.833 -1.66699 23.5 -3l-53 -297c-7.33301 -40 -13.166 -74.333 -17.499 -103s-6.5 -53.667 -6.5 -75
c0 -8.66699 0.166992 -15.5 0.5 -20.5s0.833008 -11.167 1.5 -18.5c-7.33301 -1.33301 -15.166 -2.33301 -23.499 -3s-16.166 -1 -23.499 -1c-6.66699 0 -14.167 0.333008 -22.5 1s-15.833 1.66699 -22.5 3c-2.66699 8.66699 -4 24 -4 46c0 12.667 0.833008 24.667 2.5 36
s3.5 22.333 5.5 33c-6.66699 -14 -16 -28.5 -28 -43.5s-26 -28.5 -42 -40.5s-33.833 -22 -53.5 -30s-40.5 -12 -62.5 -12c-40 0 -71.167 10.667 -93.5 32s-33.5 54.333 -33.5 99c0 10 0.666992 21.167 2 33.5s3 24.166 5 35.499zM346.001 721.002
c8 1.33301 17.501 2.33301 28.501 3s21.167 1 30.5 1c7.33301 0 16.666 -0.333008 27.999 -1s21.333 -2 30 -4l74 -126c-6 -1.33301 -12.833 -2.33301 -20.5 -3s-15.834 -1 -24.501 -1c-8 0 -16.667 0.333008 -26 1s-18 1.66699 -26 3l-41 79l-70 -79
c-8 -1.33301 -17.167 -2.33301 -27.5 -3s-19.5 -1 -27.5 -1c-9.33301 0 -18.666 0.333008 -27.999 1s-17.333 1.66699 -24 3z" />
    <glyph glyph-name="udieresis" unicode="&#xfc;" horiz-adv-x="568" 
d="M166 513c7.33301 1.33301 15.834 2.33496 25.501 3.00195s18.167 1 25.5 1s15.333 -0.333008 24 -1s16.667 -1.66699 24 -3l-54 -308c-4 -21.333 -6 -40.333 -6 -57c0 -26.667 6.16699 -45.667 18.5 -57s28.833 -17 49.5 -17c18 0 35.667 5.5 53 16.5
s33.666 27.167 48.999 48.5s29.166 47.666 41.499 78.999s22.166 67.333 29.499 108l33 187c8 1.33301 16.667 2.33301 26 3s17.666 1 24.999 1s15.5 -0.333008 24.5 -1s16.833 -1.66699 23.5 -3l-53 -297c-7.33301 -40 -13.166 -74.333 -17.499 -103s-6.5 -53.667 -6.5 -75
c0 -8.66699 0.166992 -15.5 0.5 -20.5s0.833008 -11.167 1.5 -18.5c-7.33301 -1.33301 -15.166 -2.33301 -23.499 -3s-16.166 -1 -23.499 -1c-6.66699 0 -14.167 0.333008 -22.5 1s-15.833 1.66699 -22.5 3c-2.66699 8.66699 -4 24 -4 46c0 12.667 0.833008 24.667 2.5 36
s3.5 22.333 5.5 33c-6.66699 -14 -16 -28.5 -28 -43.5s-26 -28.5 -42 -40.5s-33.833 -22 -53.5 -30s-40.5 -12 -62.5 -12c-40 0 -71.167 10.667 -93.5 32s-33.5 54.333 -33.5 99c0 10 0.666992 21.167 2 33.5s3 24.166 5 35.499zM232.001 604.002
c0.666992 17.333 2.33398 34.167 5.00098 50.5s7 32.833 13 49.5c8.66699 1.33301 17.5 2.33301 26.5 3s17.167 1 24.5 1s15.666 -0.333008 24.999 -1s18 -1.66699 26 -3c-0.666992 -17.333 -2.33398 -34.166 -5.00098 -50.499s-7 -32.833 -13 -49.5
c-17.333 -2 -34.333 -3 -51 -3c-7.33301 0 -15.666 0.166992 -24.999 0.5s-18 1.16602 -26 2.49902zM436.001 604.003c0.666992 17.333 2.16699 34.168 4.5 50.501s6.83301 32.833 13.5 49.5c8 1.33301 16.5 2.33301 25.5 3s17.5 1 25.5 1
c7.33301 0 15.666 -0.333008 24.999 -1s18 -1.66699 26 -3c-1.33301 -17.333 -3.33301 -34 -6 -50s-6.66699 -32.667 -12 -50c-17.333 -2 -34.333 -3 -51 -3c-7.33301 0 -15.666 0.166992 -24.999 0.5s-18 1.16602 -26 2.49902z" />
    <glyph glyph-name="yacute" unicode="&#xfd;" horiz-adv-x="500" 
d="M260 50l56.999 126.002l45.5 105l37 88l30.5 76c4 10.667 7 21 9 31s3 17.667 3 23c0 3.33301 -0.166992 6 -0.5 8s-0.5 4 -0.5 6c12.667 2 26.667 3 42 3h63c0.666992 -2.66699 1 -5.33398 1 -8.00098v-8c0 -16 -3.33301 -33.333 -10 -52s-14 -37.334 -22 -56.001
l-96.5 -207.5l-115.5 -244.5c-18.667 -39.333 -36.667 -71 -54 -95s-34.5 -42.667 -51.5 -56s-34.167 -22.333 -51.5 -27s-36 -7 -56 -7c-23.333 0 -46 3.33301 -68 10c0.666992 14.667 2.66699 28.667 6 42s8.66602 25 15.999 35c6 -2 13.333 -3.83301 22 -5.5
s16.667 -2.5 24 -2.5c10 0 20.333 1.5 31 4.5s21.834 10.167 33.501 21.5s24.167 28 37.5 50s28 52 44 90c-5.33301 -0.666992 -11 -1 -17 -1h-18h-15c-5.33301 0 -10 0.333008 -14 1l-33.5 256l-33.5 257c9.33301 1.33301 17.833 2.33301 25.5 3s16.167 1 25.5 1
s18.333 -0.333008 27 -1s17.334 -1.66699 26.001 -3zM365.999 721.002c10.667 1.33301 21.333 2.33301 32 3s21.667 1 33 1s22 -0.333008 32 -1s20 -1.66699 30 -3l-124 -127c-7.33301 -1.33301 -15.5 -2.33301 -24.5 -3s-18.5 -1 -28.5 -1c-7.33301 0 -15 0.333008 -23 1
s-16 1.66699 -24 3z" />
    <glyph glyph-name="thorn" unicode="&#xfe;" horiz-adv-x="566" 
d="M191 77c7.33301 -2 16.333 -3.50098 27 -4.50098s21 -1.5 31 -1.5c30 0 57.833 5.83301 83.5 17.5s48.167 28.334 67.5 50.001s34.5 47.5 45.5 77.5s16.5 63.667 16.5 101c0 35.333 -7.16699 64.333 -21.5 87s-36.5 34 -66.5 34c-16.667 0 -33 -3.5 -49 -10.5
s-30.833 -18.5 -44.5 -34.5s-26 -36.833 -37 -62.5s-19.5 -57.167 -25.5 -94.5zM136 -236.001c-8 -1.33301 -16.6621 -2.16895 -25.9951 -2.50195s-17.333 -0.5 -24 -0.5c-7.33301 0 -15.5 0.166992 -24.5 0.5s-17.167 1.16602 -24.5 2.49902l66 375.5l67 375.5
c7.33301 40 13.166 74.333 17.499 103s6.5 53.667 6.5 75c0 8.66699 -0.166992 15.667 -0.5 21s-0.833008 11.333 -1.5 18c7.33301 1.33301 15.166 2.33301 23.499 3s16.166 1 23.499 1c6.66699 0 15 -0.166992 25 -0.5s18.667 -1.16602 26 -2.49902
c1.33301 -5.33301 2.33301 -11.333 3 -18s1 -15.667 1 -27c0 -6 -1 -18.5 -3 -37.5s-5 -40.167 -9 -63.5l-29 -159c18 27.333 40.167 50.333 66.5 69s59.833 28 100.5 28c46 0 82.333 -16.167 109 -48.5s40 -77.833 40 -136.5c0 -47.333 -7.16699 -92.166 -21.5 -134.499
s-35.833 -79.666 -64.5 -111.999s-64.334 -58 -107.001 -77s-92.334 -28.5 -149.001 -28.5c-10 0 -19.333 0.5 -28 1.5s-16.667 2.16699 -24 3.5z" />
    <glyph glyph-name="ydieresis" unicode="&#xff;" horiz-adv-x="500" 
d="M260 50l56.999 126.002l45.5 105l37 88l30.5 76c4 10.667 7 21 9 31s3 17.667 3 23c0 3.33301 -0.166992 6 -0.5 8s-0.5 4 -0.5 6c12.667 2 26.667 3 42 3h63c0.666992 -2.66699 1 -5.33398 1 -8.00098v-8c0 -16 -3.33301 -33.333 -10 -52s-14 -37.334 -22 -56.001
l-96.5 -207.5l-115.5 -244.5c-18.667 -39.333 -36.667 -71 -54 -95s-34.5 -42.667 -51.5 -56s-34.167 -22.333 -51.5 -27s-36 -7 -56 -7c-23.333 0 -46 3.33301 -68 10c0.666992 14.667 2.66699 28.667 6 42s8.66602 25 15.999 35c6 -2 13.333 -3.83301 22 -5.5
s16.667 -2.5 24 -2.5c10 0 20.333 1.5 31 4.5s21.834 10.167 33.501 21.5s24.167 28 37.5 50s28 52 44 90c-5.33301 -0.666992 -11 -1 -17 -1h-18h-15c-5.33301 0 -10 0.333008 -14 1l-33.5 256l-33.5 257c9.33301 1.33301 17.833 2.33301 25.5 3s16.167 1 25.5 1
s18.333 -0.333008 27 -1s17.334 -1.66699 26.001 -3zM183.999 604.002c0.666992 17.333 2.33398 34.167 5.00098 50.5s7 32.833 13 49.5c8.66699 1.33301 17.5 2.33301 26.5 3s17.167 1 24.5 1s15.666 -0.333008 24.999 -1s18 -1.66699 26 -3
c-0.666992 -17.333 -2.33398 -34.166 -5.00098 -50.499s-7 -32.833 -13 -49.5c-17.333 -2 -34.333 -3 -51 -3c-7.33301 0 -15.666 0.166992 -24.999 0.5s-18 1.16602 -26 2.49902zM387.999 604.003c0.666992 17.333 2.16699 34.168 4.5 50.501s6.83301 32.833 13.5 49.5
c8 1.33301 16.5 2.33301 25.5 3s17.5 1 25.5 1c7.33301 0 15.666 -0.333008 24.999 -1s18 -1.66699 26 -3c-1.33301 -17.333 -3.33301 -34 -6 -50s-6.66699 -32.667 -12 -50c-17.333 -2 -34.333 -3 -51 -3c-7.33301 0 -15.666 0.166992 -24.999 0.5s-18 1.16602 -26 2.49902
z" />
    <glyph glyph-name="Amacron" unicode="&#x100;" horiz-adv-x="599" 
d="M362 719c8.66699 1.33301 19.167 2.16699 31.5 2.5s23.166 0.5 32.499 0.5c10 0 20.167 -0.166992 30.5 -0.5s19.5 -1.16602 27.5 -2.49902l98 -719c-19.333 -2 -38.666 -3 -57.999 -3c-16 0 -32.333 1 -49 3l-19 169h-242l-73 -169c-16 -2 -34 -3 -54 -3
c-9.33301 0 -18.5 0.166992 -27.5 0.5s-17.167 1.16602 -24.5 2.49902zM446 257.001l-41 347l-152 -347h193zM288 801.001c0 24 4 46 12 66h284v-8c0 -11.333 -1 -23 -3 -35s-5.33301 -23.667 -10 -35h-283v12z" />
    <glyph glyph-name="amacron" unicode="&#x101;" horiz-adv-x="554" 
d="M455 437c-8 2 -16.334 3.33203 -25.001 3.99902s-18.334 1 -29.001 1c-33.333 0 -63.166 -7.66699 -89.499 -23s-49 -35.833 -68 -61.5s-33.5 -54.667 -43.5 -87s-15 -65.5 -15 -99.5c0 -32 5.66699 -56.833 17 -74.5s28.333 -26.5 51 -26.5
c20.667 0 40.667 6.66699 60 20s37 31.833 53 55.5s29.833 51.334 41.5 83.001s20.834 65.5 27.501 101.5zM511.999 217.999c-7.33301 -40 -13.167 -74.332 -17.5 -102.999s-6.5 -53.667 -6.5 -75c0 -8.66699 0.166992 -15.5 0.5 -20.5s1.16602 -11.167 2.49902 -18.5
c-7.33301 -1.33301 -15.333 -2.33301 -24 -3s-16.667 -1 -24 -1c-6.66699 0 -14 0.333008 -22 1s-15.667 1.66699 -23 3c-1.33301 7.33301 -2.33301 14.833 -3 22.5s-1 17.167 -1 28.5c0 7.33301 0.833008 17.333 2.5 30s3.5 24 5.5 34
c-7.33301 -14.667 -17 -29.5 -29 -44.5s-25.833 -28.667 -41.5 -41s-33.334 -22.5 -53.001 -30.5s-40.834 -12 -63.501 -12c-44 0 -77.167 14.5 -99.5 43.5s-33.5 68.5 -33.5 118.5c0 47.333 7.33301 93.5 22 138.5s36.334 85 65.001 120s64.334 63.167 107.001 84.5
s92.334 32 149.001 32c24 0 48.167 -1.83301 72.5 -5.5s45.833 -8.83398 64.5 -15.501zM560.998 694c0 -13.333 -0.831055 -26.167 -2.49805 -38.5s-4.83398 -25.5 -9.50098 -39.5h-270c0 13.333 0.666992 26.333 2 39s4.66602 25.667 9.99902 39h270z" />
    <glyph glyph-name="Abreve" unicode="&#x102;" horiz-adv-x="599" 
d="M362 719c8.66699 1.33301 19.167 2.16699 31.5 2.5s23.166 0.5 32.499 0.5c10 0 20.167 -0.166992 30.5 -0.5s19.5 -1.16602 27.5 -2.49902l98 -719c-19.333 -2 -38.666 -3 -57.999 -3c-16 0 -32.333 1 -49 3l-19 169h-242l-73 -169c-16 -2 -34 -3 -54 -3
c-9.33301 0 -18.5 0.166992 -27.5 0.5s-17.167 1.16602 -24.5 2.49902zM446 257.001l-41 347l-152 -347h193zM291 889.001c7.33301 1.33301 14.333 2.50098 21 3.50098s13.667 1.5 21 1.5s14.166 -0.5 20.499 -1.5s13.166 -2.16699 20.499 -3.5
c0.666992 -7.33301 1.83398 -14.333 3.50098 -21s4.83398 -12.5 9.50098 -17.5s11.167 -9 19.5 -12s19.166 -4.5 32.499 -4.5c12.667 0 23.5 1.16699 32.5 3.5s16.5 5.83301 22.5 10.5s11 10.334 15 17.001s7.66699 14.667 11 24c8 1.33301 15.333 2.5 22 3.5s14 1.5 22 1.5
c7.33301 0 14.166 -0.5 20.499 -1.5s12.833 -2.16699 19.5 -3.5c-6 -24.667 -15.333 -44.834 -28 -60.501s-26.667 -27.834 -42 -36.501s-31.666 -14.667 -48.999 -18s-34 -5 -50 -5c-17.333 0 -34.666 1.83301 -51.999 5.5s-32.833 10 -46.5 19s-24.667 21.333 -33 37
s-12.5 35.167 -12.5 58.5z" />
    <glyph glyph-name="abreve" unicode="&#x103;" horiz-adv-x="554" 
d="M455 437c-8 2 -16.334 3.33203 -25.001 3.99902s-18.334 1 -29.001 1c-33.333 0 -63.166 -7.66699 -89.499 -23s-49 -35.833 -68 -61.5s-33.5 -54.667 -43.5 -87s-15 -65.5 -15 -99.5c0 -32 5.66699 -56.833 17 -74.5s28.333 -26.5 51 -26.5
c20.667 0 40.667 6.66699 60 20s37 31.833 53 55.5s29.833 51.334 41.5 83.001s20.834 65.5 27.501 101.5zM511.999 217.999c-7.33301 -40 -13.167 -74.332 -17.5 -102.999s-6.5 -53.667 -6.5 -75c0 -8.66699 0.166992 -15.5 0.5 -20.5s1.16602 -11.167 2.49902 -18.5
c-7.33301 -1.33301 -15.333 -2.33301 -24 -3s-16.667 -1 -24 -1c-6.66699 0 -14 0.333008 -22 1s-15.667 1.66699 -23 3c-1.33301 7.33301 -2.33301 14.833 -3 22.5s-1 17.167 -1 28.5c0 7.33301 0.833008 17.333 2.5 30s3.5 24 5.5 34
c-7.33301 -14.667 -17 -29.5 -29 -44.5s-25.833 -28.667 -41.5 -41s-33.334 -22.5 -53.001 -30.5s-40.834 -12 -63.501 -12c-44 0 -77.167 14.5 -99.5 43.5s-33.5 68.5 -33.5 118.5c0 47.333 7.33301 93.5 22 138.5s36.334 85 65.001 120s64.334 63.167 107.001 84.5
s92.334 32 149.001 32c24 0 48.167 -1.83301 72.5 -5.5s45.833 -8.83398 64.5 -15.501zM271.998 722c6.66699 2 13.8379 3.33203 21.5049 3.99902s15.167 1 22.5 1s13.666 -0.333008 18.999 -1s11.666 -2 18.999 -4c0 -8 0.833008 -16 2.5 -24s5 -15.167 10 -21.5
s11.667 -11.666 20 -15.999s19.166 -6.5 32.499 -6.5c14 0 25.667 1.83301 35 5.5s17 8.66699 23 15s10.667 13.666 14 21.999s6.33301 16.833 9 25.5c8 1.33301 15.333 2.5 22 3.5s13.667 1.5 21 1.5s14.666 -0.333008 21.999 -1s14.333 -2 21 -4
c-6 -27.333 -15.167 -49.666 -27.5 -66.999s-26.166 -31 -41.499 -41s-32 -16.833 -50 -20.5s-36 -5.5 -54 -5.5c-16.667 0 -33.334 1.83301 -50.001 5.5s-31.834 10.5 -45.501 20.5s-24.667 23.333 -33 40s-12.5 38 -12.5 64v4z" />
    <glyph glyph-name="Aogonek" unicode="&#x104;" horiz-adv-x="599" 
d="M362 719c8.66699 1.33301 19.1689 2.16602 31.502 2.49902s23.166 0.5 32.499 0.5c10 0 20.167 -0.166992 30.5 -0.5s19.5 -1.16602 27.5 -2.49902l98 -719c-9.33301 -6.66699 -20 -15.167 -32 -25.5s-23.333 -21.666 -34 -33.999s-19.834 -25.166 -27.501 -38.499
s-11.5 -26.333 -11.5 -39c0 -26 15.667 -39 47 -39c5.33301 0 12.166 0.5 20.499 1.5s18.166 3.16699 29.499 6.5c6.66699 -13.333 10 -28.666 10 -45.999c0 -6.66699 -0.333008 -11.667 -1 -15c-11.333 -4 -25.166 -7.16699 -41.499 -9.5s-32.5 -3.5 -48.5 -3.5
c-15.333 0 -29.666 1.5 -42.999 4.5s-25 7.66699 -35 14s-18 14.833 -24 25.5s-9 23.667 -9 39s3.16699 30.166 9.5 44.499s14.5 28.166 24.5 41.499s21.5 26 34.5 38s26.5 23 40.5 33l-16 2l-19 169h-242l-73 -169c-16 -2 -34 -3 -54 -3
c-9.33301 0 -18.5 0.166992 -27.5 0.5s-17.167 1.16602 -24.5 2.49902zM446.002 257l-41 347l-152 -347h193z" />
    <glyph glyph-name="aogonek" unicode="&#x105;" horiz-adv-x="554" 
d="M512 218c-7.33301 -40 -13.1699 -74.332 -17.5029 -102.999s-6.5 -53.667 -6.5 -75c0 -8.66699 0.333008 -15.5 1 -20.5s1.66699 -11.167 3 -18.5c-9.33301 -6.66699 -20 -15.334 -32 -26.001s-23.5 -22.167 -34.5 -34.5s-20.333 -25.166 -28 -38.499
s-11.5 -26.333 -11.5 -39c0 -26 15.667 -39 47 -39c6 0 13.167 0.5 21.5 1.5s18.166 3.16699 29.499 6.5c2.66699 -6 4.83398 -13 6.50098 -21s2.5 -16.333 2.5 -25c0 -6.66699 -0.333008 -11.667 -1 -15c-11.333 -4 -25.166 -7.16699 -41.499 -9.5s-32.5 -3.5 -48.5 -3.5
c-14.667 0 -28.667 1.5 -42 4.5s-25.166 7.66699 -35.499 14s-18.5 14.833 -24.5 25.5s-9 23.667 -9 39c0 16 3.16699 31.333 9.5 46s14.5 28.667 24.5 42s21.333 26 34 38s25.667 23.333 39 34c-1.33301 7.33301 -2.33301 14.833 -3 22.5s-1 17.167 -1 28.5
c0 7.33301 0.833008 17.333 2.5 30s3.5 24 5.5 34c-7.33301 -14.667 -17 -29.5 -29 -44.5s-25.833 -28.667 -41.5 -41s-33.334 -22.5 -53.001 -30.5s-40.834 -12 -63.501 -12c-44 0 -77.167 14.5 -99.5 43.5s-33.5 68.5 -33.5 118.5c0 47.333 7.33301 93.5 22 138.5
s36.334 85 65.001 120s64.334 63.167 107.001 84.5s92.334 32 149.001 32c24 0 48.167 -1.83301 72.5 -5.5s45.833 -8.83398 64.5 -15.501zM454.996 437.001c-8 2 -16.334 3.33203 -25.001 3.99902s-18.334 1 -29.001 1c-33.333 0 -63.166 -7.66699 -89.499 -23
s-49 -35.833 -68 -61.5s-33.5 -54.667 -43.5 -87s-15 -65.5 -15 -99.5c0 -32 5.66699 -56.833 17 -74.5s28.333 -26.5 51 -26.5c20.667 0 40.667 6.66699 60 20s37 31.833 53 55.5s29.833 51.334 41.5 83.001s20.834 65.5 27.501 101.5z" />
    <glyph glyph-name="Cacute" unicode="&#x106;" horiz-adv-x="577" 
d="M543 106c12.667 -24 19.999 -52.332 21.999 -84.999c-13.333 -6 -27.666 -11 -42.999 -15s-31 -7.33301 -47 -10s-31.833 -4.66699 -47.5 -6s-29.834 -2 -42.501 -2c-87.333 0 -154.5 24.667 -201.5 74s-70.5 117.333 -70.5 204c0 60 8.33301 118 25 174
s41.5 105.5 74.5 148.5s73.833 77.5 122.5 103.5s105 39 169 39c35.333 0 65.5 -2.5 90.5 -7.5s46.167 -11.167 63.5 -18.5c-3.33301 -15.333 -7.16602 -29.333 -11.499 -42s-10.833 -26.667 -19.5 -42c-19.333 7.33301 -38.333 12.666 -57 15.999s-39.667 5 -63 5
c-49.333 0 -92 -10.333 -128 -31s-65.5 -48.167 -88.5 -82.5s-40 -73.5 -51 -117.5s-16.5 -89.333 -16.5 -136c0 -64.667 15.833 -113.667 47.5 -147s77.5 -50 137.5 -50c25.333 0 48.833 2.33301 70.5 7s43.167 11.667 64.5 21zM502.999 887.001
c8 1.33301 17.5 2.33203 28.5 2.99902s22.167 1 33.5 1c12 0 24.333 -0.333008 37 -1s22.667 -1.66699 30 -3l-145 -110c-6.66699 -1.33301 -15.167 -2.16602 -25.5 -2.49902s-20.833 -0.5 -31.5 -0.5c-9.33301 0 -18.5 0.333008 -27.5 1s-16.167 1.66699 -21.5 3z" />
    <glyph glyph-name="cacute" unicode="&#x107;" horiz-adv-x="459" 
d="M421 90c5.33301 -9.33301 9.50098 -20.501 12.501 -33.501s4.5 -27.833 4.5 -44.5c-19.333 -8 -41.666 -14 -66.999 -18s-48.333 -6 -69 -6c-73.333 0 -127.333 18 -162 54s-52 86.333 -52 151c0 40 6.5 79.833 19.5 119.5s32.333 75.334 58 107.001s57 57.167 94 76.5
s79.5 29 127.5 29c22 0 43 -2 63 -6s37.333 -8.66699 52 -14c-0.666992 -12.667 -3.33398 -26.5 -8.00098 -41.5s-10.667 -28.167 -18 -39.5c-13.333 5.33301 -27.833 9.83301 -43.5 13.5s-32.167 5.5 -49.5 5.5c-32.667 0 -61 -7.16699 -85 -21.5s-44 -33 -60 -56
s-27.833 -48.833 -35.5 -77.5s-11.5 -57 -11.5 -85c0 -45.333 11.167 -78.833 33.5 -100.5s53.166 -32.5 92.499 -32.5c17.333 0 34.5 1.5 51.5 4.5s34.5 8.16699 52.5 15.5zM391.001 720.999c10.667 1.33301 21.333 2.33301 32 3s21.667 1 33 1s22 -0.333008 32 -1
s20 -1.66699 30 -3l-124 -127c-7.33301 -1.33301 -15.5 -2.33301 -24.5 -3s-18.5 -1 -28.5 -1c-7.33301 0 -15 0.333008 -23 1s-16 1.66699 -24 3z" />
    <glyph glyph-name="Ccircumflex" unicode="&#x108;" horiz-adv-x="577" 
d="M543 106c12.667 -24 19.999 -52.332 21.999 -84.999c-13.333 -6 -27.666 -11 -42.999 -15s-31 -7.33301 -47 -10s-31.833 -4.66699 -47.5 -6s-29.834 -2 -42.501 -2c-87.333 0 -154.5 24.667 -201.5 74s-70.5 117.333 -70.5 204c0 60 8.33301 118 25 174
s41.5 105.5 74.5 148.5s73.833 77.5 122.5 103.5s105 39 169 39c35.333 0 65.5 -2.5 90.5 -7.5s46.167 -11.167 63.5 -18.5c-3.33301 -15.333 -7.16602 -29.333 -11.499 -42s-10.833 -26.667 -19.5 -42c-19.333 7.33301 -38.333 12.666 -57 15.999s-39.667 5 -63 5
c-49.333 0 -92 -10.333 -128 -31s-65.5 -48.167 -88.5 -82.5s-40 -73.5 -51 -117.5s-16.5 -89.333 -16.5 -136c0 -64.667 15.833 -113.667 47.5 -147s77.5 -50 137.5 -50c25.333 0 48.833 2.33301 70.5 7s43.167 11.667 64.5 21zM450.999 889.001
c8.66699 1.33301 18.498 2.33301 29.498 3s21.167 1 30.5 1c6.66699 0 14.834 -0.333008 24.501 -1s18.834 -1.66699 27.501 -3l82 -110c-7.33301 -1.33301 -15 -2.33301 -23 -3s-16.333 -1 -25 -1c-7.33301 0 -15.5 0.333008 -24.5 1s-17.833 2 -26.5 4l-45 60l-69 -61
c-8.66699 -1.33301 -18.167 -2.33301 -28.5 -3s-19.5 -1 -27.5 -1c-9.33301 0 -18.5 0.333008 -27.5 1s-17.167 1.66699 -24.5 3z" />
    <glyph glyph-name="ccircumflex" unicode="&#x109;" horiz-adv-x="459" 
d="M421 90c5.33301 -9.33301 9.50098 -20.501 12.501 -33.501s4.5 -27.833 4.5 -44.5c-19.333 -8 -41.666 -14 -66.999 -18s-48.333 -6 -69 -6c-73.333 0 -127.333 18 -162 54s-52 86.333 -52 151c0 40 6.5 79.833 19.5 119.5s32.333 75.334 58 107.001s57 57.167 94 76.5
s79.5 29 127.5 29c22 0 43 -2 63 -6s37.333 -8.66699 52 -14c-0.666992 -12.667 -3.33398 -26.5 -8.00098 -41.5s-10.667 -28.167 -18 -39.5c-13.333 5.33301 -27.833 9.83301 -43.5 13.5s-32.167 5.5 -49.5 5.5c-32.667 0 -61 -7.16699 -85 -21.5s-44 -33 -60 -56
s-27.833 -48.833 -35.5 -77.5s-11.5 -57 -11.5 -85c0 -45.333 11.167 -78.833 33.5 -100.5s53.166 -32.5 92.499 -32.5c17.333 0 34.5 1.5 51.5 4.5s34.5 8.16699 52.5 15.5zM335.001 720.999c8 1.33301 17.501 2.33301 28.501 3s21.167 1 30.5 1
c7.33301 0 16.666 -0.333008 27.999 -1s21.333 -2 30 -4l74 -126c-6 -1.33301 -12.833 -2.33301 -20.5 -3s-15.834 -1 -24.501 -1c-8 0 -16.667 0.333008 -26 1s-18 1.66699 -26 3l-41 79l-70 -79c-8 -1.33301 -17.167 -2.33301 -27.5 -3s-19.5 -1 -27.5 -1
c-9.33301 0 -18.666 0.333008 -27.999 1s-17.333 1.66699 -24 3z" />
    <glyph glyph-name="Cdotaccent" unicode="&#x10a;" horiz-adv-x="577" 
d="M543 106c12.667 -24 19.999 -52.332 21.999 -84.999c-13.333 -6 -27.666 -11 -42.999 -15s-31 -7.33301 -47 -10s-31.833 -4.66699 -47.5 -6s-29.834 -2 -42.501 -2c-87.333 0 -154.5 24.667 -201.5 74s-70.5 117.333 -70.5 204c0 60 8.33301 118 25 174
s41.5 105.5 74.5 148.5s73.833 77.5 122.5 103.5s105 39 169 39c35.333 0 65.5 -2.5 90.5 -7.5s46.167 -11.167 63.5 -18.5c-3.33301 -15.333 -7.16602 -29.333 -11.499 -42s-10.833 -26.667 -19.5 -42c-19.333 7.33301 -38.333 12.666 -57 15.999s-39.667 5 -63 5
c-49.333 0 -92 -10.333 -128 -31s-65.5 -48.167 -88.5 -82.5s-40 -73.5 -51 -117.5s-16.5 -89.333 -16.5 -136c0 -64.667 15.833 -113.667 47.5 -147s77.5 -50 137.5 -50c25.333 0 48.833 2.33301 70.5 7s43.167 11.667 64.5 21zM439.999 773.001
c0 19.333 1.5 37.667 4.5 55s7.16699 35 12.5 53c9.33301 1.33301 19.5 2.33301 30.5 3s20.5 1 28.5 1c7.33301 0 16.166 -0.333008 26.499 -1s19.833 -1.66699 28.5 -3c-1.33301 -37.333 -7.66602 -73.333 -18.999 -108c-9.33301 -0.666992 -19.333 -1.16699 -30 -1.5
s-19.667 -0.5 -27 -0.5c-8 0 -17.333 0.166992 -28 0.5s-19.667 0.833008 -27 1.5z" />
    <glyph glyph-name="cdotaccent" unicode="&#x10b;" horiz-adv-x="459" 
d="M421 90c5.33301 -9.33301 9.50098 -20.501 12.501 -33.501s4.5 -27.833 4.5 -44.5c-19.333 -8 -41.666 -14 -66.999 -18s-48.333 -6 -69 -6c-73.333 0 -127.333 18 -162 54s-52 86.333 -52 151c0 40 6.5 79.833 19.5 119.5s32.333 75.334 58 107.001s57 57.167 94 76.5
s79.5 29 127.5 29c22 0 43 -2 63 -6s37.333 -8.66699 52 -14c-0.666992 -12.667 -3.33398 -26.5 -8.00098 -41.5s-10.667 -28.167 -18 -39.5c-13.333 5.33301 -27.833 9.83301 -43.5 13.5s-32.167 5.5 -49.5 5.5c-32.667 0 -61 -7.16699 -85 -21.5s-44 -33 -60 -56
s-27.833 -48.833 -35.5 -77.5s-11.5 -57 -11.5 -85c0 -45.333 11.167 -78.833 33.5 -100.5s53.166 -32.5 92.499 -32.5c17.333 0 34.5 1.5 51.5 4.5s34.5 8.16699 52.5 15.5zM325.001 606.999c0 19.333 1.5 37.833 4.5 55.5s7.16699 35.167 12.5 52.5
c9.33301 1.33301 19.5 2.33301 30.5 3s20.5 1 28.5 1c7.33301 0 16.166 -0.333008 26.499 -1s19.833 -1.66699 28.5 -3c-1.33301 -37.333 -7.66602 -73.333 -18.999 -108c-9.33301 -0.666992 -19.333 -1.16699 -30 -1.5s-19.667 -0.5 -27 -0.5
c-8 0 -17.333 0.166992 -28 0.5s-19.667 0.833008 -27 1.5z" />
    <glyph glyph-name="Ccaron" unicode="&#x10c;" horiz-adv-x="577" 
d="M543 106c12.667 -24 19.999 -52.332 21.999 -84.999c-13.333 -6 -27.666 -11 -42.999 -15s-31 -7.33301 -47 -10s-31.833 -4.66699 -47.5 -6s-29.834 -2 -42.501 -2c-87.333 0 -154.5 24.667 -201.5 74s-70.5 117.333 -70.5 204c0 60 8.33301 118 25 174
s41.5 105.5 74.5 148.5s73.833 77.5 122.5 103.5s105 39 169 39c35.333 0 65.5 -2.5 90.5 -7.5s46.167 -11.167 63.5 -18.5c-3.33301 -15.333 -7.16602 -29.333 -11.499 -42s-10.833 -26.667 -19.5 -42c-19.333 7.33301 -38.333 12.666 -57 15.999s-39.667 5 -63 5
c-49.333 0 -92 -10.333 -128 -31s-65.5 -48.167 -88.5 -82.5s-40 -73.5 -51 -117.5s-16.5 -89.333 -16.5 -136c0 -64.667 15.833 -113.667 47.5 -147s77.5 -50 137.5 -50c25.333 0 48.833 2.33301 70.5 7s43.167 11.667 64.5 21zM372.999 889.001
c7.33301 1.33301 14.998 2.33301 22.998 3s16.333 1 25 1c7.33301 0 15.833 -0.333008 25.5 -1s18.834 -1.66699 27.501 -3l39 -60l68 60c8.66699 1.33301 18.334 2.33301 29.001 3s20 1 28 1c9.33301 0 18.5 -0.333008 27.5 -1s17.167 -1.66699 24.5 -3l-128 -110
c-8 -1.33301 -17.333 -2.33301 -28 -3s-20.667 -1 -30 -1c-6.66699 0 -15 0.333008 -25 1s-19.333 1.66699 -28 3z" />
    <glyph glyph-name="ccaron" unicode="&#x10d;" horiz-adv-x="459" 
d="M421 90c5.33301 -9.33301 9.50098 -20.501 12.501 -33.501s4.5 -27.833 4.5 -44.5c-19.333 -8 -41.666 -14 -66.999 -18s-48.333 -6 -69 -6c-73.333 0 -127.333 18 -162 54s-52 86.333 -52 151c0 40 6.5 79.833 19.5 119.5s32.333 75.334 58 107.001s57 57.167 94 76.5
s79.5 29 127.5 29c22 0 43 -2 63 -6s37.333 -8.66699 52 -14c-0.666992 -12.667 -3.33398 -26.5 -8.00098 -41.5s-10.667 -28.167 -18 -39.5c-13.333 5.33301 -27.833 9.83301 -43.5 13.5s-32.167 5.5 -49.5 5.5c-32.667 0 -61 -7.16699 -85 -21.5s-44 -33 -60 -56
s-27.833 -48.833 -35.5 -77.5s-11.5 -57 -11.5 -85c0 -45.333 11.167 -78.833 33.5 -100.5s53.166 -32.5 92.499 -32.5c17.333 0 34.5 1.5 51.5 4.5s34.5 8.16699 52.5 15.5zM242.001 719.999c13.333 3.33301 28.3311 4.99902 44.998 4.99902c8 0 17.167 -0.5 27.5 -1.5
s19.166 -2.16699 26.499 -3.5l44 -79l71 79c8 1.33301 17.333 2.5 28 3.5s20.334 1.5 29.001 1.5c16 0 31.667 -1.66699 47 -5l-122 -127c-8.66699 -1.33301 -19 -2.16602 -31 -2.49902s-22.667 -0.5 -32 -0.5c-7.33301 0 -16.166 0.333008 -26.499 1
s-20.166 1.66699 -29.499 3z" />
    <glyph glyph-name="Dcaron" unicode="&#x10e;" horiz-adv-x="684" 
d="M219 719c10.667 1.33301 22.668 2.66699 36.001 4s27 2.5 41 3.5s27.667 1.83301 41 2.5s26 1 38 1c56 0 104.333 -7 145 -21s74 -33.833 100 -59.5s45.167 -56.5 57.5 -92.5s18.5 -76 18.5 -120c0 -63.333 -9.16699 -122.166 -27.5 -176.499
s-45.5 -101.833 -81.5 -142.5s-80.833 -72.5 -134.5 -95.5s-115.834 -34.5 -186.501 -34.5c-36 0 -68.833 1.16699 -98.5 3.5s-54.5 5.16602 -74.5 8.49902zM210.001 84.001c8.66699 -1.33301 20.833 -2.5 36.5 -3.5s30.834 -1.5 45.501 -1.5c46 0 87.333 8.66699 124 26
s67.667 41.333 93 72s44.666 67 57.999 109s20 87.667 20 137c0 70.667 -16.333 124.667 -49 162s-85.667 56 -159 56c-13.333 0 -25.833 -0.5 -37.5 -1.5s-23.167 -2.16699 -34.5 -3.5zM298 889.001c7.33301 1.33301 14.998 2.33301 22.998 3s16.333 1 25 1
c7.33301 0 15.833 -0.333008 25.5 -1s18.834 -1.66699 27.501 -3l39 -60l68 60c8.66699 1.33301 18.334 2.33301 29.001 3s20 1 28 1c9.33301 0 18.5 -0.333008 27.5 -1s17.167 -1.66699 24.5 -3l-128 -110c-8 -1.33301 -17.333 -2.33301 -28 -3s-20.667 -1 -30 -1
c-6.66699 0 -15 0.333008 -25 1s-19.333 1.66699 -28 3z" />
    <glyph glyph-name="dcaron" unicode="&#x10f;" horiz-adv-x="621" 
d="M456 437c-8 2 -16.333 3.33203 -25 3.99902s-18.334 1 -29.001 1c-33.333 0 -63.166 -7.66699 -89.499 -23s-49 -35.833 -68 -61.5s-33.5 -54.667 -43.5 -87s-15 -65.5 -15 -99.5c0 -32 5.66699 -56.833 17 -74.5s28.333 -26.5 51 -26.5c20.667 0 40.667 6.66699 60 20
s37 31.833 53 55.5s30 51.334 42 83.001s21.333 65.5 28 101.5zM514 217.999c-7.33301 -40 -13 -74.333 -17 -103s-6 -53.667 -6 -75v-20.5c0 -5 0.666992 -11.167 2 -18.5c-7.33301 -1.33301 -15.166 -2.33301 -23.499 -3s-16.166 -1 -23.499 -1s-15 0.333008 -23 1
s-15.333 1.66699 -22 3c-1.33301 5.33301 -2.5 11.166 -3.5 17.499s-1.5 15.166 -1.5 26.499c0 8 0.833008 19.167 2.5 33.5s4.16699 27.5 7.5 39.5c-8 -14.667 -18 -29.667 -30 -45s-26 -29.333 -42 -42s-33.833 -23 -53.5 -31s-40.834 -12 -63.501 -12
c-44 0 -77.333 14.5 -100 43.5s-34 68.5 -34 118.5c0 47.333 7.33301 93.5 22 138.5s36.334 85 65.001 120s64.5 63.167 107.5 84.5s92.5 32 148.5 32c7.33301 0 15 -0.333008 23 -1s14.667 -1.33398 20 -2.00098c7.33301 38.667 13 72 17 100s6 52.667 6 74v20
c0 4.66699 -0.333008 10.334 -1 17.001c7.33301 1.33301 16.166 2.33301 26.499 3s19.166 1 26.499 1c6.66699 0 14.167 -0.166992 22.5 -0.5s15.833 -1.16602 22.5 -2.49902c2 -13.333 3 -25.666 3 -36.999c0 -15.333 -1.5 -35 -4.5 -59s-6.5 -47 -10.5 -69zM674 734.999
c4 0.666992 10.332 1.16699 18.999 1.5s19 0.5 31 0.5c8 0 16.333 -0.166992 25 -0.5s15.667 -0.833008 21 -1.5l-47 -202c-11.333 -2 -24.666 -3 -39.999 -3c-17.333 0 -32 1 -44 3z" />
    <glyph glyph-name="Dcroat" unicode="&#x110;" horiz-adv-x="696" 
d="M165 338l-75.002 0.00195312c0 13.333 0.833008 26.166 2.5 38.499s4.83398 24.5 9.50098 36.5h76l54 306c10.667 1.33301 22.667 2.66602 36 3.99902s27 2.5 41 3.5s27.667 1.83301 41 2.5s26 1 38 1c56 0 104.333 -7 145 -21s74 -33.833 100 -59.5
s45.167 -56.5 57.5 -92.5s18.5 -76 18.5 -120c0 -63.333 -9.33301 -122.166 -28 -176.499s-46.167 -101.833 -82.5 -142.5s-81.166 -72.5 -134.499 -95.5s-115 -34.5 -185 -34.5c-36 0 -68.833 1.16699 -98.5 3.5s-54.5 5.16602 -74.5 8.49902zM222.998 84.002
c8.66699 -1.33301 20.833 -2.49902 36.5 -3.49902s30.834 -1.5 45.501 -1.5c46 0 87.333 8.66699 124 26s67.834 41.333 93.501 72s45.167 67 58.5 109s20 87.667 20 137c0 70.667 -16 124.667 -48 162s-84.667 56 -158 56c-13.333 0 -26.333 -0.5 -39 -1.5
s-24.334 -2.16699 -35.001 -3.5l-40 -223h172c0 -12.667 -0.833008 -25.334 -2.5 -38.001s-4.83398 -25 -9.50098 -37h-173z" />
    <glyph glyph-name="dcroat" unicode="&#x111;" horiz-adv-x="552" 
d="M477 573l-140.005 0.00195312c0 11.333 0.833008 22.5 2.5 33.5s4.83398 22.5 9.50098 34.5h138l1 7c1.33301 11.333 2.33301 20.666 3 27.999s1 14 1 20c0 8 -0.166992 14.333 -0.5 19s-0.833008 10.667 -1.5 18c7.33301 1.33301 16.333 2.33301 27 3s19.667 1 27 1
c6.66699 0 14.167 -0.333008 22.5 -1s15.833 -1.66699 22.5 -3c2 -12 3 -24.333 3 -37c0 -5.33301 -0.5 -12.833 -1.5 -22.5l-3.5 -32.5h60c0 -24 -3.66699 -46.667 -11 -68h-59l-63 -355c-7.33301 -40 -13.166 -74.5 -17.499 -103.5s-6.5 -54.167 -6.5 -75.5
c0 -8 0.166992 -14.667 0.5 -20s0.833008 -11.666 1.5 -18.999c-7.33301 -0.666992 -15.166 -1.16699 -23.499 -1.5s-16.166 -0.5 -23.499 -0.5c-6.66699 0 -14 0.166992 -22 0.5s-15.667 0.833008 -23 1.5c-1.33301 5.33301 -2.33301 11.166 -3 17.499s-1 15.166 -1 26.499
c0 7.33301 0.833008 18.333 2.5 33s3.83398 28 6.50098 40c-7.33301 -14 -17.166 -28.667 -29.499 -44s-26.5 -29.333 -42.5 -42s-33.833 -23 -53.5 -31s-40.834 -12 -63.501 -12c-44 0 -77.167 14.5 -99.5 43.5s-33.5 68.5 -33.5 118.5c0 46.667 7 91.167 21 133.5
s35 79.5 63 111.5s63.167 57.333 105.5 76s91.833 28 148.5 28c6.66699 0 14 -0.333008 22 -1s15 -1.66699 21 -3zM450.995 410.002c-16 4 -34 6 -54 6c-33.333 0 -63 -6.5 -89 -19.5s-48 -30.5 -66 -52.5s-31.833 -47.833 -41.5 -77.5s-14.5 -61.5 -14.5 -95.5
c0 -32 5.66699 -56.833 17 -74.5s28 -26.5 50 -26.5c20.667 0 40.667 6.66699 60 20s37 31.666 53 54.999s30 50.833 42 82.5s21.333 65.834 28 102.501z" />
    <glyph glyph-name="Emacron" unicode="&#x112;" horiz-adv-x="524" 
d="M218 719l381 0.000976562c0 -30 -5.33301 -60 -16 -90h-278l-36 -205h222c0 -30.667 -5.33301 -60.667 -16 -90h-222l-21.5 -122.5l-21.5 -122.5h286c-2 -17.333 -3.66699 -32.333 -5 -45s-5 -27.334 -11 -44.001h-388zM277 801.001c0 24 4 46 12 66h284v-8
c0 -11.333 -1 -23 -3 -35s-5.33301 -23.667 -10 -35h-283v12z" />
    <glyph glyph-name="emacron" unicode="&#x113;" horiz-adv-x="498" 
d="M186 204c2 -44.667 13.3291 -78.3311 33.9961 -100.998s52.667 -34 96 -34c26.667 0 52 3.16699 76 9.5s45.667 13.166 65 20.499c6 -10 10.333 -22 13 -36s4 -28 4 -42c-10 -4.66699 -22.167 -9 -36.5 -13s-29.333 -7.5 -45 -10.5s-31.5 -5.33301 -47.5 -7
s-30.667 -2.5 -44 -2.5c-39.333 0 -72.5 5.16699 -99.5 15.5s-49 24.666 -66 42.999s-29.333 40 -37 65s-11.5 52.167 -11.5 81.5c0 40.667 6.83301 80.834 20.5 120.501s33.334 75.167 59.001 106.5s56.334 56.666 92.001 75.999s75.5 29 119.5 29
s78.833 -10.833 104.5 -32.5s38.5 -50.5 38.5 -86.5c0 -29.333 -7.16699 -54.833 -21.5 -76.5s-34.166 -40.167 -59.499 -55.5s-55.166 -28 -89.499 -38s-71.833 -18 -112.5 -24zM248.996 288.003c34 6 62.1689 12.833 84.502 20.5s40.166 16 53.499 25
s22.666 18.5 27.999 28.5s8 21 8 33c0 15.333 -5.33301 27.833 -16 37.5s-26 14.5 -46 14.5c-21.333 0 -41 -4.83301 -59 -14.5s-34.167 -22.334 -48.5 -38.001s-26.5 -33.667 -36.5 -54s-17.667 -41.166 -23 -62.499zM522.998 694.003
c0 -13.333 -0.831055 -26.167 -2.49805 -38.5s-4.83398 -25.5 -9.50098 -39.5h-270c0 13.333 0.666992 26.333 2 39s4.66602 25.667 9.99902 39h270z" />
    <glyph glyph-name="Ebreve" unicode="&#x114;" horiz-adv-x="524" 
d="M218 719l381 0.000976562c0 -30 -5.33301 -60 -16 -90h-278l-36 -205h222c0 -30.667 -5.33301 -60.667 -16 -90h-222l-21.5 -122.5l-21.5 -122.5h286c-2 -17.333 -3.66699 -32.333 -5 -45s-5 -27.334 -11 -44.001h-388zM272 889.001
c7.33301 1.33301 14.333 2.50098 21 3.50098s13.667 1.5 21 1.5s14.166 -0.5 20.499 -1.5s13.166 -2.16699 20.499 -3.5c0.666992 -7.33301 1.83398 -14.333 3.50098 -21s4.83398 -12.5 9.50098 -17.5s11.167 -9 19.5 -12s19.166 -4.5 32.499 -4.5
c12.667 0 23.5 1.16699 32.5 3.5s16.5 5.83301 22.5 10.5s11 10.334 15 17.001s7.66699 14.667 11 24c8 1.33301 15.333 2.5 22 3.5s14 1.5 22 1.5c7.33301 0 14.166 -0.5 20.499 -1.5s12.833 -2.16699 19.5 -3.5c-6 -24.667 -15.333 -44.834 -28 -60.501
s-26.667 -27.834 -42 -36.501s-31.666 -14.667 -48.999 -18s-34 -5 -50 -5c-17.333 0 -34.666 1.83301 -51.999 5.5s-32.833 10 -46.5 19s-24.667 21.333 -33 37s-12.5 35.167 -12.5 58.5z" />
    <glyph glyph-name="ebreve" unicode="&#x115;" horiz-adv-x="498" 
d="M186 204c2 -44.667 13.3291 -78.3311 33.9961 -100.998s52.667 -34 96 -34c26.667 0 52 3.16699 76 9.5s45.667 13.166 65 20.499c6 -10 10.333 -22 13 -36s4 -28 4 -42c-10 -4.66699 -22.167 -9 -36.5 -13s-29.333 -7.5 -45 -10.5s-31.5 -5.33301 -47.5 -7
s-30.667 -2.5 -44 -2.5c-39.333 0 -72.5 5.16699 -99.5 15.5s-49 24.666 -66 42.999s-29.333 40 -37 65s-11.5 52.167 -11.5 81.5c0 40.667 6.83301 80.834 20.5 120.501s33.334 75.167 59.001 106.5s56.334 56.666 92.001 75.999s75.5 29 119.5 29
s78.833 -10.833 104.5 -32.5s38.5 -50.5 38.5 -86.5c0 -29.333 -7.16699 -54.833 -21.5 -76.5s-34.166 -40.167 -59.499 -55.5s-55.166 -28 -89.499 -38s-71.833 -18 -112.5 -24zM248.996 288.003c34 6 62.1689 12.833 84.502 20.5s40.166 16 53.499 25
s22.666 18.5 27.999 28.5s8 21 8 33c0 15.333 -5.33301 27.833 -16 37.5s-26 14.5 -46 14.5c-21.333 0 -41 -4.83301 -59 -14.5s-34.167 -22.334 -48.5 -38.001s-26.5 -33.667 -36.5 -54s-17.667 -41.166 -23 -62.499zM232.998 722.003
c6.66699 2 13.8379 3.33203 21.5049 3.99902s15.167 1 22.5 1s13.666 -0.333008 18.999 -1s11.666 -2 18.999 -4c0 -8 0.833008 -16 2.5 -24s5 -15.167 10 -21.5s11.667 -11.666 20 -15.999s19.166 -6.5 32.499 -6.5c14 0 25.667 1.83301 35 5.5s17 8.66699 23 15
s10.667 13.666 14 21.999s6.33301 16.833 9 25.5c8 1.33301 15.333 2.5 22 3.5s13.667 1.5 21 1.5s14.666 -0.333008 21.999 -1s14.333 -2 21 -4c-6 -27.333 -15.167 -49.666 -27.5 -66.999s-26.166 -31 -41.499 -41s-32 -16.833 -50 -20.5s-36 -5.5 -54 -5.5
c-16.667 0 -33.334 1.83301 -50.001 5.5s-31.834 10.5 -45.501 20.5s-24.667 23.333 -33 40s-12.5 38 -12.5 64v4z" />
    <glyph glyph-name="Edotaccent" unicode="&#x116;" horiz-adv-x="524" 
d="M218 719l381 0.000976562c0 -30 -5.33301 -60 -16 -90h-278l-36 -205h222c0 -30.667 -5.33301 -60.667 -16 -90h-222l-21.5 -122.5l-21.5 -122.5h286c-2 -17.333 -3.66699 -32.333 -5 -45s-5 -27.334 -11 -44.001h-388zM365 773.001c0 19.333 1.5 37.667 4.5 55
s7.16699 35 12.5 53c9.33301 1.33301 19.5 2.33301 30.5 3s20.5 1 28.5 1c7.33301 0 16.166 -0.333008 26.499 -1s19.833 -1.66699 28.5 -3c-1.33301 -37.333 -7.66602 -73.333 -18.999 -108c-9.33301 -0.666992 -19.333 -1.16699 -30 -1.5s-19.667 -0.5 -27 -0.5
c-8 0 -17.333 0.166992 -28 0.5s-19.667 0.833008 -27 1.5z" />
    <glyph glyph-name="edotaccent" unicode="&#x117;" horiz-adv-x="498" 
d="M186 204c2 -44.667 13.3291 -78.3311 33.9961 -100.998s52.667 -34 96 -34c26.667 0 52 3.16699 76 9.5s45.667 13.166 65 20.499c6 -10 10.333 -22 13 -36s4 -28 4 -42c-10 -4.66699 -22.167 -9 -36.5 -13s-29.333 -7.5 -45 -10.5s-31.5 -5.33301 -47.5 -7
s-30.667 -2.5 -44 -2.5c-39.333 0 -72.5 5.16699 -99.5 15.5s-49 24.666 -66 42.999s-29.333 40 -37 65s-11.5 52.167 -11.5 81.5c0 40.667 6.83301 80.834 20.5 120.501s33.334 75.167 59.001 106.5s56.334 56.666 92.001 75.999s75.5 29 119.5 29
s78.833 -10.833 104.5 -32.5s38.5 -50.5 38.5 -86.5c0 -29.333 -7.16699 -54.833 -21.5 -76.5s-34.166 -40.167 -59.499 -55.5s-55.166 -28 -89.499 -38s-71.833 -18 -112.5 -24zM248.996 288.003c34 6 62.1689 12.833 84.502 20.5s40.166 16 53.499 25
s22.666 18.5 27.999 28.5s8 21 8 33c0 15.333 -5.33301 27.833 -16 37.5s-26 14.5 -46 14.5c-21.333 0 -41 -4.83301 -59 -14.5s-34.167 -22.334 -48.5 -38.001s-26.5 -33.667 -36.5 -54s-17.667 -41.166 -23 -62.499zM309.998 607.003c0 19.333 1.5 37.833 4.5 55.5
s7.16699 35.167 12.5 52.5c9.33301 1.33301 19.5 2.33301 30.5 3s20.5 1 28.5 1c7.33301 0 16.166 -0.333008 26.499 -1s19.833 -1.66699 28.5 -3c-1.33301 -37.333 -7.66602 -73.333 -18.999 -108c-9.33301 -0.666992 -19.333 -1.16699 -30 -1.5s-19.667 -0.5 -27 -0.5
c-8 0 -17.333 0.166992 -28 0.5s-19.667 0.833008 -27 1.5z" />
    <glyph glyph-name="Eogonek" unicode="&#x118;" horiz-adv-x="524" 
d="M218 719l381.001 -0.000976562c0 -30 -5.33301 -60 -16 -90h-278l-36 -205h222c0 -30.667 -5.33301 -60.667 -16 -90h-222l-21.5 -122.5l-21.5 -122.5h286c-2 -17.333 -3.66699 -32.333 -5 -45s-5 -27.334 -11 -44.001h-46c-9.33301 -6.66699 -20 -15.167 -32 -25.5
s-23.5 -21.666 -34.5 -33.999s-20.333 -25.166 -28 -38.499s-11.5 -26 -11.5 -38c0 -26 16 -39 48 -39c5.33301 0 12.166 0.5 20.499 1.5s18.166 3.16699 29.499 6.5c2.66699 -6.66699 4.83398 -14 6.50098 -22s2.5 -16 2.5 -24c0 -6.66699 -0.333008 -11.667 -1 -15
c-11.333 -4 -25 -7.33301 -41 -10s-32.333 -4 -49 -4c-14.667 0 -28.667 1.5 -42 4.5s-25 7.66699 -35 14s-18 14.833 -24 25.5s-9 23.667 -9 39c0 16 3.16699 31.333 9.5 46s14.833 28.667 25.5 42s22.667 26 36 38s27 23 41 33h-254z" />
    <glyph glyph-name="eogonek" unicode="&#x119;" horiz-adv-x="498" 
d="M301 -12c-39.333 0 -72.5059 5.16895 -99.5059 15.502s-49 24.666 -66 42.999s-29.333 40 -37 65s-11.5 52.167 -11.5 81.5c0 40.667 6.83301 80.834 20.5 120.501s33.334 75.167 59.001 106.5s56.334 56.666 92.001 75.999s75.5 29 119.5 29s78.833 -10.833 104.5 -32.5
s38.5 -50.5 38.5 -86.5c0 -29.333 -7.16699 -54.833 -21.5 -76.5s-34.166 -40.167 -59.499 -55.5s-55.166 -28 -89.499 -38s-71.833 -18 -112.5 -24l-52 -8c2 -44.667 13.333 -78.334 34 -101.001s52.667 -34 96 -34c26.667 0 52 3.16699 76 9.5s45.667 13.166 65 20.499
c6 -10 10.333 -22 13 -36s4 -28 4 -42c-9.33301 -4 -16 -7 -20 -9l-10 -5c-10 -5.33301 -22.667 -12.666 -38 -21.999s-30 -20.166 -44 -32.499s-26 -26 -36 -41s-15 -30.833 -15 -47.5c0 -26 15.667 -39 47 -39c6 0 13.167 0.5 21.5 1.5s18.166 3.16699 29.499 6.5
c2.66699 -6.66699 4.83398 -14 6.50098 -22s2.5 -16.333 2.5 -25c0 -6.66699 -0.333008 -11.334 -1 -14.001c-11.333 -4 -25.166 -7.33301 -41.499 -10s-32.5 -4 -48.5 -4c-15.333 0 -29.666 1.5 -42.999 4.5s-25 7.66699 -35 14s-18 14.833 -24 25.5s-9 23.667 -9 39
c0 28.667 9.5 55.5 28.5 80.5s41.167 47.167 66.5 66.5h-10zM248.994 288.002c34 6 62.1689 12.833 84.502 20.5s40.166 16 53.499 25s22.666 18.5 27.999 28.5s8 21 8 33c0 15.333 -5.33301 27.833 -16 37.5s-26 14.5 -46 14.5c-21.333 0 -41 -4.83301 -59 -14.5
s-34.167 -22.334 -48.5 -38.001s-26.5 -33.667 -36.5 -54s-17.667 -41.166 -23 -62.499z" />
    <glyph glyph-name="Ecaron" unicode="&#x11a;" horiz-adv-x="524" 
d="M218 719l381 0.000976562c0 -30 -5.33301 -60 -16 -90h-278l-36 -205h222c0 -30.667 -5.33301 -60.667 -16 -90h-222l-21.5 -122.5l-21.5 -122.5h286c-2 -17.333 -3.66699 -32.333 -5 -45s-5 -27.334 -11 -44.001h-388zM284 889.001
c7.33301 1.33301 14.998 2.33301 22.998 3s16.333 1 25 1c7.33301 0 15.833 -0.333008 25.5 -1s18.834 -1.66699 27.501 -3l39 -60l68 60c8.66699 1.33301 18.334 2.33301 29.001 3s20 1 28 1c9.33301 0 18.5 -0.333008 27.5 -1s17.167 -1.66699 24.5 -3l-128 -110
c-8 -1.33301 -17.333 -2.33301 -28 -3s-20.667 -1 -30 -1c-6.66699 0 -15 0.333008 -25 1s-19.333 1.66699 -28 3z" />
    <glyph glyph-name="ecaron" unicode="&#x11b;" horiz-adv-x="498" 
d="M186 204c2 -44.667 13.3291 -78.3311 33.9961 -100.998s52.667 -34 96 -34c26.667 0 52 3.16699 76 9.5s45.667 13.166 65 20.499c6 -10 10.333 -22 13 -36s4 -28 4 -42c-10 -4.66699 -22.167 -9 -36.5 -13s-29.333 -7.5 -45 -10.5s-31.5 -5.33301 -47.5 -7
s-30.667 -2.5 -44 -2.5c-39.333 0 -72.5 5.16699 -99.5 15.5s-49 24.666 -66 42.999s-29.333 40 -37 65s-11.5 52.167 -11.5 81.5c0 40.667 6.83301 80.834 20.5 120.501s33.334 75.167 59.001 106.5s56.334 56.666 92.001 75.999s75.5 29 119.5 29
s78.833 -10.833 104.5 -32.5s38.5 -50.5 38.5 -86.5c0 -29.333 -7.16699 -54.833 -21.5 -76.5s-34.166 -40.167 -59.499 -55.5s-55.166 -28 -89.499 -38s-71.833 -18 -112.5 -24zM248.996 288.003c34 6 62.1689 12.833 84.502 20.5s40.166 16 53.499 25
s22.666 18.5 27.999 28.5s8 21 8 33c0 15.333 -5.33301 27.833 -16 37.5s-26 14.5 -46 14.5c-21.333 0 -41 -4.83301 -59 -14.5s-34.167 -22.334 -48.5 -38.001s-26.5 -33.667 -36.5 -54s-17.667 -41.166 -23 -62.499zM241.998 720.003
c13.333 3.33301 28.3311 4.99902 44.998 4.99902c8 0 17.167 -0.5 27.5 -1.5s19.166 -2.16699 26.499 -3.5l44 -79l71 79c8 1.33301 17.333 2.5 28 3.5s20.334 1.5 29.001 1.5c16 0 31.667 -1.66699 47 -5l-122 -127c-8.66699 -1.33301 -19 -2.16602 -31 -2.49902
s-22.667 -0.5 -32 -0.5c-7.33301 0 -16.166 0.333008 -26.499 1s-20.166 1.66699 -29.499 3z" />
    <glyph glyph-name="Gcircumflex" unicode="&#x11c;" horiz-adv-x="657" 
d="M546 371c8 1.33301 16.502 2.33594 25.502 3.00293s17.5 1 25.5 1c9.33301 0 18.166 -0.333008 26.499 -1s16.5 -1.66699 24.5 -3l-31.5 -174.5l-30.5 -174.5c-26 -10.667 -57.333 -19 -94 -25s-72 -9 -106 -9c-43.333 0 -82 6.66699 -116 20s-62.667 32.166 -86 56.499
s-41 53.666 -53 87.999s-18 72.166 -18 113.499c0 61.333 8.16699 120 24.5 176s41 105.5 74 148.5s73.833 77.167 122.5 102.5s105.667 38 171 38c33.333 0 62.833 -2.66699 88.5 -8s47.167 -11.666 64.5 -18.999c-3.33301 -15.333 -7.16602 -29.333 -11.499 -42
s-10.833 -26.667 -19.5 -42c-18.667 7.33301 -37.334 12.666 -56.001 15.999s-40.334 5 -65.001 5c-49.333 0 -91.833 -10.333 -127.5 -31s-65 -48.167 -88 -82.5s-40 -73.5 -51 -117.5s-16.5 -89.333 -16.5 -136c0 -66.667 16 -116 48 -148s76.333 -48 133 -48
c16.667 0 33.167 1.16699 49.5 3.5s30.5 5.83301 42.5 10.5zM458.002 889.003c8.66699 1.33301 18.498 2.33301 29.498 3s21.167 1 30.5 1c6.66699 0 14.834 -0.333008 24.501 -1s18.834 -1.66699 27.501 -3l82 -110c-7.33301 -1.33301 -15 -2.33301 -23 -3
s-16.333 -1 -25 -1c-7.33301 0 -15.5 0.333008 -24.5 1s-17.833 2 -26.5 4l-45 60l-69 -61c-8.66699 -1.33301 -18.167 -2.33301 -28.5 -3s-19.5 -1 -27.5 -1c-9.33301 0 -18.5 0.333008 -27.5 1s-17.167 1.66699 -24.5 3z" />
    </font>
</defs>
</svg>
